<?xml version="1.0" encoding="UTF-8"?>
<svg id="Calque_1" data-name="Calque 1" xmlns="http://www.w3.org/2000/svg" viewBox="0 0 59 59">
  <defs>
    <style>
      .cls-1 {
        fill: #000031;
      }

      .cls-1, .cls-2 {
        stroke-width: 0px;
      }

      .cls-2 {
        fill: #fff;
      }
    </style>
  </defs>
  <circle class="cls-2" cx="29.5" cy="29.5" r="29.5"/>
  <path class="cls-1" d="M25.76,37.4c0-1.94.49-3.71,1.46-5.33.98-1.63,2.31-2.91,4.01-3.84.67-.37,1.2-.9,1.58-1.58.38-.7.58-1.49.58-2.35,0-.8-.2-1.53-.6-2.18-.38-.66-.91-1.18-1.58-1.56-.66-.38-1.38-.58-2.18-.58s-1.54.19-2.21.58c-.66.38-1.18.9-1.58,1.56-.38.66-.58,1.38-.58,2.18h-7.2c0-2.11.52-4.04,1.56-5.78,1.04-1.74,2.43-3.14,4.18-4.18,1.76-1.04,3.7-1.56,5.83-1.56s4.06.52,5.81,1.56c1.76,1.04,3.16,2.43,4.2,4.18,1.04,1.74,1.56,3.67,1.56,5.78s-.53,4.18-1.58,6.02-2.51,3.26-4.37,4.25c-.53.27-.94.66-1.25,1.18-.29.5-.43,1.05-.43,1.66h-7.2ZM29.74,47.62c-1.01,0-1.86-.35-2.57-1.06-.69-.7-1.03-1.57-1.03-2.59s.34-1.83,1.03-2.52c.7-.69,1.56-1.03,2.57-1.03s1.83.34,2.52,1.03,1.03,1.53,1.03,2.52-.34,1.89-1.03,2.59c-.69.7-1.53,1.06-2.52,1.06Z"/>
</svg>