<?xml version="1.0" encoding="UTF-8"?>
<svg id="Calque_1" data-name="Calque 1" xmlns="http://www.w3.org/2000/svg" viewBox="0 0 90.19 90">
  <defs>
    <style>
      .cls-1 {
        fill: #006;
      }

      .cls-1, .cls-2, .cls-3 {
        stroke-width: 0px;
      }

      .cls-2 {
        fill: #ff9292;
      }

      .cls-3 {
        fill: #fff;
      }
    </style>
  </defs>
  <path class="cls-1" d="M70.77,70.61c14.18-14.15,14.18-37.09,0-51.24-14.18-14.15-37.17-14.15-51.35,0-14.18,14.15-14.18,37.09,0,51.24,14.18,14.15,37.17,14.15,51.35,0Z"/>
  <path class="cls-2" d="M46.74,66.2c-.88.78-2.39.79-3.28,0-18.63-16.48-17.6-28.59-17.6-28.59,0-5.29,4.31-9.59,9.62-9.59,4.6,0,8.46,3.24,9.39,7.56.06.25.38.26.44,0,1.14-5.27,6.63-8.93,12.52-7.07,3.97,1.26,6.5,5.16,6.5,9.3.04,1.67-.41,13.16-17.59,28.37h0Z"/>
  <path class="cls-3" d="M45.1,0C20.19,0,0,20.14,0,45s20.19,45,45.1,45,45.1-20.14,45.1-45S70.01,0,45.1,0ZM45.1,81.23c-20.05,0-36.31-16.22-36.31-36.23S25.05,8.77,45.1,8.77s36.31,16.22,36.31,36.23-16.26,36.23-36.31,36.23h0Z"/>
</svg>