<?xml version="1.0" encoding="UTF-8"?>
<svg id="Calque_1" data-name="Calque 1" xmlns="http://www.w3.org/2000/svg" viewBox="0 0 59 59">
  <defs>
    <style>
      .cls-1 {
        fill: #000031;
        fill-rule: evenodd;
      }

      .cls-1, .cls-2 {
        stroke-width: 0px;
      }

      .cls-2 {
        fill: #fff;
      }
    </style>
  </defs>
  <circle class="cls-2" cx="29.5" cy="29.5" r="29.5"/>
  <path class="cls-1" d="M15.84,37.99c.13.15.3.25.5.28h0l9.45,1.48,1.64.26.31.05,1.04.16h0s0-1.06,0-1.06v-16.51h0s-1.3-.22-1.3-.22h-.05s-10.83-1.78-10.83-1.78h0s0,0,0,0c-.12-.02-.24-.01-.35.02h0c-.11.03-.22.09-.31.17h0c-.09.08-.16.17-.21.28h0c-.05.11-.08.23-.08.35h0v16h0c0,.2.07.39.2.53h0ZM16.08,39.9h0s12.45,1.95,12.45,1.95l.95.15c.1.02.2.01.3,0l.9-.14,12.45-1.95h0s0,0,0,0c.58-.09,1.11-.38,1.49-.83h0c.38-.45.59-1.01.59-1.6h0v-16h0c0-.33-.06-.65-.19-.94-.01-.03-.03-.06-.04-.09-.12-.26-.29-.5-.49-.71-.05-.05-.1-.09-.15-.13-.2-.17-.42-.3-.65-.4-.09-.04-.18-.07-.28-.1-.22-.06-.44-.09-.66-.09-.13,0-.26.01-.39.03h0s0,0,0,0l-12.19,2-.56.09-.55-.09-12.18-2h0s0,0,0,0c-.35-.06-.71-.04-1.05.06h0c-.34.1-.66.27-.93.5h0c-.27.23-.49.52-.64.84h0c-.15.33-.23.68-.23,1.04h0v15.99h0c0,.59.21,1.16.59,1.6h0c.38.45.91.74,1.49.83h0ZM30.43,40.22h0v-17.57h0s1.3-.21,1.3-.21h.05s10.83-1.78,10.83-1.78h0s0,0,0,0c.04,0,.09-.01.13-.01h0c.07,0,.15.01.22.03.03,0,.06.02.09.03.08.03.15.08.22.13.02.01.03.03.05.05.07.07.12.15.16.24,0,.01,0,.02.01.03.04.1.06.21.06.31v15.99h0c0,.2-.07.38-.2.53h0c-.13.15-.3.25-.49.28h0s-9.45,1.48-9.45,1.48l-1.64.26-.31.05-1.05.16h0Z"/>
</svg>