<?xml version="1.0" encoding="UTF-8"?>
<svg id="Calque_1" data-name="Calque 1" xmlns="http://www.w3.org/2000/svg" viewBox="0 0 1920 1080">
  <defs>
    <style>
      .cls-1 {
        stroke-width: 3px;
      }

      .cls-1, .cls-2 {
        fill: none;
        stroke: #010140;
        stroke-miterlimit: 10;
      }

      .cls-3 {
        fill: #010140;
      }

      .cls-3, .cls-4 {
        stroke-width: 0px;
      }

      .cls-4 {
        fill: #003;
      }

      .cls-2 {
        stroke-width: 5px;
      }
    </style>
  </defs>
  <rect class="cls-4" x="-.47" y=".09" width="1920" height="1080"/>
  <path class="cls-2" d="M99.53,187.09c-13.03-55.44-19.54-83.16-6-95,19.85-17.36,72.78,2.16,101,36,19.85,23.8,38.87,68.34,18,106-15.06,27.17-50.03,49.23-75,40-18.84-6.96-25.48-33.74-38-87Z"/>
  <path class="cls-2" d="M728.53,415.09c-18.18-27.59,14.1-75.28,20-84,17.36-25.65,56.57-65.35,85-55,32.83,11.95,51.71,90.77,14,132-32.58,35.62-100.28,35.41-119,7Z"/>
  <path class="cls-2" d="M1099.53,258.09c-25.51-38.12-40.25-60.16-34-88,7.18-32,39.88-61.79,69-59,42.23,4.05,71.19,76.08,56,127-7.92,26.55-31.03,58.07-54,56-13.47-1.21-21.96-13.53-37-36Z"/>
  <path class="cls-2" d="M1591.53,214.09c.16-3.7,3.78-64.44,52-83,29.77-11.46,71.95-5.07,84,19,15.8,31.54-29.15,75.43-41,87-10.23,9.99-49.09,47.94-75,35-22.05-11.01-20.28-51.69-20-58Z"/>
  <path class="cls-2" d="M1372.53,419.09c-18.18,8.84-65.86,32.03-64,68,1.33,25.76,27.46,46.2,50,53,41.82,12.62,94.87-14.57,105-57,6.43-26.93-3.61-63.41-29-75-20.32-9.27-41.98,1.27-62,11Z"/>
  <path class="cls-2" d="M1049.53,538.09c-14.75-26.67-49.71-63.94-79-55-30.21,9.22-37.53,62.45-34,95,4.38,40.36,30.51,95.45,66,95,29.29-.37,54.62-38.43,60-71,5.05-30.55-7.75-54.51-13-64Z"/>
  <path class="cls-2" d="M223.53,455.09c-29.05,11.45-29.07,62.62-29,69,.5,44.15,28.34,103.46,67,103,30.13-.36,59.11-36.94,62-73,3.42-42.64-30.78-70.49-40-78-10.27-8.36-36.94-30.09-60-21Z"/>
  <path class="cls-2" d="M318.53,827.09c-28.11-4.29-51.31,31.98-59,44-19.03,29.75-34.17,79.08-17,92,16.55,12.45,57.7-13.04,80-38,8.17-9.14,38.49-43.07,26-73-4.83-11.58-16.22-22.89-30-25Z"/>
  <path class="cls-2" d="M915.53,772.09c-28.68-2.95-53.79,22.14-63,45-17,42.2,9.93,102.28,52,110,21.65,3.97,45.23-6.31,59-23,27.01-32.75,6.23-77.97,3-85-4.69-10.22-20.14-43.83-51-47Z"/>
  <path class="cls-2" d="M1355.53,686.09c-26.75-10.72-60.57,24.79-76,41-14.15,14.86-56.05,58.85-40,93,9.41,20.02,34.9,28.46,53,29,42.85,1.27,78.87-40.7,87-81,5.8-28.74.54-72.16-24-82Z"/>
  <path class="cls-2" d="M1729.53,736.09c-29.77-1.17-49.4,32.89-61,53-3.34,5.8-41.36,71.74-15,98,19.11,19.04,62.08,7.27,87-10,24.3-16.83,50.72-52.24,41-90-5.97-23.18-26.28-49.99-52-51Z"/>
  <path class="cls-2" d="M597.53,154.09c-7.54-25.3-46.97-41.86-77-36-61.97,12.09-99.11,122.58-68,157,16.69,18.47,54.8,17,79,4,17.23-9.26,27.15-28.84,47-68,15.11-29.81,22.59-44.96,19-57Z"/>
  <circle class="cls-3" cx="124.53" cy="136.09" r="16.5"/>
  <path class="cls-1" d="M375.18,348.21c-11.23,23.03-16.85,34.54-24.94,34.82-11.86.4-24.75-21.46-24.96-41.28-.15-13.94,5.89-34.88,23.88-42.07,12.98-5.19,31.44-2.93,37.52,7.39,4.59,7.79-.72,19.01-11.51,41.14Z"/>
  <circle class="cls-3" cx="351.96" cy="358.88" r="7.42"/>
  <circle class="cls-3" cx="511.03" cy="242.59" r="19"/>
  <circle class="cls-3" cx="228.03" cy="500.59" r="19"/>
  <circle class="cls-3" cx="88" cy="798" r="19"/>
  <circle class="cls-3" cx="804.03" cy="320.59" r="19"/>
  <circle class="cls-3" cx="1135.03" cy="152.59" r="19"/>
  <circle class="cls-3" cx="579.03" cy="601.59" r="19"/>
  <path class="cls-2" d="M564.53,571.09c21.44-18.99,62.91-22,83-3,20.34,19.24,12.37,54.98,5,88-6.55,29.35-28.42,102.22-54,101-34.91-1.66-84.03-141.69-34-186Z"/>
  <circle class="cls-3" cx="1033.03" cy="601.59" r="19"/>
  <circle class="cls-3" cx="1695.03" cy="171.59" r="19"/>
  <circle class="cls-3" cx="1406.03" cy="442.59" r="19"/>
  <circle class="cls-3" cx="1572" cy="612" r="19"/>
  <circle class="cls-3" cx="1329.03" cy="734.59" r="19"/>
  <path class="cls-1" d="M1746.86,382.36c-11.4-4.57-25.81,10.56-32.38,17.47-6.03,6.33-23.88,25.08-17.04,39.63,4.01,8.53,14.87,12.13,22.58,12.36,18.26.54,33.61-17.34,37.07-34.51,2.47-12.25.23-30.75-10.23-34.94Z"/>
  <circle class="cls-3" cx="1735.57" cy="403.03" r="8.1"/>
  <circle class="cls-3" cx="1134.57" cy="424.03" r="8.1"/>
  <circle class="cls-3" cx="1319.57" cy="602.03" r="8.1"/>
  <circle class="cls-3" cx="1714.03" cy="849.59" r="19"/>
  <circle class="cls-3" cx="1714" cy="1010" r="19"/>
  <circle class="cls-3" cx="887.03" cy="835.59" r="19"/>
  <path class="cls-1" d="M933.16,165.34c-8.76-.9-16.43,6.76-19.25,13.75-5.19,12.89,3.03,31.25,15.89,33.6,6.62,1.21,13.82-1.93,18.02-7.03,8.25-10,1.9-23.82.92-25.97-1.43-3.12-6.15-13.39-15.58-14.36Z"/>
  <circle class="cls-3" cx="924.45" cy="184.73" r="5.8"/>
  <circle class="cls-3" cx="324.03" cy="868.59" r="19"/>
  <circle class="cls-3" cx="176.53" cy="374.09" r="9.5"/>
  <circle class="cls-3" cx="768.53" cy="152.09" r="9.5"/>
  <circle class="cls-3" cx="902.5" cy="60.5" r="9.5"/>
  <circle class="cls-3" cx="1798.53" cy="621.09" r="9.5"/>
  <circle class="cls-3" cx="1410.53" cy="101.09" r="9.5"/>
  <circle class="cls-3" cx="1319.53" cy="976.09" r="9.5"/>
  <circle class="cls-3" cx="543.53" cy="928.09" r="9.5"/>
  <circle class="cls-3" cx="69.5" cy="1019.5" r="9.5"/>
  <circle class="cls-3" cx="582.84" cy="899.34" r="8.43"/>
  <path class="cls-1" d="M571.82,910.5c-10.87-6.59-17.61-23.77-12.2-34.79,5.48-11.16,21.68-12.48,36.64-13.71,13.3-1.09,47.07-1.41,49.92,9.59,3.89,15.02-49,54.27-74.37,38.9Z"/>
</svg>