<?xml version="1.0" encoding="UTF-8"?>
<svg id="Calque_1" data-name="Calque 1" xmlns="http://www.w3.org/2000/svg" xmlns:xlink="http://www.w3.org/1999/xlink" viewBox="0 0 85.04 85.04">
  <defs>
    <style>
      .cls-1 {
        fill: url(#Dégradé_sans_nom);
      }

      .cls-1, .cls-2, .cls-3, .cls-4, .cls-5, .cls-6 {
        stroke-width: 0px;
      }

      .cls-2 {
        fill: #7f0055;
      }

      .cls-3 {
        isolation: isolate;
        opacity: .15;
      }

      .cls-3, .cls-5 {
        fill: #ff9292;
      }

      .cls-4 {
        fill: #ff3232;
      }

      .cls-6 {
        fill: #5e003e;
      }
    </style>
    <linearGradient id="Dégradé_sans_nom" data-name="Dégradé sans nom" x1="8.46" y1="42.33" x2="76.48" y2="42.33" gradientTransform="translate(0 85.04) scale(1 -1)" gradientUnits="userSpaceOnUse">
      <stop offset="0" stop-color="#ff3232"/>
      <stop offset="1" stop-color="#ff3232"/>
    </linearGradient>
  </defs>
  <path class="cls-6" d="M20.48,25.76c5.66-8.89,20.68-13.32,31.46-10.35,17.04,4.7,22.35,27.55,15,42.61-.35.72-8.17,16.23-20.49,16.44-14.23.24-23.91-20.12-26.71-31.04-1.55-6.04-2.94-11.89.73-17.65h0Z"/>
  <path class="cls-2" d="M35.65,23.02c1.69,4.45,1.54,8.41-.33,8.83s-4.75-2.83-6.44-7.28-1.54-8.41.33-8.83,4.75,2.83,6.44,7.28Z"/>
  <path class="cls-2" d="M56.94,56.05c3.58,3.36,5.26,6.88,3.74,7.86-1.52.98-5.65-.95-9.24-4.31-3.58-3.36-5.26-6.88-3.74-7.86s5.65.95,9.24,4.31Z"/>
  <path class="cls-4" d="M31.95,33.12c2.77-4.35,10.12-6.52,15.39-5.06,8.33,2.3,10.93,13.48,7.34,20.85-.17.35-4,7.94-10.02,8.04-1.08.02-1.93,0-2.62-.86-.6-.74-1.04-1.59-1.48-2.44-.82-1.58-1.59-3.3-3.08-4.37-1.25-.89-3.04-1.22-4-2.48s-1.48-3.45-1.89-5.05c-.76-2.96-1.44-5.82.36-8.64Z"/>
  <path class="cls-1" d="M52.66,5.27c-14.11-3.83-33.74,1.88-41.15,13.33-4.8,7.42-2.98,14.96-.96,22.74.74,2.84,1.77,5.56,2.41,8.42.37,1.64,1.16,3.31,2.35,4.52s2.73,1.93,4.13,2.72c3,1.69,6.23,3.23,8.37,5.93,1.51,1.9,2.36,4.26,2.9,6.63.52,2.28.47,4.68,1.79,6.69.78,1.19,1.72,1.97,2.97,2.62,3.09,1.61,6.52,2.53,10.01,2.47,16.11-.26,26.34-20.25,26.79-21.17,9.61-19.4,2.66-48.84-19.61-54.89ZM62.6,56.61c-.29.68-6.87,15.44-17.23,15.63-2.11.04-4.14-.61-5.42-2.36-.94-1.28-1.14-2.88-1.5-4.39-.41-1.7-.9-3.4-1.78-4.92-1.59-2.75-4.26-4.65-6.75-6.62-1.77-1.4-3.53-2.92-4.77-4.83s-1.75-4.22-2.24-6.42c-1.3-5.75-2.47-11.31.62-16.79,4.76-8.45,17.39-12.67,26.47-9.84,14.33,4.47,18.8,26.21,12.61,40.53Z"/>
  <ellipse class="cls-5" cx="22.83" cy="27.78" rx="5.91" ry="5.9"/>
  <circle class="cls-5" cx="39.21" cy="14.57" r="3.7"/>
  <ellipse class="cls-5" cx="39.17" cy="56.9" rx="3.35" ry="3.34"/>
  <ellipse class="cls-5" cx="65.5" cy="50.55" rx="5.91" ry="5.9"/>
  <path class="cls-3" d="M53.71,1.3C38.21-2.91,16.64,3.37,8.5,15.95c-5.28,8.15-3.27,16.43-1.05,24.99.89,3.43,1.95,7.03,3.38,10.26s4.89,5.26,7.57,7.05c2.94,1.97,6,4,7.85,7.02.95,1.54,1.53,3.28,2.03,5.02.43,1.48.81,2.98.97,4.52.06.61.09,1.24.27,1.83.91,3.16,3.84,4.91,6.64,6.17,3.04,1.37,6.34,2.13,9.68,2.07,17.71-.29,28.94-22.25,29.44-23.26,10.55-21.32,2.92-53.66-21.56-60.32ZM64.63,57.72c-.32.75-7.55,16.96-18.94,17.18-1.57.03-2.9-.45-4.4-.72s-2.33-.7-3.28-1.9c-2.9-3.67-3.63-8.65-6.35-12.45-2.79-3.89-7.42-6.22-9.7-10.52-.71-1.33-.8-2.67-.83-4.15-.04-2.15-.48-4.16-.89-6.26-.98-5.06-1.17-10.27,1.44-14.89,5.23-9.29,19.11-13.93,29.08-10.82,15.75,4.91,20.65,28.79,13.87,44.54Z"/>
</svg>