<?xml version="1.0" encoding="UTF-8"?>
<svg id="Calque_1" data-name="Calque 1" xmlns="http://www.w3.org/2000/svg" viewBox="0 0 85.04 85.04">
  <defs>
    <style>
      .cls-1 {
        fill: #00c;
      }

      .cls-1, .cls-2, .cls-3, .cls-4 {
        stroke-width: 0px;
      }

      .cls-2 {
        fill: #fff;
        isolation: isolate;
        opacity: .15;
      }

      .cls-3 {
        fill: #efefef;
      }

      .cls-4 {
        fill: #00c3e9;
      }
    </style>
  </defs>
  <polygon class="cls-1" points="21.94 32.02 26.66 20.71 33.72 11.75 42.44 10.73 53.52 17.88 62.34 32.02 61.86 50.87 55.87 68.77 42.02 76.82 27.13 72.07 21.94 55.32 21.94 32.02"/>
  <path class="cls-4" d="M34.58,36.36c.12-.27.23-.54.31-.83.67-2.26-.39-4.73.45-6.94.66-1.74,1.89-3.77,3.55-4.73,3.8-2.18,8.36,2.31,10.63,6.9,5.08,10.3,2.99,29.87-3.74,35.19-3.2,2.53-8.03,2.29-10.63-1.86-1.67-2.66-1.89-6.11-2.32-13.01-.25-4.07-1.1-9.11.8-12.91.31-.61.66-1.2.95-1.82Z"/>
  <path class="cls-4" d="M63.18,17.17c-6.44-8.15-19.37-16.12-30.16-12.25-4.67,1.67-8.14,5.39-10.61,9.58-1.19,2.02-2.17,4.16-3.04,6.34-1.02,2.56-2.45,5.22-2.22,8.07.12,1.52.73,2.95,1.07,4.44.65,2.83.27,5.88-1.05,8.47-.85,1.66-2.08,2.93-1.94,4.86.16,2.19.37,4.37.6,6.56,1.24,12.25,1.87,18.37,6.6,23.09,7.38,7.36,21.08,7.78,30.16,3.3,19.1-9.43,25.03-44.17,10.6-62.45ZM48.35,71.91c-6.08,3.52-15.25,3.19-20.19-2.59-2.47-2.89-3.18-6.69-3.65-10.36-.67-5.23-1.95-11.64.17-16.64.87-2.05,1.96-4.12,1.9-6.35-.07-2.49-1.93-5.08-1.41-7.57.38-1.83,1.33-3.88,2.06-5.63,1.61-3.83,4.02-7.84,8.02-9.53,7.22-3.04,15.88,3.22,20.19,9.62,9.66,14.35,5.69,41.63-7.09,49.04Z"/>
  <circle class="cls-3" cx="27.6" cy="21.65" r="4.48"/>
  <circle class="cls-3" cx="49.28" cy="70.66" r="4.48"/>
  <circle class="cls-3" cx="34.43" cy="62.41" r="1.88"/>
  <circle class="cls-3" cx="55.4" cy="24.95" r="1.65"/>
  <path class="cls-2" d="M64.78,14.53C57.82,5.72,43.82-2.91,32.15,1.28c-9.42,3.38-14.19,14.04-16.9,22.96-.62,2.05.51,4.88.91,6.96.49,2.5.84,5.11.17,7.62-.4,1.5-1.14,2.89-1.67,4.35-2.24,6.28-.93,13.44-.05,19.87.59,4.36,1.37,8.93,3.81,12.69.65,1.01,1.42,1.94,2.27,2.79,7.98,7.96,22.81,8.42,32.63,3.57,20.67-10.2,27.08-47.79,11.46-67.56ZM48.74,73.76c-6.58,3.81-16.5,3.45-21.84-2.8-3.43-4.01-3.88-9.21-4.78-19.62-.17-1.93-.59-4.05-.47-5.98.11-1.66,1-3.65,1.88-5.06.38-.61.83-1.19,1.09-1.86.46-1.21.24-2.55-.02-3.82-.34-1.64-.77-3.25-1.17-4.87-.32-1.29.03-1.99.4-3.23.63-2.08,1.3-4.15,2.16-6.15,1.74-4.07,4.33-8.3,8.58-10.09,7.81-3.29,17.18,3.49,21.84,10.41,10.45,15.52,6.16,45.04-7.67,53.06Z"/>
</svg>