<?xml version="1.0" encoding="UTF-8"?>
<svg id="Calque_1" data-name="Calque 1" xmlns="http://www.w3.org/2000/svg" viewBox="0 0 85.04 85.04">
  <defs>
    <style>
      .cls-1 {
        fill: #00c;
      }

      .cls-1, .cls-2, .cls-3, .cls-4 {
        stroke-width: 0px;
      }

      .cls-2 {
        fill: #fff;
        isolation: isolate;
        opacity: .15;
      }

      .cls-3 {
        fill: #efefef;
      }

      .cls-4 {
        fill: #00c3e9;
      }
    </style>
  </defs>
  <polygon class="cls-1" points="21.94 32.02 26.66 20.71 33.72 11.75 42.44 10.73 53.52 17.88 62.34 32.02 61.86 50.87 55.87 68.77 42.02 76.82 27.13 72.07 21.94 55.32 21.94 32.02"/>
  <path class="cls-4" d="M33.41,35.82c.79-3.73,2.13-10.03,5.48-11.95,3.8-2.18,8.36,2.31,10.63,6.9,1.8,3.65,2.52,7.82,2.75,11.85.11,1.99.36,4.4-.15,6.34s-1.99,3.44-2.77,5.25c-.81,1.87-.93,3.95-1.22,5.97-.49,3.34-1.9,6.5-5.45,7.27-3.01.65-5.92-.77-7.53-3.34-1.67-2.66-1.89-6.11-2.32-13.01-.31-4.93-.61-9.64.58-15.27Z"/>
  <path class="cls-4" d="M63.18,17.17c-6.44-8.15-19.37-16.12-30.16-12.25-9.52,3.41-13.31,14.59-15.55,21.21-3.39,9.99-2.54,18.34-1.65,27.1,1.24,12.25,1.87,18.37,6.6,23.09,7.38,7.36,21.08,7.78,30.16,3.3,1.97-.97,3.79-2.21,5.45-3.65.72-.62,1.54-1.17,1.72-2.11.2-1.07-.1-2.25-.28-3.3-.55-3.28-.59-6.78.8-9.8,1.15-2.5,3.17-4.47,5.03-6.49,1.61-1.75,3.15-3.6,4.26-5.71.64-1.22,1.13-2.53,1.38-3.88.88-4.7-.18-10.17-1.44-14.72-.66-2.35-1.51-4.64-2.59-6.83-.53-1.08-1.11-2.13-1.75-3.14-.33-.53-.68-1.04-1.04-1.55-.17-.24-.94-.98-.94-1.27ZM48.35,71.91c-6.08,3.52-15.25,3.19-20.19-2.59-3.17-3.71-3.58-8.52-4.42-18.14-.6-6.87-1.16-13.44,1.1-21.28,1.5-5.19,4.04-13.97,10.41-16.65,7.22-3.04,15.88,3.22,20.19,9.62,1.87,2.78,3.16,5.93,4.01,9.16s1.04,7.29.1,10.53c-1,3.42-3.57,6.15-4.94,9.44-1.38,3.3-1.47,6.97-1.43,10.54.02,1.79.06,3.69-.66,5.37-.77,1.81-2.52,3.04-4.17,4Z"/>
  <circle class="cls-3" cx="27.6" cy="21.65" r="4.48"/>
  <circle class="cls-3" cx="49.28" cy="70.66" r="4.48"/>
  <circle class="cls-3" cx="34.43" cy="62.41" r="1.88"/>
  <circle class="cls-3" cx="55.4" cy="24.95" r="1.65"/>
  <path class="cls-2" d="M64.78,14.53C57.82,5.72,43.82-2.91,32.15,1.28c-10.3,3.69-14.4,15.79-16.82,22.94-3.67,10.81-2.75,19.85-1.78,29.32,1.35,13.25,2.02,19.88,7.14,24.98,7.98,7.96,22.81,8.42,32.63,3.57,3.91-1.93,8.13-4.67,8.62-9.34.47-4.42-.15-9.11,1.69-13.15,1.42-3.12,4.14-5.44,6.11-8.25,5.82-8.28,3.72-19.64,0-28.37-1.28-3.01-2.93-5.86-4.96-8.44ZM48.58,73.61c-1.22,1.27-3.42,1.79-5.11,2.16-1.97.43-4,.56-6,.37-4.02-.37-7.93-2.08-10.58-5.18-3.43-4.01-3.88-9.21-4.78-19.62-.64-7.44-1.26-14.54,1.19-23.03,1.62-5.62,4.37-15.12,11.26-18.02,7.81-3.29,17.18,3.49,21.84,10.41.18.27.36.55.54.83,2.62,4.22,4.09,9.08,4.79,13.97.75,5.22.92,11.54-1.29,16.45-.92,2.05-2.27,3.86-3.41,5.78-.56.95-1.1,1.93-1.46,2.97-.35.99-.26,1.99-.56,3.01-1.16,3.87-3.67,6.93-6.36,9.84-.02.02-.04.04-.06.06Z"/>
</svg>