<?xml version="1.0" encoding="UTF-8"?>
<svg id="Calque_1" data-name="Calque 1" xmlns="http://www.w3.org/2000/svg" xmlns:xlink="http://www.w3.org/1999/xlink" viewBox="0 0 85.04 85.04">
  <defs>
    <style>
      .cls-1 {
        fill: url(#Dégradé_sans_nom);
      }

      .cls-1, .cls-2, .cls-3, .cls-4, .cls-5, .cls-6 {
        stroke-width: 0px;
      }

      .cls-2 {
        fill: #7f0055;
      }

      .cls-3 {
        isolation: isolate;
        opacity: .15;
      }

      .cls-3, .cls-5 {
        fill: #ff9292;
      }

      .cls-4 {
        fill: #ff3232;
      }

      .cls-6 {
        fill: #5e003e;
      }
    </style>
    <linearGradient id="Dégradé_sans_nom" data-name="Dégradé sans nom" x1="8.46" y1="42.33" x2="76.48" y2="42.33" gradientTransform="translate(0 85.04) scale(1 -1)" gradientUnits="userSpaceOnUse">
      <stop offset="0" stop-color="#ff3232"/>
      <stop offset="1" stop-color="#ff3232"/>
    </linearGradient>
  </defs>
  <path class="cls-6" d="M20.48,25.76c5.66-8.89,20.68-13.32,31.46-10.35,17.04,4.7,22.35,27.55,15,42.61-.35.72-8.17,16.23-20.49,16.44-14.23.24-23.91-20.12-26.71-31.04-1.55-6.04-2.94-11.89.73-17.65h0Z"/>
  <path class="cls-2" d="M35.65,23.02c1.69,4.45,1.54,8.41-.33,8.83s-4.75-2.83-6.44-7.28-1.54-8.41.33-8.83,4.75,2.83,6.44,7.28Z"/>
  <path class="cls-2" d="M56.94,56.05c3.58,3.36,5.26,6.88,3.74,7.86-1.52.98-5.65-.95-9.24-4.31-3.58-3.36-5.26-6.88-3.74-7.86s5.65.95,9.24,4.31Z"/>
  <path class="cls-4" d="M32.16,33.3c.19-.23.41-.46.66-.66,1.63-1.37,4.21-1.33,5.59-2.95.35-.41.6-.91.98-1.29.74-.74,2.56-.7,3.54-.76,1.48-.08,2.98.03,4.41.43,8.33,2.3,10.93,13.48,7.34,20.85-.17.35-4,7.94-10.02,8.04-6.96.12-11.7-9.85-13.07-15.19-.68-2.64-1.31-6.16.57-8.46Z"/>
  <path class="cls-1" d="M52.66,5.27c-1.11,0-2.44-.58-3.56-.75-1.3-.2-2.61-.33-3.92-.39-2.64-.13-5.29,0-7.9.36s-5.28.94-7.83,1.75c-2.22.7-4.33,1.37-5.34,3.67-.4.9-.63,1.87-1.11,2.73-1.12,2.02-3.37,3.11-5.56,3.82-2,.65-5.18,1.05-6.4,2.86-1.38,2.05-2.12,4.79-2.42,7.22-.61,5,.69,9.99,1.94,14.79,3.66,14.07,16.32,40.29,34.93,39.99,16.11-.26,26.34-20.25,26.79-21.17,9.61-19.4,2.66-48.84-19.61-54.89ZM62.6,56.61c-.29.68-6.87,15.44-17.23,15.63-11.97.22-20.11-19.14-22.47-29.53-1.06-4.68-2.12-9.64-.5-14.32.76-2.18,1.72-3.48,3.94-4.24,1.83-.63,3.87-.82,5.48-1.97,1.36-.97,2.18-2.49,3.18-3.83,3.14-4.23,10.48-3.68,14.99-2.27,14.33,4.47,18.8,26.21,12.61,40.53Z"/>
  <ellipse class="cls-5" cx="22.83" cy="27.78" rx="5.91" ry="5.9"/>
  <circle class="cls-5" cx="39.21" cy="14.57" r="3.7"/>
  <ellipse class="cls-5" cx="39.17" cy="56.9" rx="3.35" ry="3.34"/>
  <ellipse class="cls-5" cx="65.5" cy="50.55" rx="5.91" ry="5.9"/>
  <path class="cls-3" d="M53.71,1.3c-6.26-1.7-12.96-1.64-19.31-.47-3.32.61-6.57,1.55-9.71,2.8-1.3.52-2.34.95-3.29,2.02-.83.95-1.48,2.05-2.39,2.94-1.44,1.39-3.41,2.05-5.25,2.82-2.49,1.03-3.84,2.33-5.26,4.54-5.28,8.15-3.27,16.43-1.05,24.99,4.02,15.46,17.93,44.27,38.38,43.94,17.71-.29,28.94-22.25,29.44-23.26,10.55-21.32,2.92-53.66-21.56-60.32ZM64.63,57.72c-.32.75-7.55,16.96-18.94,17.18-13.15.25-22.1-21.03-24.69-32.45-1.01-4.47-2.06-9.15-1.1-13.73.39-1.86,1.01-4.5,2.67-5.56,1.9-1.22,4.17-1.73,6.02-3.05,1.86-1.34,3.12-3.37,4.91-4.81,1.98-1.59,4.84-2.34,7.29-2.85,3.16-.67,6.93-.21,9.98.74,15.75,4.91,20.65,28.79,13.87,44.54Z"/>
</svg>