<?xml version="1.0" encoding="UTF-8"?>
<svg id="Calque_1" data-name="Calque 1" xmlns="http://www.w3.org/2000/svg" xmlns:xlink="http://www.w3.org/1999/xlink" viewBox="0 0 85.04 85.04">
  <defs>
    <style>
      .cls-1 {
        fill: url(#Dégradé_sans_nom);
      }

      .cls-1, .cls-2, .cls-3, .cls-4, .cls-5, .cls-6 {
        stroke-width: 0px;
      }

      .cls-2 {
        fill: #7f0055;
      }

      .cls-3 {
        isolation: isolate;
        opacity: .15;
      }

      .cls-3, .cls-5 {
        fill: #ff9292;
      }

      .cls-4 {
        fill: #ff3232;
      }

      .cls-6 {
        fill: #5e003e;
      }
    </style>
    <linearGradient id="Dégradé_sans_nom" data-name="Dégradé sans nom" x1="8.46" y1="42.33" x2="76.48" y2="42.33" gradientTransform="translate(0 85.04) scale(1 -1)" gradientUnits="userSpaceOnUse">
      <stop offset="0" stop-color="#ff3232"/>
      <stop offset="1" stop-color="#ff3232"/>
    </linearGradient>
  </defs>
  <path class="cls-6" d="M20.48,25.76c5.66-8.89,20.68-13.32,31.46-10.35,17.04,4.7,22.35,27.55,15,42.61-.35.72-8.17,16.23-20.49,16.44-14.23.24-23.91-20.12-26.71-31.04-1.55-6.04-2.94-11.89.73-17.65h0Z"/>
  <path class="cls-2" d="M35.65,23.02c1.69,4.45,1.54,8.41-.33,8.83s-4.75-2.83-6.44-7.28-1.54-8.41.33-8.83,4.75,2.83,6.44,7.28Z"/>
  <path class="cls-2" d="M56.94,56.05c3.58,3.36,5.26,6.88,3.74,7.86-1.52.98-5.65-.95-9.24-4.31-3.58-3.36-5.26-6.88-3.74-7.86s5.65.95,9.24,4.31Z"/>
  <path class="cls-4" d="M31.95,33.12c2.77-4.35,10.12-6.52,15.39-5.06,8.33,2.3,10.93,13.48,7.34,20.85-1.15,2.37-2.63,4.32-5.32,4.89-.48.1-.99.16-1.44.36-.69.32-1.18.96-1.69,1.52s-1.24,1.15-2.05,1.24c-3.41.37-6.67-3.35-8.36-5.81-1.93-2.81-3.39-6.05-4.24-9.35-.76-2.96-1.44-5.82.36-8.64Z"/>
  <path class="cls-1" d="M52.66,5.27c-14.11-3.83-33.74,1.88-41.15,13.33-4.8,7.42-2.98,14.96-.96,22.74,3.66,14.07,16.32,40.29,34.93,39.99,2.43-.04,4.83-.39,6.87-1.76,1.92-1.29,3.14-3.39,4.14-5.42.76-1.52,1.51-3.15,2.92-4.1,1.28-.86,2.89-1.01,4.42-1.24,1.19-.18,2.44-.43,3.45-1.13,1.06-.74,1.76-2.13,2.46-3.2.91-1.39,1.81-2.83,2.54-4.33,9.61-19.4,2.66-48.84-19.61-54.89ZM62.6,56.61c-.46,1.08-1.02,2.12-1.6,3.13-.62,1.1-.86,1.32-2.06,1.7-.97.31-1.95.62-2.92.92-.76.24-1.54.49-2.17.98-1.02.78-1.53,2.03-2.11,3.17-.66,1.29-1.48,2.52-2.57,3.46-6.52,5.61-14.01-1.72-17.61-6.95-4.16-6.03-7.04-13.18-8.66-20.31-1.3-5.75-2.47-11.31.62-16.79,4.76-8.45,17.39-12.67,26.47-9.84,14.33,4.47,18.8,26.21,12.61,40.53Z"/>
  <ellipse class="cls-5" cx="22.83" cy="27.78" rx="5.91" ry="5.9"/>
  <circle class="cls-5" cx="39.21" cy="14.57" r="3.7"/>
  <ellipse class="cls-5" cx="39.17" cy="56.9" rx="3.35" ry="3.34"/>
  <ellipse class="cls-5" cx="65.5" cy="50.55" rx="5.91" ry="5.9"/>
  <path class="cls-3" d="M53.71,1.3C38.21-2.91,16.64,3.37,8.5,15.95c-5.28,8.15-3.27,16.43-1.05,24.99,4.02,15.46,17.93,44.27,38.38,43.94,2.65-.04,5.16-.64,7.65-1.5,2.03-.7,3.57-3.12,4.54-4.97.96-1.84,1.65-3.97,3.34-5.16,1.31-.92,2.97-1.09,4.52-1.46,1.34-.32,3.1-.73,4.02-1.77,1.06-1.21,1.94-2.66,2.81-4.01.91-1.42,1.8-2.87,2.55-4.38,10.55-21.32,2.92-53.66-21.56-60.32ZM64.63,57.72c-.61,1.44-1.38,3.54-2.56,4.53-1.7,1.44-4.3,1.41-6.14,2.65-1.39.94-2.3,2.44-3.09,3.92s-1.51,3.04-2.66,4.26c-1.81,1.91-4.38,2.05-6.83,1.62-6.73-1.19-11.5-7.42-14.75-12.94-3.49-5.95-6.09-12.59-7.61-19.32-1.43-6.32-2.72-12.43.68-18.45,5.23-9.29,19.11-13.93,29.08-10.82,15.75,4.91,20.65,28.79,13.87,44.54Z"/>
</svg>