<?xml version="1.0" encoding="UTF-8"?>
<svg id="Calque_1" data-name="Calque 1" xmlns="http://www.w3.org/2000/svg" viewBox="0 0 85.04 85.04">
  <defs>
    <style>
      .cls-1 {
        fill: #00c;
      }

      .cls-1, .cls-2, .cls-3, .cls-4 {
        stroke-width: 0px;
      }

      .cls-2, .cls-3 {
        fill: #efefef;
      }

      .cls-3 {
        isolation: isolate;
        opacity: .15;
      }

      .cls-4 {
        fill: #00c3e9;
      }
    </style>
  </defs>
  <polygon class="cls-1" points="21.94 32.02 26.66 20.71 33.72 11.75 42.44 10.73 53.52 17.88 62.34 32.02 61.86 50.87 55.87 68.77 42.02 76.82 27.13 72.07 21.94 55.32 21.94 32.02"/>
  <path class="cls-4" d="M33.41,35.82c.79-3.73,2.13-10.03,5.48-11.95,3.8-2.18,8.36,2.31,10.63,6.9,5.08,10.3,2.99,29.87-3.74,35.19-.59.46-1.8,1.5-2.48.9-.72-.64-1.14-1.73-1.63-2.54-.63-1.04-1.46-2.08-2.64-2.41-1.09-.31-2.28.05-3.37-.24-1.99-.53-2.17-2.44-2.36-4.16-.23-2.13-.35-4.27-.48-6.41-.31-4.93-.61-9.64.58-15.27Z"/>
  <path class="cls-4" d="M63.18,17.17c-6.44-8.15-19.37-16.12-30.16-12.25-9.52,3.41-13.31,14.59-15.55,21.21-3.39,9.99-2.54,18.34-1.65,27.1.34,3.33.57,6.67,1.08,9.98.23,1.47.38,3,.9,4.4s1.36,2.74,2.22,4.01c.49.72,1,1.44,1.68,1.97.59.46,1.28.76,1.98,1.03.91.34,1.93.73,2.9.83s2.02.14,3.03.31c3.95.64,7.71,2.26,11.03,4.48.76.51,1.51,1.06,2.36,1.41,1.57.66,3.18.21,4.75-.22,1.66-.45,3.28-1.05,4.83-1.81,19.1-9.43,25.03-44.17,10.6-62.45ZM48.35,71.91c-.22,0-.69.38-.9.48-.34.17-.68.32-1.03.47-.71.29-1.44.53-2.18.73-.67.18-1.59.51-2.29.45-.57-.05-1.13-.65-1.48-1.1-.33-.43-.55-.94-.8-1.43-.5-.97-1.15-1.85-1.93-2.62-.67-.66-1.45-1.23-2.33-1.56-.76-.29-1.58-.39-2.39-.45-1.48-.12-2.98-.13-4.4-.57s-2.49-1.28-3.14-2.58c-.5-1.01-.61-2.26-.78-3.37-.46-3.04-.69-6.11-.96-9.18-.6-6.87-1.16-13.44,1.1-21.28,1.5-5.19,4.04-13.97,10.41-16.65,7.22-3.04,15.88,3.22,20.19,9.62,9.66,14.35,5.69,41.63-7.09,49.04Z"/>
  <circle class="cls-2" cx="27.6" cy="21.65" r="4.48"/>
  <circle class="cls-2" cx="49.28" cy="70.66" r="4.48"/>
  <circle class="cls-2" cx="34.43" cy="62.41" r="1.88"/>
  <circle class="cls-2" cx="55.4" cy="24.95" r="1.65"/>
  <path class="cls-3" d="M64.78,14.53C57.82,5.72,43.82-2.91,32.15,1.28c-10.3,3.69-14.4,15.79-16.82,22.94-3.67,10.81-2.75,19.85-1.78,29.32.39,3.78.65,7.58,1.27,11.34.12.74.11,1.48.32,2.2.22.77.51,1.52.85,2.24.68,1.44,1.6,2.78,2.7,3.93.18.18.36.36.54.54,1.93,1.81,4.87,3.62,7.58,3.8,2.99.2,5.97.14,8.72,1.61,1.73.92,3.16,2.33,4.91,3.21,1.98.99,4.22,1.22,6.4,1.17,1.11-.02,2.3-.03,3.39-.23s2.13-.78,3.09-1.26c20.67-10.2,27.08-47.79,11.46-67.56ZM48.74,73.76c-.27,0-.82.45-1.08.57-.4.19-.81.37-1.22.54-.84.33-1.7.6-2.58.81-.68.16-1.54.49-2.23.47-.79-.03-1.68-.54-2.26-1.03-.75-.63-1.28-1.46-1.92-2.2-1.89-2.16-4.74-3.36-7.6-3.62-.93-.08-1.86-.07-2.77-.26s-1.96-.61-2.34-1.53c-2.04-5.05-2.16-10.82-2.62-16.18-.64-7.44-1.26-14.54,1.19-23.03,1.62-5.62,4.37-15.12,11.26-18.02,7.81-3.29,17.18,3.49,21.84,10.41,10.45,15.52,6.16,45.04-7.67,53.06Z"/>
</svg>