<?xml version="1.0" encoding="UTF-8"?>
<svg id="Calque_1" data-name="Calque 1" xmlns="http://www.w3.org/2000/svg" xmlns:xlink="http://www.w3.org/1999/xlink" viewBox="0 0 85.04 85.04">
  <defs>
    <style>
      .cls-1 {
        fill: url(#Dégradé_sans_nom);
      }

      .cls-1, .cls-2, .cls-3, .cls-4, .cls-5, .cls-6 {
        stroke-width: 0px;
      }

      .cls-2 {
        fill: #7f0055;
      }

      .cls-3 {
        isolation: isolate;
        opacity: .15;
      }

      .cls-3, .cls-5 {
        fill: #ff9292;
      }

      .cls-4 {
        fill: #ff3232;
      }

      .cls-6 {
        fill: #5e003e;
      }
    </style>
    <linearGradient id="Dégradé_sans_nom" data-name="Dégradé sans nom" x1="8.46" y1="42.33" x2="76.48" y2="42.33" gradientTransform="translate(0 85.04) scale(1 -1)" gradientUnits="userSpaceOnUse">
      <stop offset="0" stop-color="#ff3232"/>
      <stop offset="1" stop-color="#ff3232"/>
    </linearGradient>
  </defs>
  <path class="cls-6" d="M20.48,25.76c5.66-8.89,20.68-13.32,31.46-10.35,17.04,4.7,22.35,27.55,15,42.61-.35.72-8.17,16.23-20.49,16.44-14.23.24-23.91-20.12-26.71-31.04-1.55-6.04-2.94-11.89.73-17.65h0Z"/>
  <path class="cls-2" d="M35.65,23.02c1.69,4.45,1.54,8.41-.33,8.83s-4.75-2.83-6.44-7.28-1.54-8.41.33-8.83,4.75,2.83,6.44,7.28Z"/>
  <path class="cls-2" d="M56.94,56.05c3.58,3.36,5.26,6.88,3.74,7.86-1.52.98-5.65-.95-9.24-4.31-3.58-3.36-5.26-6.88-3.74-7.86s5.65.95,9.24,4.31Z"/>
  <path class="cls-4" d="M31.95,33.12c2.77-4.35,10.12-6.52,15.39-5.06,1.7.47,2.71,1.16,3.48,2.76.71,1.47,1.55,2.89,2.5,4.21.83,1.16,2.38,2.34,2.68,3.71.73,3.3.15,7.15-1.32,10.17-.17.35-4,7.94-10.02,8.04-6.96.12-11.7-9.85-13.07-15.19-.76-2.96-1.44-5.82.36-8.64Z"/>
  <path class="cls-1" d="M52.66,5.27c-14.11-3.83-33.74,1.88-41.15,13.33-4.8,7.42-2.98,14.96-.96,22.74,3.66,14.07,16.32,40.29,34.93,39.99,16.11-.26,26.34-20.25,26.79-21.17,2.25-4.54,3.55-9.53,4.02-14.58.23-2.54.26-5.1.07-7.64-.08-1.11-.03-2.46-.57-3.46-.49-.92-1.4-1.53-2.2-2.15-3.5-2.71-6.03-6.66-7.01-10.98-.47-2.05-.59-4.17-1.15-6.2-1.54-5.65-7.56-8.47-12.77-9.89ZM62.6,56.61c-.29.68-6.87,15.44-17.23,15.63-11.97.22-20.11-19.14-22.47-29.53-1.3-5.75-2.47-11.31.62-16.79,4.76-8.45,17.39-12.67,26.47-9.84,1.64.51,2.45,1.25,3.55,2.55,1,1.18,1.89,2.47,2.46,3.92.5,1.3.73,2.68,1.11,4.02.91,3.22,2.74,6.18,5.21,8.44,1.17,1.07,2.5,2.1,2.8,3.74.37,1.99.25,4.21.13,6.21-.23,3.98-1.06,7.97-2.65,11.64Z"/>
  <ellipse class="cls-5" cx="22.83" cy="27.78" rx="5.91" ry="5.9"/>
  <circle class="cls-5" cx="39.21" cy="14.57" r="3.7"/>
  <ellipse class="cls-5" cx="39.17" cy="56.9" rx="3.35" ry="3.34"/>
  <ellipse class="cls-5" cx="65.5" cy="50.55" rx="5.91" ry="5.9"/>
  <path class="cls-3" d="M53.71,1.3C38.21-2.91,16.64,3.37,8.5,15.95c-5.28,8.15-3.27,16.43-1.05,24.99,4.02,15.46,17.93,44.27,38.38,43.94,17.71-.29,28.94-22.25,29.44-23.26.11-.23.22-.46.33-.69,2.2-4.67,3.51-9.74,4.04-14.88.26-2.61.33-5.24.18-7.86s-.42-4.43-2.49-6.19c-2.18-1.85-4.54-3.59-6.02-6.04-3.14-5.19-1.61-12.34-5.09-17.31-2.75-3.92-8.04-6.14-12.51-7.36ZM64.63,57.72c-.32.75-7.55,16.96-18.94,17.18-13.15.25-22.1-21.03-24.69-32.45-1.43-6.32-2.72-12.43.68-18.45,5.23-9.29,19.11-13.93,29.08-10.82,2.44.76,6.08,2.24,7.36,4.64.37.7.52,1.49.67,2.27.55,2.83,1.23,5.71,2.79,8.14.73,1.13,1.64,2.14,2.54,3.14.8.88,1.85,1.77,2.5,2.77.52.8.52,1.94.64,2.9.3,2.38.4,4.78.3,7.18-.19,4.62-1.11,9.26-2.93,13.51Z"/>
</svg>