<?xml version="1.0" encoding="UTF-8"?>
<svg id="Calque_1" data-name="Calque 1" xmlns="http://www.w3.org/2000/svg" viewBox="0 0 85.04 85.04">
  <defs>
    <style>
      .cls-1 {
        fill: #00c;
      }

      .cls-1, .cls-2, .cls-3, .cls-4 {
        stroke-width: 0px;
      }

      .cls-2, .cls-3 {
        fill: #efefef;
      }

      .cls-3 {
        isolation: isolate;
        opacity: .15;
      }

      .cls-4 {
        fill: #00c3e9;
      }
    </style>
  </defs>
  <polygon class="cls-1" points="21.94 32.02 26.66 20.71 33.72 11.75 42.44 10.73 53.52 17.88 62.34 32.02 61.86 50.87 55.87 68.77 42.02 76.82 27.13 72.07 21.94 55.32 21.94 32.02"/>
  <path class="cls-4" d="M33.41,35.82c.52-2.46,1.07-4.95,2.03-7.28.73-1.79,2.42-5.4,4.88-4.72.22.06.44.15.65.25.59.3,1.12.71,1.7,1.04.55.31,1.14.53,1.75.66.45.1.91.14,1.35.28.91.29,1.49,1.14,2.03,1.87.66.9,1.23,1.85,1.73,2.85,5.08,10.3,2.99,29.87-3.74,35.19-3.2,2.53-8.03,2.29-10.63-1.86-1.67-2.66-1.89-6.11-2.32-13.01-.31-4.93-.61-9.64.58-15.27Z"/>
  <path class="cls-4" d="M63.18,17.17c-.74-.93-1.42-1.65-2.51-2.15-.98-.45-2.03-.69-3.08-.89-1.66-.32-3.37-.54-4.87-1.33-1.81-.95-3.14-2.63-4.18-4.4-.44-.75-.86-1.54-1.47-2.16-1.61-1.61-4.35-2.09-6.52-2.26-2.55-.2-5.13.08-7.54.94-9.52,3.41-13.31,14.59-15.55,21.21-3.39,9.99-2.54,18.34-1.65,27.1,1.24,12.25,1.87,18.37,6.6,23.09,7.38,7.36,21.08,7.78,30.16,3.3,19.1-9.43,25.03-44.17,10.6-62.45ZM48.35,71.91c-6.08,3.52-15.25,3.19-20.19-2.59-3.17-3.71-3.58-8.52-4.42-18.14-.6-6.87-1.16-13.44,1.1-21.28,1.5-5.19,4.04-13.97,10.41-16.65,2.91-1.22,6.22-1.12,8.57,1.13.94.9,1.74,1.96,2.76,2.78,1.47,1.18,3.27,1.79,5.04,2.37.76.25,1.58.37,2.08,1,.6.76,1.2,1.53,1.75,2.34,9.66,14.35,5.69,41.63-7.09,49.04Z"/>
  <circle class="cls-2" cx="27.6" cy="21.65" r="4.48"/>
  <circle class="cls-2" cx="49.28" cy="70.66" r="4.48"/>
  <circle class="cls-2" cx="34.43" cy="62.41" r="1.88"/>
  <circle class="cls-2" cx="55.4" cy="24.95" r="1.65"/>
  <path class="cls-3" d="M64.8,14.51c-.54-.71-1.14-1.36-1.95-1.8-1.49-.8-3.29-.54-4.98-.55-1.11,0-2.23-.14-3.31-.41-.69-.17-1.37-.39-1.94-.8-.84-.61-1.33-1.57-1.8-2.49-.62-1.21-1.25-2.41-1.89-3.61-.4-.74-.81-1.49-1.39-2.09-1.84-1.92-4.7-2.3-7.21-2.5-2.76-.22-5.56.08-8.18,1.02-10.3,3.69-14.4,15.79-16.82,22.94-3.67,10.81-2.75,19.85-1.78,29.32,1.35,13.25,2.02,19.88,7.14,24.98,7.98,7.96,22.81,8.42,32.63,3.57,2.43-1.2,4.66-2.78,6.64-4.62,3.26-3.02,5.86-6.72,7.87-10.67,2.15-4.23,3.64-8.78,4.56-13.44.94-4.78,1.28-9.69.97-14.56s-1.22-9.54-2.9-14.03c-.81-2.18-1.81-4.3-2.99-6.31-.58-.99-1.22-1.96-1.89-2.89-.26-.36-.51-.72-.78-1.07ZM48.74,73.76c-6.58,3.81-16.5,3.45-21.84-2.8-3.43-4.01-3.88-9.21-4.78-19.62-.64-7.44-1.26-14.54,1.19-23.03,1.62-5.62,4.37-15.12,11.26-18.02,1.65-.69,3.45-.95,5.23-.82s3.35.66,4.72,1.93c.96.89,1.61,2.08,2.6,2.94,1.42,1.23,3.31,1.63,5.01,2.32.8.32,1.74.71,2.31,1.38.7.82,1.35,1.76,1.96,2.65,10.45,15.52,6.16,45.04-7.67,53.06Z"/>
</svg>