<?xml version="1.0" encoding="UTF-8"?>
<svg id="Calque_2" data-name="Calque 2" xmlns="http://www.w3.org/2000/svg" viewBox="0 0 153 241">
  <defs>
    <style>
      .cls-1 {
        fill: #ff6c00;
      }

      .cls-1, .cls-2, .cls-3, .cls-4, .cls-5, .cls-6, .cls-7, .cls-8 {
        stroke-width: 0px;
      }

      .cls-2 {
        fill: #ffdc4b;
      }

      .cls-3 {
        fill: #fc3;
      }

      .cls-9, .cls-10, .cls-11, .cls-12 {
        isolation: isolate;
      }

      .cls-4, .cls-10, .cls-11, .cls-12 {
        fill: #006;
      }

      .cls-10 {
        letter-spacing: -.03em;
      }

      .cls-10, .cls-11, .cls-12 {
        font-family: VarelaRound-Regular, 'Varela Round';
        font-size: 10px;
      }

      .cls-5 {
        fill: #ff4240;
      }

      .cls-13 {
        stroke: #ff4240;
      }

      .cls-13, .cls-14 {
        fill: none;
        stroke-linecap: round;
        stroke-linejoin: round;
      }

      .cls-14 {
        stroke: #fff;
        stroke-width: 5px;
      }

      .cls-6 {
        fill: #fff;
      }

      .cls-7 {
        fill: #5e003e;
      }

      .cls-11 {
        letter-spacing: -.09em;
      }

      .cls-8 {
        fill: #009;
      }
    </style>
  </defs>
  <g id="Calque_1-2" data-name="Calque 1">
    <path class="cls-6" d="M11.58,1h129.85c6.39,0,11.58,5.13,11.58,11.45v216.1c0,6.32-5.18,11.45-11.58,11.45H11.58c-6.39,0-11.58-5.13-11.58-11.45V12.45C0,6.13,5.18,1,11.58,1Z"/>
    <path class="cls-3" d="M141.01,1c6.07,0,10.99,4.93,10.99,11v216.99c0,6.07-4.93,11-10.99,11H11.99c-6.07,0-10.99-4.93-10.99-11V12C1,5.94,5.93,1,11.99,1h129.01M141.01,0H12C5.4,0,0,5.4,0,12v217c0,6.6,5.4,12,12,12h129c6.6,0,12-5.4,12-12V12c0-6.6-5.4-12-11.99-12h0Z"/>
    <path class="cls-4" d="M4,11h144v215.5c0,4.69-3.81,8.5-8.5,8.5H12.5c-4.69,0-8.5-3.81-8.5-8.5V11h0Z"/>
    <g class="cls-9">
      <text class="cls-12" transform="translate(50.68 24.69)"><tspan x="0" y="0">CHIMI</tspan></text>
      <text class="cls-10" transform="translate(80.54 24.69)"><tspan x="0" y="0">O</tspan></text>
      <text class="cls-12" transform="translate(88.38 24.69)"><tspan x="0" y="0">THERAPIE</tspan></text>
    </g>
    <g>
      <rect class="cls-7" x="7" y="6" width="32" height="32" rx="6.83" ry="6.83"/>
      <circle class="cls-5" cx="17.9" cy="13.68" r="5.07"/>
      <circle class="cls-5" cx="22.97" cy="23.75" r="3.1"/>
      <circle class="cls-5" cx="29.17" cy="12.42" r="3.1"/>
      <circle class="cls-5" cx="32.28" cy="19.96" r="3.1"/>
      <circle class="cls-5" cx="14.54" cy="28.73" r="4.33"/>
      <circle class="cls-5" cx="31.05" cy="30.43" r="4.33"/>
    </g>
    <rect class="cls-6" x="1" y="1" width="151" height="42" rx="13.9" ry="13.9"/>
    <rect class="cls-7" x="7" y="6" width="32" height="32" rx="6.83" ry="6.83"/>
    <circle class="cls-8" cx="118.26" cy="221.08" r="4.56"/>
    <circle class="cls-8" cx="27.71" cy="225.53" r="4.56"/>
    <circle class="cls-8" cx="137.41" cy="159.49" r="4.56"/>
    <circle class="cls-8" cx="14.54" cy="55.12" r="4.56"/>
    <circle class="cls-8" cx="127.38" cy="52.92" r="4.56"/>
    <g>
      <circle class="cls-8" cx="14.54" cy="150.37" r="4.56"/>
      <path class="cls-8" d="M14.54,155.43c-2.79,0-5.06-2.27-5.06-5.06s2.27-5.06,5.06-5.06,5.06,2.27,5.06,5.06-2.27,5.06-5.06,5.06ZM14.54,146.31c-2.24,0-4.06,1.82-4.06,4.06s1.82,4.06,4.06,4.06,4.06-1.82,4.06-4.06-1.82-4.06-4.06-4.06Z"/>
    </g>
    <g>
      <circle class="cls-8" cx="22.97" cy="129.87" r="2.28"/>
      <path class="cls-8" d="M22.97,132.65c-1.53,0-2.78-1.25-2.78-2.78s1.25-2.78,2.78-2.78,2.78,1.25,2.78,2.78-1.25,2.78-2.78,2.78ZM22.97,128.09c-.98,0-1.78.8-1.78,1.78s.8,1.78,1.78,1.78,1.78-.8,1.78-1.78-.8-1.78-1.78-1.78Z"/>
    </g>
    <g>
      <circle class="cls-8" cx="15.88" cy="69.33" r="2.28"/>
      <path class="cls-8" d="M15.88,72.11c-1.53,0-2.78-1.25-2.78-2.78s1.25-2.78,2.78-2.78,2.78,1.25,2.78,2.78-1.25,2.78-2.78,2.78ZM15.88,67.56c-.98,0-1.78.8-1.78,1.78s.8,1.78,1.78,1.78,1.78-.8,1.78-1.78-.8-1.78-1.78-1.78Z"/>
    </g>
    <g>
      <circle class="cls-8" cx="92.84" cy="218.3" r="2.28"/>
      <path class="cls-8" d="M92.84,221.08c-1.53,0-2.78-1.25-2.78-2.78s1.25-2.78,2.78-2.78,2.78,1.25,2.78,2.78-1.25,2.78-2.78,2.78ZM92.84,216.52c-.98,0-1.78.8-1.78,1.78s.8,1.78,1.78,1.78,1.78-.8,1.78-1.78-.8-1.78-1.78-1.78Z"/>
    </g>
    <g>
      <circle class="cls-8" cx="107.61" cy="52.34" r="2.28"/>
      <path class="cls-8" d="M107.61,55.12c-1.53,0-2.78-1.25-2.78-2.78s1.25-2.78,2.78-2.78,2.78,1.25,2.78,2.78-1.25,2.78-2.78,2.78ZM107.61,50.56c-.98,0-1.78.8-1.78,1.78s.8,1.78,1.78,1.78,1.78-.8,1.78-1.78-.8-1.78-1.78-1.78Z"/>
    </g>
    <path class="cls-8" d="M75.52,43c-2.61,4.76-6.64,8.57-10.38,8.22-2.89-.26-4.78-2.86-8.38-8.22h-1.2c.08.12.16.24.24.36,3.57,5.33,5.72,8.54,9.25,8.86.19.02.37.02.56.02,4.21,0,8.42-4.2,11.04-9.24h-1.13Z"/>
    <path class="cls-8" d="M148,140c-5.96,4.39-9.5,4.81-11.59,3.77-4.52-2.26-4.67-10.16-4.52-13.45h0c.03-.61.78-15.09,12.16-19.47,1.25-.48,2.62-.81,3.95-1.02v-1.04c-1.44.22-2.93.6-4.3,1.13-11.98,4.61-12.77,19.72-12.8,20.36-.15,3.49.03,11.87,5.08,14.39.94.47,1.96.7,3.08.7,2.36,0,5.11-1.05,8.94-3.14"/>
    <path class="cls-8" d="M4,106.97c5.87.75,11.47,4.19,12.73,8.41h0c.79,2.65-.82,5.99-4.53,13.32-3.89,7.67-6.18,12.17-8.2,14.72v1.29c2.51-2.57,4.88-7.25,9.1-15.58,3.57-7.03,5.53-10.91,4.59-14.05v.02c-1.41-4.68-7.37-8.41-13.69-9.15"/>
    <path class="cls-8" d="M18.9,235c-1.99-4.05-2.74-8.68-1.27-12.15,1.31-3.08,4.46-5.5,8.87-6.8,7.59-2.24,17.26-.86,23.5,3.37,5.77,3.91,10.66,11.19,8.74,15.58h1.13c1.57-5.2-3.47-12.45-9.31-16.41-6.47-4.38-16.48-5.82-24.34-3.5-4.7,1.39-8.08,4.01-9.51,7.37-1.45,3.42-.93,7.86.96,12.54"/>
    <path class="cls-8" d="M103.48,235c-1.6-3.41-2.17-6.42-1.41-9.81,1.73-7.7,9.52-14.39,16.02-13.77,3.33.32,6.59,2.6,9.15,6.41,3.23,4.8,4.94,11.23,4.79,17.17h.99c.15-6.14-1.62-12.78-4.95-17.73-2.74-4.07-6.25-6.5-9.89-6.85-6.97-.67-15.27,6.4-17.09,14.55-.78,3.48-.23,6.61,1.3,10.03,0,0,1.09,0,1.09,0Z"/>
    <g class="cls-9">
      <text class="cls-12" transform="translate(71.22 25.46)"><tspan x="0" y="0">ANA</tspan></text>
      <text class="cls-11" transform="translate(94.17 25.46)"><tspan x="0" y="0">L</tspan></text>
      <text class="cls-12" transform="translate(99.03 25.46)"><tspan x="0" y="0">Y</tspan></text>
      <text class="cls-12" transform="translate(105.33 25.46)"><tspan x="0" y="0">SE</tspan></text>
    </g>
    <g>
      <path class="cls-1" d="M119.65,176.2l-1.15,1.15c-2.04,2.04-5.39,2.04-7.43,0l-28.01-28.01c-2.04-2.04-2.04-5.39,0-7.43l1.15-1.15c2.04-2.04,5.39-2.04,7.43,0l28.01,28.01c2.04,2.04,2.04,5.39,0,7.43"/>
      <path class="cls-1" d="M102.04,158.59l-1.3,1.3c-2.04,2.04-5.39,2.04-7.43,0l-9.96-9.96c-2.04-2.04-2.04-5.39,0-7.43l1.3-1.3c2.04-2.04,5.39-2.04,7.43,0l9.96,9.96c2.04,2.04,2.04,5.39,0,7.43"/>
      <path class="cls-2" d="M66.32,159.06c-18.37,0-33.32-14.95-33.32-33.32s14.95-33.32,33.32-33.32,33.32,14.95,33.32,33.32-14.95,33.32-33.32,33.32"/>
      <path class="cls-1" d="M66.32,94.43c17.27,0,31.32,14.05,31.32,31.32s-14.05,31.32-31.32,31.32-31.32-14.05-31.32-31.32,14.05-31.32,31.32-31.32M66.32,90.43c-19.51,0-35.32,15.81-35.32,35.32s15.81,35.32,35.32,35.32,35.32-15.81,35.32-35.32-15.81-35.32-35.32-35.32"/>
      <path class="cls-14" d="M48.51,111.44s-9.1,9.32-3.25,21.67"/>
      <path class="cls-6" d="M57.25,105.56c0,1.45-1.17,2.62-2.62,2.62s-2.62-1.17-2.62-2.62,1.17-2.62,2.62-2.62,2.62,1.17,2.62,2.62"/>
    </g>
    <circle class="cls-5" cx="133.04" cy="218.3" r="6.03"/>
    <circle class="cls-5" cx="124.82" cy="210.49" r="6.03"/>
    <circle class="cls-5" cx="130.02" cy="204.46" r="3.02"/>
    <circle class="cls-5" cx="130.86" cy="225.53" r="3.02"/>
    <circle class="cls-5" cx="140.42" cy="215.28" r="3.02"/>
    <g>
      <line class="cls-13" x1="14.75" y1="13.64" x2="30.84" y2="29.73"/>
      <line class="cls-13" x1="30.84" y1="13.64" x2="14.75" y2="29.73"/>
    </g>
  </g>
</svg>