<?xml version="1.0" encoding="UTF-8"?>
<svg id="Calque_2" data-name="Calque 2" xmlns="http://www.w3.org/2000/svg" viewBox="0 0 153 241">
  <defs>
    <style>
      .cls-1 {
        fill: #ff6c00;
      }

      .cls-1, .cls-2, .cls-3, .cls-4, .cls-5, .cls-6, .cls-7, .cls-8 {
        stroke-width: 0px;
      }

      .cls-2 {
        fill: #ffdc4b;
      }

      .cls-3 {
        fill: #fc3;
      }

      .cls-9, .cls-10, .cls-11 {
        isolation: isolate;
      }

      .cls-4, .cls-10, .cls-11 {
        fill: #006;
      }

      .cls-10 {
        letter-spacing: -.03em;
      }

      .cls-10, .cls-11 {
        font-family: VarelaRound-Regular, 'Varela Round';
        font-size: 10px;
      }

      .cls-5 {
        fill: #ff4240;
      }

      .cls-6 {
        fill: #fff;
      }

      .cls-7 {
        fill: #5e003e;
      }

      .cls-12, .cls-13 {
        fill: none;
        stroke: #ff4240;
        stroke-miterlimit: 10;
      }

      .cls-8 {
        fill: #009;
      }

      .cls-13 {
        stroke-linecap: round;
      }
    </style>
  </defs>
  <g id="Calque_1-2" data-name="Calque 1">
    <path class="cls-6" d="M11.58,1h129.85c6.39,0,11.58,5.13,11.58,11.45v216.1c0,6.32-5.18,11.45-11.58,11.45H11.58c-6.39,0-11.58-5.13-11.58-11.45V12.45C0,6.13,5.18,1,11.58,1Z"/>
    <path class="cls-3" d="M141.01,1c6.07,0,10.99,4.93,10.99,11v216.99c0,6.07-4.93,11-10.99,11H11.99c-6.07,0-10.99-4.93-10.99-11V12C1,5.94,5.93,1,11.99,1h129.01M141.01,0H12C5.4,0,0,5.4,0,12v217c0,6.6,5.4,12,12,12h129c6.6,0,12-5.4,12-12V12c0-6.6-5.4-12-11.99-12h0Z"/>
    <path class="cls-4" d="M4,12h144v215.5c0,4.69-3.81,8.5-8.5,8.5H12.5c-4.69,0-8.5-3.81-8.5-8.5V12h0Z"/>
    <g class="cls-9">
      <text class="cls-11" transform="translate(50.68 25.33)"><tspan x="0" y="0">CHIMI</tspan></text>
      <text class="cls-10" transform="translate(80.54 25.33)"><tspan x="0" y="0">O</tspan></text>
      <text class="cls-11" transform="translate(88.38 25.33)"><tspan x="0" y="0">THERAPIE</tspan></text>
    </g>
    <g>
      <rect class="cls-7" x="7" y="6" width="32" height="32" rx="6.83" ry="6.83"/>
      <circle class="cls-5" cx="17.9" cy="14.32" r="5.07"/>
      <circle class="cls-5" cx="22.97" cy="24.39" r="3.1"/>
      <circle class="cls-5" cx="29.17" cy="13.06" r="3.1"/>
      <circle class="cls-5" cx="32.28" cy="20.6" r="3.1"/>
      <circle class="cls-5" cx="14.54" cy="29.37" r="4.33"/>
      <circle class="cls-5" cx="31.05" cy="31.07" r="4.33"/>
    </g>
    <rect class="cls-6" x="1" y="2" width="151" height="42" rx="13.9" ry="13.9"/>
    <rect class="cls-7" x="7" y="6" width="32" height="32" rx="6.83" ry="6.83"/>
    <circle class="cls-8" cx="118.26" cy="221.72" r="4.56"/>
    <circle class="cls-8" cx="27.71" cy="226.17" r="4.56"/>
    <circle class="cls-8" cx="137.41" cy="160.13" r="4.56"/>
    <circle class="cls-8" cx="14.54" cy="55.76" r="4.56"/>
    <circle class="cls-8" cx="127.38" cy="53.56" r="4.56"/>
    <g>
      <circle class="cls-8" cx="14.54" cy="151.01" r="4.56"/>
      <path class="cls-8" d="M14.54,156.07c-2.79,0-5.06-2.27-5.06-5.06s2.27-5.06,5.06-5.06,5.06,2.27,5.06,5.06-2.27,5.06-5.06,5.06ZM14.54,146.95c-2.24,0-4.06,1.82-4.06,4.06s1.82,4.06,4.06,4.06,4.06-1.82,4.06-4.06-1.82-4.06-4.06-4.06Z"/>
    </g>
    <g>
      <circle class="cls-8" cx="22.97" cy="130.51" r="2.28"/>
      <path class="cls-8" d="M22.97,133.29c-1.53,0-2.78-1.25-2.78-2.78s1.25-2.78,2.78-2.78,2.78,1.25,2.78,2.78-1.25,2.78-2.78,2.78ZM22.97,128.73c-.98,0-1.78.8-1.78,1.78s.8,1.78,1.78,1.78,1.78-.8,1.78-1.78-.8-1.78-1.78-1.78Z"/>
    </g>
    <g>
      <circle class="cls-8" cx="15.88" cy="69.97" r="2.28"/>
      <path class="cls-8" d="M15.88,72.75c-1.53,0-2.78-1.25-2.78-2.78s1.25-2.78,2.78-2.78,2.78,1.25,2.78,2.78-1.25,2.78-2.78,2.78ZM15.88,68.2c-.98,0-1.78.8-1.78,1.78s.8,1.78,1.78,1.78,1.78-.8,1.78-1.78-.8-1.78-1.78-1.78Z"/>
    </g>
    <g>
      <circle class="cls-8" cx="92.84" cy="218.94" r="2.28"/>
      <path class="cls-8" d="M92.84,221.72c-1.53,0-2.78-1.25-2.78-2.78s1.25-2.78,2.78-2.78,2.78,1.25,2.78,2.78-1.25,2.78-2.78,2.78ZM92.84,217.16c-.98,0-1.78.8-1.78,1.78s.8,1.78,1.78,1.78,1.78-.8,1.78-1.78-.8-1.78-1.78-1.78Z"/>
    </g>
    <g>
      <circle class="cls-8" cx="107.61" cy="52.98" r="2.28"/>
      <path class="cls-8" d="M107.61,55.76c-1.53,0-2.78-1.25-2.78-2.78s1.25-2.78,2.78-2.78,2.78,1.25,2.78,2.78-1.25,2.78-2.78,2.78ZM107.61,51.2c-.98,0-1.78.8-1.78,1.78s.8,1.78,1.78,1.78,1.78-.8,1.78-1.78-.8-1.78-1.78-1.78Z"/>
    </g>
    <path class="cls-8" d="M75.52,44c-2.61,4.76-6.64,8.57-10.38,8.22-2.89-.26-4.78-2.86-8.38-8.22h-1.2c.08.12.16.24.24.36,3.57,5.33,5.72,8.54,9.25,8.86.19.02.37.02.56.02,4.21,0,8.42-4.2,11.04-9.24h-1.13Z"/>
    <path class="cls-8" d="M148,141.12c-5.91,4.33-9.51,4.33-11.59,3.29-4.52-2.26-4.67-10.16-4.52-13.45h0c.03-.61.78-15.09,12.16-19.47,1.25-.48,2.62-.81,3.95-1.02v-1.04c-1.44.22-2.93.6-4.3,1.13-11.98,4.61-12.77,19.72-12.8,20.36-.15,3.49.03,11.87,5.08,14.39.94.47,1.96.7,3.08.7,2.36,0,5.11-1.05,8.94-3.14"/>
    <path class="cls-8" d="M4,107.61c5.87.75,11.47,4.19,12.73,8.41h0c.79,2.65-.82,5.99-4.53,13.32-3.89,7.67-6.18,12.17-8.2,14.72v1.29c2.51-2.57,4.88-7.25,9.1-15.58,3.57-7.03,5.53-10.91,4.59-14.05v.02c-1.41-4.68-7.37-8.41-13.69-9.15"/>
    <path class="cls-8" d="M18.6,236c-1.77-3.89-2.37-8.22-.97-11.51,1.31-3.08,4.46-5.5,8.87-6.8,7.59-2.24,17.26-.86,23.5,3.37,5.77,3.91,10.66,11.19,8.74,14.94h1.29c1.01-5.14-3.86-11.97-9.47-15.77-6.47-4.38-16.48-5.82-24.34-3.5-4.7,1.39-8.08,4.01-9.51,7.37-1.43,3.39-.94,7.77.9,11.9"/>
    <path class="cls-8" d="M103.48,236c-1.6-3.41-2.17-6.42-1.41-9.81,1.73-7.7,9.52-14.39,16.02-13.77,3.33.32,6.59,2.6,9.15,6.41,3.23,4.8,4.94,11.23,4.79,17.17h.99c.15-6.14-1.62-12.78-4.95-17.73-2.74-4.07-6.25-6.5-9.89-6.85-6.97-.67-15.27,6.4-17.09,14.55-.78,3.48-.23,6.61,1.3,10.03,0,0,1.09,0,1.09,0Z"/>
    <g class="cls-9">
      <text class="cls-11" transform="translate(52.88 26.1)"><tspan x="0" y="0">RADI</tspan></text>
      <text class="cls-10" transform="translate(77.82 26.1)"><tspan x="0" y="0">O</tspan></text>
      <text class="cls-11" transform="translate(85.66 26.1)"><tspan x="0" y="0">THERAPIE</tspan></text>
    </g>
    <g>
      <path class="cls-2" d="M87,154h-20.09c-3.25,0-5.91-2.66-5.91-5.91v-10.18c0-3.25,2.66-5.91,5.91-5.91h20.18c3.25,0,5.91,2.66,5.91,5.91v10.25c0,3.21-2.67,5.84-5.94,5.84"/>
      <path class="cls-1" d="M100,142h-45.77c-5.08,0-9.23-4.15-9.23-9.23v-46.27c0-4.68,3.83-8.5,8.5-8.5h46.27c5.08,0,9.23,4.15,9.23,9.23v45.59c0,5.04-4.13,9.18-9.18,9.18"/>
      <path class="cls-1" d="M91,158h-29.29c-1.49,0-2.71-1.22-2.71-2.71v-1.58c0-1.49,1.22-2.71,2.71-2.71h29.58c1.49,0,2.71,1.22,2.71,2.71v1.74c0,1.4-1.2,2.55-2.67,2.55"/>
      <path class="cls-6" d="M100.17,108.27c0,13.21-10.71,23.91-23.91,23.91s-23.91-10.7-23.91-23.91,10.7-23.91,23.91-23.91,23.91,10.7,23.91,23.91"/>
      <path class="cls-1" d="M81,100.65c2.35,1.58,3.95,4.33,3.95,7.45,0,.19,0,.36-.02-.1l11.13,1h-.2c.23-7.33-3.57-13.8-9.35-17.35l-5.52,9.35h0v-.35Z"/>
      <path class="cls-1" d="M81,115.48c-1.2.63-2.55.98-4,.98-1.33,0-2.6-.3-3.73-.85l-5.24,9.49c2.68,1.4,5.73,2.2,8.97,2.2,3.4,0,6.6-.88,9.38-2.42l-5.38-9.41h0Z"/>
      <path class="cls-1" d="M68,108.1v-.25c0-3.04,1.57-5.71,3.95-7.24l-5.18-9.37c-5.83,3.44-9.71,9.85-9.53,17.17h0l10.76-.3h0Z"/>
      <path class="cls-2" d="M79.6,108.26c0,1.81-1.47,3.28-3.28,3.28s-3.28-1.47-3.28-3.28,1.47-3.28,3.28-3.28,3.28,1.47,3.28,3.28"/>
      <path class="cls-6" d="M76.63,184.36c-10.65,0-20.27-5.68-24.52-14.48-.48-.99-.06-2.19.93-2.67,1-.48,2.19-.06,2.67.93,3.58,7.42,11.79,12.22,20.92,12.22s17.43-4.85,20.98-12.35c.47-1,1.66-1.43,2.66-.95,1,.47,1.42,1.67.95,2.66-4.21,8.89-13.86,14.64-24.59,14.64h0Z"/>
      <path class="cls-6" d="M76.61,203c-14.59,0-27.79-7.3-33.62-18.61-.51-.98-.12-2.19.86-2.69.98-.51,2.19-.12,2.69.86,5.15,9.99,16.95,16.44,30.06,16.44s24.96-6.47,30.09-16.5c.43-.84,1.35-1.39,2.28-1.17,1.33.32,1.93,1.73,1.35,2.86-5.78,11.43-19.01,18.81-33.72,18.81h.01Z"/>
    </g>
    <circle class="cls-5" cx="133.04" cy="218.94" r="6.03"/>
    <g>
      <circle class="cls-12" cx="23" cy="22" r="8.87"/>
      <line class="cls-13" x1="22.98" y1="21.73" x2="22.98" y2="16.73"/>
      <line class="cls-13" x1="22.98" y1="21.73" x2="25.98" y2="21.73"/>
    </g>
  </g>
</svg>