<?xml version="1.0" encoding="UTF-8"?>
<svg id="Calque_2" data-name="Calque 2" xmlns="http://www.w3.org/2000/svg" viewBox="0 0 32.38 32.38">
  <defs>
    <style>
      .cls-1 {
        fill: #f33;
      }

      .cls-1, .cls-2 {
        stroke-width: 0px;
      }

      .cls-3 {
        fill: none;
        stroke: #f33;
        stroke-miterlimit: 10;
      }

      .cls-2 {
        fill: #5e003e;
      }
    </style>
  </defs>
  <g id="Calque_1-2" data-name="Calque 1">
    <rect class="cls-2" width="32.38" height="32.38" rx="6.83" ry="6.83"/>
    <g>
      <g>
        <path class="cls-3" d="M10.12,13.89c0,.78-.63,1.41-1.41,1.41s-1.41-.63-1.41-1.41.63-1.41,1.41-1.41,1.41.63,1.41,1.41Z"/>
        <path class="cls-1" d="M10.12,13.89c0,.78-.63,1.41-1.41,1.41s-1.41-.63-1.41-1.41.63-1.41,1.41-1.41,1.41.63,1.41,1.41Z"/>
      </g>
      <g>
        <path class="cls-3" d="M22.6,16.19c0,.78-.63,1.41-1.41,1.41s-1.41-.63-1.41-1.41.63-1.41,1.41-1.41,1.41.63,1.41,1.41Z"/>
        <path class="cls-1" d="M22.6,16.19c0,.78-.63,1.41-1.41,1.41s-1.41-.63-1.41-1.41.63-1.41,1.41-1.41,1.41.63,1.41,1.41Z"/>
      </g>
      <path class="cls-3" d="M24.69,10.48c-.58-.21-1.18-.24-1.77-.13.01-.03.01-.07.01-.1-.01-1.79-2.54-3.97-3.68-4.67-2.49-1.51-5.71-2.17-8.52-1.26-5.99,1.95-8.52,10.73-5.97,13.72,1.12,1.32,3.08,1.43,4.68,1.3,1.41-.12,3.95-.29,4.77-1.63.41-.68.53-1.5.69-2.28.17-.79.4-1.6.99-2.15.67-.64,1.66-.79,2.59-.82h.38c-1.06.79-2.19,1.83-2.22,2.97-.03.8.27,1.57.52,2.33.24.76.44,1.59.2,2.36-.27.88-1.06,1.51-1.85,1.99-.8.47-1.66.89-2.27,1.59-.28.33-.49.71-.63,1.11-.18.54-.11,1.01.12,1.41.88,1.55,4.17,2.21,5.51,2.25,2.9.08,6.03-.92,8.03-3.11,4.25-4.64,2.12-13.53-1.58-14.88Z"/>
    </g>
  </g>
</svg>