<?xml version="1.0" encoding="UTF-8"?>
<svg id="Calque_1" data-name="Calque 1" xmlns="http://www.w3.org/2000/svg" version="1.1" viewBox="0 0 85 85">
  <defs>
    <style>
      .cls-1 {
        fill: #00c;
      }

      .cls-1, .cls-2, .cls-3, .cls-4, .cls-5 {
        stroke-width: 0px;
      }

      .cls-2 {
        fill: #fff;
      }

      .cls-2, .cls-4 {
        isolation: isolate;
        opacity: .2;
      }

      .cls-3, .cls-4 {
        fill: #efefef;
      }

      .cls-5 {
        fill: #00c3e9;
      }
    </style>
  </defs>
  <polygon class="cls-1" points="115.4 32 120.1 20.7 127.2 11.8 135.9 10.7 147 17.9 155.8 32 155.3 50.9 149.3 68.8 135.5 76.8 120.6 72.1 115.4 55.3 115.4 32"/>
  <path class="cls-5" d="M128.1,36.4c.1-.3.2-.5.3-.8.7-2.3-.4-4.7.4-6.9s1.9-3.8,3.5-4.7c3.8-2.2,8.4,2.3,10.6,6.9,5.1,10.3,3,29.9-3.7,35.2-3.2,2.5-8,2.3-10.6-1.9-1.7-2.7-1.9-6.1-2.3-13-.3-4.1-1.1-9.1.8-12.9.3-.6.7-1.2.9-1.8Z"/>
  <path class="cls-5" d="M156.7,17.2c-6.4-8.1-19.4-16.1-30.2-12.2-4.7,1.7-8.1,5.4-10.6,9.6s-2.2,4.2-3,6.3-2.5,5.2-2.2,8.1c.1,1.5.7,3,1.1,4.4.6,2.8.3,5.9-1.1,8.5-.8,1.7-2.1,2.9-1.9,4.9s.4,4.4.6,6.6c1.2,12.2,1.9,18.4,6.6,23.1,7.4,7.4,21.1,7.8,30.2,3.3,19.1-9.4,25-44.2,10.6-62.5ZM141.8,71.9c-6.1,3.5-15.2,3.2-20.2-2.6-2.5-2.9-3.2-6.7-3.7-10.4-.7-5.2-2-11.6.2-16.6.9-2.1,2-4.1,1.9-6.3,0-2.5-1.9-5.1-1.4-7.6s1.3-3.9,2.1-5.6c1.6-3.8,4-7.8,8-9.5,7.2-3,15.9,3.2,20.2,9.6,9.7,14.4,5.7,41.6-7.1,49Z"/>
  <circle class="cls-3" cx="121.1" cy="21.7" r="4.5"/>
  <circle class="cls-3" cx="142.8" cy="70.7" r="4.5"/>
  <circle class="cls-3" cx="127.9" cy="62.4" r="1.9"/>
  <circle class="cls-3" cx="148.9" cy="25" r="1.7"/>
  <path class="cls-2" d="M158.3,14.5c-7-8.8-21-17.4-32.6-13.2-9.4,3.4-14.2,14-16.9,23s.5,4.9.9,7,.8,5.1.2,7.6c-.4,1.5-1.1,2.9-1.7,4.3-2.2,6.3-.9,13.4,0,19.9.6,4.4,1.4,8.9,3.8,12.7s1.4,1.9,2.3,2.8c8,8,22.8,8.4,32.6,3.6,20.7-10.2,27.1-47.8,11.5-67.6ZM142.2,73.8c-6.6,3.8-16.5,3.4-21.8-2.8-3.4-4-3.9-9.2-4.8-19.6-.2-1.9-.6-4-.5-6s1-3.6,1.9-5.1c.4-.6.8-1.2,1.1-1.9.5-1.2.2-2.6,0-3.8-.3-1.6-.8-3.3-1.2-4.9s0-2,.4-3.2c.6-2.1,1.3-4.1,2.2-6.1,1.7-4.1,4.3-8.3,8.6-10.1,7.8-3.3,17.2,3.5,21.8,10.4,10.5,15.5,6.2,45-7.7,53.1Z"/>
  <polygon class="cls-1" points="303.8 32 308.5 20.7 315.6 11.8 324.3 10.7 335.4 17.9 344.2 32 343.7 50.9 337.7 68.8 323.9 76.8 309 72.1 303.8 55.3 303.8 32"/>
  <path class="cls-5" d="M315.3,35.8c.8-3.7,2.1-10,5.5-12,3.8-2.2,8.4,2.3,10.6,6.9,1.8,3.7,2.5,7.8,2.8,11.9s.4,4.4-.1,6.3-2,3.4-2.8,5.2c-.8,1.9-.9,4-1.2,6-.5,3.3-1.9,6.5-5.4,7.3s-5.9-.8-7.5-3.3c-1.7-2.7-1.9-6.1-2.3-13-.3-4.9-.6-9.6.6-15.3Z"/>
  <path class="cls-5" d="M345,17.2c-6.4-8.1-19.4-16.1-30.2-12.2-9.5,3.4-13.3,14.6-15.5,21.2-3.4,10-2.5,18.3-1.6,27.1,1.2,12.2,1.9,18.4,6.6,23.1,7.4,7.4,21.1,7.8,30.2,3.3,2-1,3.8-2.2,5.5-3.7s1.5-1.2,1.7-2.1-.1-2.2-.3-3.3c-.5-3.3-.6-6.8.8-9.8,1.1-2.5,3.2-4.5,5-6.5,1.6-1.7,3.2-3.6,4.3-5.7s1.1-2.5,1.4-3.9c.9-4.7-.2-10.2-1.4-14.7s-1.5-4.6-2.6-6.8-1.1-2.1-1.8-3.1-.7-1-1-1.5-.9-1-.9-1.3ZM330.2,71.9c-6.1,3.5-15.2,3.2-20.2-2.6-3.2-3.7-3.6-8.5-4.4-18.1-.6-6.9-1.2-13.4,1.1-21.3,1.5-5.2,4-14,10.4-16.6,7.2-3,15.9,3.2,20.2,9.6,1.9,2.8,3.2,5.9,4,9.2s1,7.3,0,10.5c-1,3.4-3.6,6.2-4.9,9.4-1.4,3.3-1.5,7-1.4,10.5,0,1.8,0,3.7-.7,5.4s-2.5,3-4.2,4Z"/>
  <circle class="cls-3" cx="309.4" cy="21.7" r="4.5"/>
  <circle class="cls-3" cx="331.1" cy="70.7" r="4.5"/>
  <circle class="cls-3" cx="316.3" cy="62.4" r="1.9"/>
  <circle class="cls-3" cx="337.2" cy="25" r="1.7"/>
  <path class="cls-2" d="M346.6,14.5c-7-8.8-21-17.4-32.6-13.2-10.3,3.7-14.4,15.8-16.8,22.9-3.7,10.8-2.8,19.8-1.8,29.3,1.4,13.2,2,19.9,7.1,25,8,8,22.8,8.4,32.6,3.6,3.9-1.9,8.1-4.7,8.6-9.3.5-4.4-.2-9.1,1.7-13.2,1.4-3.1,4.1-5.4,6.1-8.3,5.8-8.3,3.7-19.6,0-28.4-1.3-3-2.9-5.9-5-8.4ZM330.4,73.6c-1.2,1.3-3.4,1.8-5.1,2.2s-4,.6-6,.4c-4-.4-7.9-2.1-10.6-5.2-3.4-4-3.9-9.2-4.8-19.6-.6-7.4-1.3-14.5,1.2-23,1.6-5.6,4.4-15.1,11.3-18,7.8-3.3,17.2,3.5,21.8,10.4.2.3.4.5.5.8,2.6,4.2,4.1,9.1,4.8,14,.7,5.2.9,11.5-1.3,16.4-.9,2-2.3,3.9-3.4,5.8s-1.1,1.9-1.5,3-.3,2-.6,3c-1.2,3.9-3.7,6.9-6.4,9.8s0,0,0,0Z"/>
  <polygon class="cls-1" points="398.4 30.5 403.1 19.2 410.2 10.2 418.9 9.2 430 16.4 438.8 30.5 438.3 49.4 432.3 67.3 418.5 75.3 403.6 70.6 398.4 53.8 398.4 30.5"/>
  <path class="cls-5" d="M409.9,34.3c.5-2.5,1.1-4.9,2-7.3s2.4-5.4,4.9-4.7.4.2.6.3c.6.3,1.1.7,1.7,1,.5.3,1.1.5,1.8.7.5,0,.9.1,1.4.3.9.3,1.5,1.1,2,1.9s1.2,1.9,1.7,2.8c5.1,10.3,3,29.9-3.7,35.2-3.2,2.5-8,2.3-10.6-1.9-1.7-2.7-1.9-6.1-2.3-13-.3-4.9-.6-9.6.6-15.3Z"/>
  <path class="cls-5" d="M439.6,15.7c-.7-.9-1.4-1.7-2.5-2.2s-2-.7-3.1-.9c-1.7-.3-3.4-.5-4.9-1.3-1.8-1-3.1-2.6-4.2-4.4-.4-.8-.9-1.5-1.5-2.2-1.6-1.6-4.3-2.1-6.5-2.3s-5.1,0-7.5.9c-9.5,3.4-13.3,14.6-15.5,21.2-3.4,10-2.5,18.3-1.6,27.1,1.2,12.2,1.9,18.4,6.6,23.1,7.4,7.4,21.1,7.8,30.2,3.3,19.1-9.4,25-44.2,10.6-62.5ZM424.8,70.4c-6.1,3.5-15.2,3.2-20.2-2.6-3.2-3.7-3.6-8.5-4.4-18.1-.6-6.9-1.2-13.4,1.1-21.3,1.5-5.2,4-14,10.4-16.6,2.9-1.2,6.2-1.1,8.6,1.1s1.7,2,2.8,2.8c1.5,1.2,3.3,1.8,5,2.4s1.6.4,2.1,1,1.2,1.5,1.7,2.3c9.7,14.4,5.7,41.6-7.1,49Z"/>
  <circle class="cls-3" cx="404" cy="20.1" r="4.5"/>
  <circle class="cls-3" cx="425.7" cy="69.2" r="4.5"/>
  <circle class="cls-3" cx="410.9" cy="60.9" r="1.9"/>
  <circle class="cls-3" cx="431.8" cy="23.4" r="1.7"/>
  <path class="cls-4" d="M441.2,13c-.5-.7-1.1-1.4-1.9-1.8-1.5-.8-3.3-.5-5-.6-1.1,0-2.2-.1-3.3-.4-.7-.2-1.4-.4-1.9-.8-.8-.6-1.3-1.6-1.8-2.5-.6-1.2-1.3-2.4-1.9-3.6-.4-.7-.8-1.5-1.4-2.1-1.8-1.9-4.7-2.3-7.2-2.5s-5.6,0-8.2,1c-10.3,3.7-14.4,15.8-16.8,22.9-3.7,10.8-2.8,19.8-1.8,29.3,1.4,13.2,2,19.9,7.1,25,8,8,22.8,8.4,32.6,3.6,2.4-1.2,4.7-2.8,6.6-4.6,3.3-3,5.9-6.7,7.9-10.7s3.6-8.8,4.6-13.4c.9-4.8,1.3-9.7,1-14.6s-1.2-9.5-2.9-14-1.8-4.3-3-6.3-1.2-2-1.9-2.9-.5-.7-.8-1.1ZM425.2,72.3c-6.6,3.8-16.5,3.4-21.8-2.8-3.4-4-3.9-9.2-4.8-19.6-.6-7.4-1.3-14.5,1.2-23,1.6-5.6,4.4-15.1,11.3-18,1.7-.7,3.4-1,5.2-.8s3.3.7,4.7,1.9c1,.9,1.6,2.1,2.6,2.9,1.4,1.2,3.3,1.6,5,2.3s1.7.7,2.3,1.4,1.4,1.8,2,2.7c10.5,15.5,6.2,45-7.7,53.1Z"/>
  <polygon class="cls-1" points="589.3 30.5 594 19.2 601.1 10.2 609.8 9.2 620.9 16.4 629.7 30.5 629.2 49.4 623.2 67.3 609.4 75.3 594.5 70.6 589.3 53.8 589.3 30.5"/>
  <path class="cls-5" d="M600.8,34.3c.8-3.7,2.1-10,5.5-12,3.8-2.2,8.4,2.3,10.6,6.9,5.1,10.3,3,29.9-3.7,35.2-.6.5-1.8,1.5-2.5.9s-1.1-1.7-1.6-2.5c-.6-1-1.5-2.1-2.6-2.4-1.1-.3-2.3,0-3.4-.2-2-.5-2.2-2.4-2.4-4.2s-.3-4.3-.5-6.4c-.3-4.9-.6-9.6.6-15.3Z"/>
  <path class="cls-5" d="M630.5,15.7c-6.4-8.1-19.4-16.1-30.2-12.2-9.5,3.4-13.3,14.6-15.5,21.2-3.4,10-2.5,18.3-1.6,27.1.3,3.3.6,6.7,1.1,10s.4,3,.9,4.4,1.4,2.7,2.2,4c.5.7,1,1.4,1.7,2,.6.5,1.3.8,2,1,.9.3,1.9.7,2.9.8s2,.1,3,.3c3.9.6,7.7,2.3,11,4.5.8.5,1.5,1.1,2.4,1.4,1.6.7,3.2.2,4.7-.2s3.3-1,4.8-1.8c19.1-9.4,25-44.2,10.6-62.5ZM615.7,70.4c-.2,0-.7.4-.9.5-.3.2-.7.3-1,.5-.7.3-1.4.5-2.2.7s-1.6.5-2.3.4-1.1-.7-1.5-1.1c-.3-.4-.5-.9-.8-1.4-.5-1-1.1-1.9-1.9-2.6-.7-.7-1.4-1.2-2.3-1.6-.8-.3-1.6-.4-2.4-.5-1.5-.1-3-.1-4.4-.6s-2.5-1.3-3.1-2.6-.6-2.3-.8-3.4c-.5-3-.7-6.1-1-9.2-.6-6.9-1.2-13.4,1.1-21.3,1.5-5.2,4-14,10.4-16.6,7.2-3,15.9,3.2,20.2,9.6,9.7,14.4,5.7,41.6-7.1,49Z"/>
  <circle class="cls-3" cx="594.9" cy="20.1" r="4.5"/>
  <circle class="cls-3" cx="616.6" cy="69.2" r="4.5"/>
  <circle class="cls-3" cx="601.8" cy="60.9" r="1.9"/>
  <circle class="cls-3" cx="622.7" cy="23.4" r="1.7"/>
  <path class="cls-4" d="M632.1,13c-7-8.8-21-17.4-32.6-13.2-10.3,3.7-14.4,15.8-16.8,22.9-3.7,10.8-2.8,19.8-1.8,29.3.4,3.8.7,7.6,1.3,11.3s.1,1.5.3,2.2.5,1.5.8,2.2c.7,1.4,1.6,2.8,2.7,3.9s.4.4.5.5c1.9,1.8,4.9,3.6,7.6,3.8s6,.1,8.7,1.6c1.7.9,3.2,2.3,4.9,3.2,2,1,4.2,1.2,6.4,1.2s2.3,0,3.4-.2,2.1-.8,3.1-1.3c20.7-10.2,27.1-47.8,11.5-67.6ZM616.1,72.3c-.3,0-.8.4-1.1.6-.4.2-.8.4-1.2.5-.8.3-1.7.6-2.6.8s-1.5.5-2.2.5-1.7-.5-2.3-1c-.7-.6-1.3-1.5-1.9-2.2-1.9-2.2-4.7-3.4-7.6-3.6-.9,0-1.9,0-2.8-.3s-2-.6-2.3-1.5c-2-5-2.2-10.8-2.6-16.2-.6-7.4-1.3-14.5,1.2-23,1.6-5.6,4.4-15.1,11.3-18,7.8-3.3,17.2,3.5,21.8,10.4,10.5,15.5,6.2,45-7.7,53.1Z"/>
  <polygon class="cls-1" points="495.2 30.5 500 19.2 507 10.2 515.7 9.2 526.8 16.4 535.6 30.5 535.2 49.4 529.2 67.3 515.3 75.3 500.4 70.6 495.2 53.8 495.2 30.5"/>
  <path class="cls-5" d="M506.7,34.3c.8-3.7,2.1-10,5.5-12,3.8-2.2,8.4,2.3,10.6,6.9,5.1,10.3,3,29.9-3.7,35.2-3.2,2.5-8,2.3-10.6-1.9-1.7-2.7-1.9-6.1-2.3-13-.3-4.9-.6-9.6.6-15.3Z"/>
  <path class="cls-5" d="M536.5,15.7c-6.4-8.1-19.4-16.1-30.2-12.2-9.5,3.4-13.3,14.6-15.5,21.2-3.4,10-2.5,18.3-1.6,27.1,1.2,12.2,1.9,18.4,6.6,23.1,7.4,7.4,21.1,7.8,30.2,3.3,19.1-9.4,25-44.2,10.6-62.4h0ZM521.7,70.4c-6.1,3.5-15.2,3.2-20.2-2.6-3.2-3.7-3.6-8.5-4.4-18.1-.6-6.9-1.2-13.4,1.1-21.3,1.5-5.2,4-14,10.4-16.6,7.2-3,15.9,3.2,20.2,9.6,9.7,14.4,5.7,41.6-7.1,49h0Z"/>
  <circle class="cls-3" cx="500.9" cy="20.1" r="4.5"/>
  <circle class="cls-3" cx="522.6" cy="69.2" r="4.5"/>
  <circle class="cls-3" cx="507.7" cy="60.9" r="1.9"/>
  <circle class="cls-3" cx="528.7" cy="23.4" r="1.7"/>
  <path class="cls-4" d="M538.1,13c-7-8.8-21-17.4-32.6-13.2-10.3,3.7-14.4,15.8-16.8,22.9-3.7,10.8-2.8,19.8-1.8,29.3,1.4,13.2,2,19.9,7.1,25,8,8,22.8,8.4,32.6,3.6,20.7-10.2,27.1-47.8,11.5-67.6h0ZM522,72.3c-6.6,3.8-16.5,3.4-21.8-2.8-3.4-4-3.9-9.2-4.8-19.6-.6-7.4-1.3-14.5,1.2-23,1.6-5.6,4.4-15.1,11.3-18,7.8-3.3,17.2,3.5,21.8,10.4,10.5,15.5,6.2,45-7.7,53.1h0Z"/>
  <polygon class="cls-1" points="684.4 30.5 689.2 19.2 696.2 10.2 704.9 9.2 716 16.4 724.8 30.5 724.4 49.4 718.4 67.3 704.5 75.3 689.6 70.6 684.4 53.8 684.4 30.5"/>
  <path class="cls-5" d="M695.9,34.3c.8-3.7,2.1-10,5.5-12,3.8-2.2,8.4,2.3,10.6,6.9,5.1,10.3,3,29.9-3.7,35.2-3.2,2.5-8,2.3-10.6-1.9-1.7-2.7-1.9-6.1-2.3-13-.3-4.9-.6-9.6.6-15.3Z"/>
  <path class="cls-5" d="M725.7,15.7c-6.4-8.1-19.4-16.1-30.2-12.2-9.5,3.4-13.3,14.6-15.5,21.2-3.4,10-2.5,18.3-1.6,27.1,1.2,12.2,1.9,18.4,6.6,23.1,7.4,7.4,21.1,7.8,30.2,3.3,19.1-9.4,25-44.2,10.6-62.4h0ZM710.9,70.4c-6.1,3.5-15.2,3.2-20.2-2.6-3.2-3.7-3.6-8.5-4.4-18.1-.6-6.9-1.2-13.4,1.1-21.3,1.5-5.2,4-14,10.4-16.6,7.2-3,15.9,3.2,20.2,9.6,9.7,14.4,5.7,41.6-7.1,49h0Z"/>
  <circle class="cls-3" cx="690.1" cy="20.1" r="4.5"/>
  <circle class="cls-3" cx="711.8" cy="69.2" r="4.5"/>
  <circle class="cls-3" cx="696.9" cy="60.9" r="1.9"/>
  <circle class="cls-3" cx="717.9" cy="23.4" r="1.7"/>
  <path class="cls-4" d="M727.3,13c-7-8.8-21-17.4-32.6-13.2-10.3,3.7-14.4,15.8-16.8,22.9-3.7,10.8-2.8,19.8-1.8,29.3,1.4,13.2,2,19.9,7.1,25,8,8,22.8,8.4,32.6,3.6,20.7-10.2,27.1-47.8,11.5-67.6h0ZM711.2,72.3c-6.6,3.8-16.5,3.4-21.8-2.8-3.4-4-3.9-9.2-4.8-19.6-.6-7.4-1.3-14.5,1.2-23,1.6-5.6,4.4-15.1,11.3-18,7.8-3.3,17.2,3.5,21.8,10.4,10.5,15.5,6.2,45-7.7,53.1h0Z"/>
  <polygon class="cls-1" points="209.2 32 213.9 20.7 221 11.8 229.7 10.7 240.8 17.9 249.6 32 249.1 50.9 243.1 68.8 229.3 76.8 214.4 72.1 209.2 55.3 209.2 32"/>
  <path class="cls-5" d="M220.6,35.8c.8-3.7,2.1-10,5.5-12,3.8-2.2,8.4,2.3,10.6,6.9,5.1,10.3,3,29.9-3.7,35.2-3.2,2.5-8,2.3-10.6-1.9-1.7-2.7-1.9-6.1-2.3-13-.3-4.9-.6-9.6.6-15.3Z"/>
  <path class="cls-5" d="M250.4,17.2c-6.4-8.1-19.4-16.1-30.2-12.2-9.5,3.4-13.3,14.6-15.5,21.2-3.4,10-2.5,18.3-1.6,27.1,1.2,12.2,1.9,18.4,6.6,23.1,7.4,7.4,21.1,7.8,30.2,3.3,19.1-9.4,25-44.2,10.6-62.4h0ZM235.6,71.9c-6.1,3.5-15.2,3.2-20.2-2.6-3.2-3.7-3.6-8.5-4.4-18.1-.6-6.9-1.2-13.4,1.1-21.3,1.5-5.2,4-14,10.4-16.6,7.2-3,15.9,3.2,20.2,9.6,9.7,14.4,5.7,41.6-7.1,49h0Z"/>
  <circle class="cls-3" cx="214.8" cy="21.7" r="4.5"/>
  <circle class="cls-3" cx="236.5" cy="70.7" r="4.5"/>
  <circle class="cls-3" cx="221.7" cy="62.4" r="1.9"/>
  <circle class="cls-3" cx="242.6" cy="25" r="1.7"/>
  <path class="cls-4" d="M252,14.5c-7-8.8-21-17.4-32.6-13.2-10.3,3.7-14.4,15.8-16.8,22.9-3.7,10.8-2.8,19.8-1.8,29.3,1.4,13.2,2,19.9,7.1,25,8,8,22.8,8.4,32.6,3.6,20.7-10.2,27.1-47.8,11.5-67.6h0ZM236,73.8c-6.6,3.8-16.5,3.4-21.8-2.8-3.4-4-3.9-9.2-4.8-19.6-.6-7.4-1.3-14.5,1.2-23,1.6-5.6,4.4-15.1,11.3-18,7.8-3.3,17.2,3.5,21.8,10.4,10.5,15.5,6.2,45-7.7,53.1h0Z"/>
  <polygon class="cls-1" points="21.9 32 26.7 20.7 33.7 11.8 42.4 10.7 53.5 17.9 62.3 32 61.9 50.9 55.9 68.8 42 76.8 27.1 72.1 21.9 55.3 21.9 32"/>
  <path class="cls-5" d="M33.4,35.8c.8-3.7,2.1-10,5.5-12,3.8-2.2,8.4,2.3,10.6,6.9,5.1,10.3,3,29.9-3.7,35.2-3.2,2.5-8,2.3-10.6-1.9-1.7-2.7-1.9-6.1-2.3-13-.3-4.9-.6-9.6.6-15.3Z"/>
  <path class="cls-5" d="M63.2,17.2c-6.4-8.1-19.4-16.1-30.2-12.2-9.5,3.4-13.3,14.6-15.5,21.2-3.4,10-2.5,18.3-1.6,27.1,1.2,12.2,1.9,18.4,6.6,23.1,7.4,7.4,21.1,7.8,30.2,3.3,19.1-9.4,25-44.2,10.6-62.4h0ZM48.3,71.9c-6.1,3.5-15.2,3.2-20.2-2.6-3.2-3.7-3.6-8.5-4.4-18.1-.6-6.9-1.2-13.4,1.1-21.3,1.5-5.2,4-14,10.4-16.6,7.2-3,15.9,3.2,20.2,9.6,9.7,14.4,5.7,41.6-7.1,49h0Z"/>
  <circle class="cls-3" cx="27.6" cy="21.7" r="4.5"/>
  <circle class="cls-3" cx="49.3" cy="70.7" r="4.5"/>
  <circle class="cls-3" cx="34.4" cy="62.4" r="1.9"/>
  <circle class="cls-3" cx="55.4" cy="25" r="1.7"/>
  <path class="cls-4" d="M64.8,14.5C57.8,5.7,43.8-2.9,32.2,1.3c-10.3,3.7-14.4,15.8-16.8,22.9-3.7,10.8-2.8,19.8-1.8,29.3,1.4,13.2,2,19.9,7.1,25,8,8,22.8,8.4,32.6,3.6,20.7-10.2,27.1-47.8,11.5-67.6h0ZM48.7,73.8c-6.6,3.8-16.5,3.4-21.8-2.8-3.4-4-3.9-9.2-4.8-19.6-.6-7.4-1.3-14.5,1.2-23,1.6-5.6,4.4-15.1,11.3-18,7.8-3.3,17.2,3.5,21.8,10.4,10.5,15.5,6.2,45-7.7,53.1h0Z"/>
</svg>