<?xml version="1.0" encoding="UTF-8"?>
<svg id="Calque_1" data-name="Calque 1" xmlns="http://www.w3.org/2000/svg" viewBox="0 0 85.04 85.04">
  <defs>
    <style>
      .cls-1 {
        fill: #00c;
      }

      .cls-1, .cls-2, .cls-3, .cls-4 {
        stroke-width: 0px;
      }

      .cls-2 {
        opacity: .15;
      }

      .cls-2, .cls-3 {
        fill: #efefef;
      }

      .cls-4 {
        fill: #00c3e9;
      }
    </style>
  </defs>
  <polygon class="cls-1" points="21.94 32.02 26.66 20.71 33.72 11.75 42.44 10.73 53.52 17.88 62.34 32.02 61.86 50.87 55.87 68.77 42.02 76.82 27.13 72.07 21.94 55.32 21.94 32.02"/>
  <path class="cls-4" d="M33.41,35.82c.79-3.73,2.13-10.03,5.48-11.95,3.8-2.18,8.36,2.31,10.63,6.9,5.08,10.3,2.99,29.87-3.74,35.19-3.2,2.53-8.03,2.29-10.63-1.86-1.67-2.66-1.89-6.11-2.32-13.01-.31-4.93-.61-9.64.58-15.27Z"/>
  <path class="cls-4" d="M63.18,17.17c-6.44-8.15-19.37-16.12-30.16-12.25-9.52,3.41-13.31,14.59-15.55,21.21-3.39,9.99-2.54,18.34-1.65,27.1,1.24,12.25,1.87,18.37,6.6,23.09,7.38,7.36,21.08,7.78,30.16,3.3,19.1-9.43,25.03-44.17,10.6-62.44ZM48.35,71.91c-6.08,3.52-15.25,3.19-20.19-2.59-3.17-3.71-3.58-8.52-4.42-18.14-.6-6.87-1.16-13.44,1.1-21.28,1.5-5.19,4.04-13.97,10.41-16.65,7.22-3.04,15.88,3.22,20.19,9.62,9.66,14.35,5.69,41.63-7.1,49.04Z"/>
  <circle class="cls-3" cx="27.6" cy="21.65" r="4.48"/>
  <circle class="cls-3" cx="49.28" cy="70.66" r="4.48"/>
  <circle class="cls-3" cx="34.43" cy="62.41" r="1.88"/>
  <circle class="cls-3" cx="55.4" cy="24.95" r="1.65"/>
  <path class="cls-2" d="M64.78,14.53C57.82,5.72,43.82-2.91,32.15,1.28c-10.3,3.69-14.4,15.79-16.82,22.94-3.67,10.81-2.75,19.85-1.78,29.32,1.35,13.25,2.02,19.88,7.14,24.98,7.98,7.96,22.81,8.42,32.63,3.57,20.67-10.2,27.08-47.79,11.47-67.55ZM48.74,73.76c-6.58,3.81-16.5,3.45-21.84-2.8-3.43-4.01-3.88-9.21-4.78-19.62-.64-7.44-1.26-14.54,1.19-23.03,1.62-5.62,4.37-15.12,11.26-18.02,7.81-3.29,17.18,3.49,21.84,10.41,10.45,15.52,6.16,45.04-7.68,53.06Z"/>
</svg>