<?xml version="1.0" encoding="UTF-8"?>
<svg id="Calque_1" data-name="Calque 1" xmlns="http://www.w3.org/2000/svg" xmlns:xlink="http://www.w3.org/1999/xlink" viewBox="0 0 85.04 85.04">
  <defs>
    <style>
      .cls-1 {
        fill: #7f0055;
      }

      .cls-1, .cls-2, .cls-3, .cls-4, .cls-5, .cls-6 {
        stroke-width: 0px;
      }

      .cls-2 {
        fill: url(#Dégradé_sans_nom_9);
      }

      .cls-3 {
        opacity: .15;
      }

      .cls-3, .cls-5 {
        fill: #ff9292;
      }

      .cls-4 {
        fill: #ff3232;
      }

      .cls-6 {
        fill: #5e003e;
      }
    </style>
    <linearGradient id="Dégradé_sans_nom_9" data-name="Dégradé sans nom 9" x1="8.46" y1="42.71" x2="76.48" y2="42.71" gradientUnits="userSpaceOnUse">
      <stop offset="0" stop-color="#ff3232"/>
      <stop offset="1" stop-color="#ff3232"/>
    </linearGradient>
  </defs>
  <path class="cls-6" d="M20.48,25.76c5.66-8.89,20.68-13.32,31.46-10.35,17.04,4.7,22.35,27.55,15,42.61-.35.72-8.17,16.23-20.49,16.44-14.23.24-23.91-20.12-26.71-31.04-1.55-6.04-2.94-11.89.73-17.65Z"/>
  <path class="cls-1" d="M35.65,23.02c1.69,4.45,1.54,8.41-.33,8.83s-4.75-2.83-6.44-7.28-1.54-8.41.33-8.83,4.75,2.83,6.44,7.28Z"/>
  <path class="cls-1" d="M56.94,56.05c3.58,3.36,5.26,6.88,3.74,7.86-1.52.98-5.65-.95-9.24-4.31-3.58-3.36-5.26-6.88-3.74-7.86s5.65.95,9.24,4.31Z"/>
  <path class="cls-4" d="M31.95,33.12c2.77-4.35,10.12-6.52,15.39-5.06,8.33,2.3,10.93,13.48,7.34,20.85-.17.35-4,7.94-10.02,8.04-6.96.12-11.7-9.85-13.07-15.19-.76-2.96-1.44-5.82.36-8.64Z"/>
  <path class="cls-2" d="M52.66,5.27c-14.11-3.83-33.74,1.88-41.15,13.33-4.8,7.42-2.98,14.96-.96,22.74,3.66,14.07,16.32,40.29,34.93,39.99,16.11-.26,26.34-20.25,26.79-21.17,9.61-19.4,2.66-48.84-19.62-54.89ZM62.6,56.61c-.29.68-6.87,15.44-17.23,15.63-11.97.22-20.11-19.14-22.47-29.53-1.3-5.75-2.47-11.31.62-16.79,4.76-8.45,17.39-12.67,26.47-9.84,14.33,4.47,18.8,26.21,12.62,40.53Z"/>
  <ellipse class="cls-5" cx="22.83" cy="27.78" rx="5.91" ry="5.9"/>
  <ellipse class="cls-5" cx="39.21" cy="14.57" rx="3.7" ry="3.7"/>
  <ellipse class="cls-5" cx="39.17" cy="56.9" rx="3.35" ry="3.34"/>
  <ellipse class="cls-5" cx="65.5" cy="50.55" rx="5.91" ry="5.9"/>
  <path class="cls-3" d="M53.71,1.3C38.21-2.91,16.64,3.37,8.5,15.95c-5.28,8.15-3.27,16.43-1.05,24.99,4.02,15.46,17.93,44.27,38.38,43.94,17.71-.29,28.94-22.25,29.44-23.26,10.55-21.32,2.92-53.66-21.55-60.31ZM64.63,57.72c-.32.75-7.55,16.96-18.94,17.18-13.15.25-22.1-21.03-24.69-32.45-1.43-6.32-2.72-12.43.68-18.45,5.23-9.29,19.11-13.93,29.08-10.82,15.75,4.91,20.65,28.79,13.86,44.54Z"/>
</svg>