<?xml version="1.0" encoding="UTF-8"?>
<svg id="Calque_2" data-name="Calque 2" xmlns="http://www.w3.org/2000/svg" viewBox="0 0 153 241">
  <defs>
    <style>
      .cls-1 {
        fill: #ff6c00;
      }

      .cls-1, .cls-2, .cls-3, .cls-4, .cls-5, .cls-6, .cls-7, .cls-8 {
        stroke-width: 0px;
      }

      .cls-2 {
        fill: #ffdc4b;
      }

      .cls-3 {
        fill: #fc3;
      }

      .cls-9, .cls-10, .cls-11 {
        isolation: isolate;
      }

      .cls-4, .cls-10, .cls-11 {
        fill: #006;
      }

      .cls-10 {
        letter-spacing: -.03em;
      }

      .cls-10, .cls-11 {
        font-family: VarelaRound-Regular, 'Varela Round';
        font-size: 10px;
      }

      .cls-5 {
        fill: #ff4240;
      }

      .cls-12 {
        fill: none;
        stroke: #ff4240;
        stroke-linecap: round;
        stroke-linejoin: round;
      }

      .cls-6 {
        fill: #fff;
      }

      .cls-7 {
        fill: #5e003e;
      }

      .cls-8 {
        fill: #009;
      }
    </style>
  </defs>
  <g id="Calque_1-2" data-name="Calque 1">
    <path class="cls-6" d="M11.58,1h129.85c6.39,0,11.58,5.13,11.58,11.45v216.1c0,6.32-5.18,11.45-11.58,11.45H11.58c-6.39,0-11.58-5.13-11.58-11.45V12.45C0,6.13,5.18,1,11.58,1Z"/>
    <path class="cls-3" d="M141.01,1c6.07,0,10.99,4.93,10.99,11v216.99c0,6.07-4.93,11-10.99,11H11.99c-6.07,0-10.99-4.93-10.99-11V12C1,5.94,5.93,1,11.99,1h129.01M141.01,0H12C5.4,0,0,5.4,0,12v217c0,6.6,5.4,12,12,12h129c6.6,0,12-5.4,12-12V12c0-6.6-5.4-12-11.99-12h0Z"/>
    <path class="cls-4" d="M4,12h144v215.5c0,4.69-3.81,8.5-8.5,8.5H12.5c-4.69,0-8.5-3.81-8.5-8.5V12h0Z"/>
    <g class="cls-9">
      <text class="cls-11" transform="translate(50.72 25.6)"><tspan x="0" y="0">CHIMI</tspan></text>
      <text class="cls-10" transform="translate(80.58 25.6)"><tspan x="0" y="0">O</tspan></text>
      <text class="cls-11" transform="translate(88.42 25.6)"><tspan x="0" y="0">THERAPIE</tspan></text>
    </g>
    <g>
      <rect class="cls-7" x="7" y="7" width="32" height="32" rx="6.83" ry="6.83"/>
      <circle class="cls-5" cx="17.94" cy="14.59" r="5.07"/>
      <circle class="cls-5" cx="23.01" cy="24.66" r="3.1"/>
      <circle class="cls-5" cx="29.21" cy="13.33" r="3.1"/>
      <circle class="cls-5" cx="32.32" cy="20.87" r="3.1"/>
      <circle class="cls-5" cx="14.58" cy="29.64" r="4.33"/>
      <circle class="cls-5" cx="31.09" cy="31.34" r="4.33"/>
    </g>
    <path class="cls-2" d="M71.99,146.78c.2,7.66-7.79,12.81-12.72,17.49-5.73,5.45-11.08,11.84-13.37,19.56-1.93,6.5-1.41,14.17,2.32,19.96,4.44,6.89,12.38,8.98,20.15,9.12,4.34.08,8.76-.29,12.7-2.26,3.47-1.73,6.29-4.53,8.6-7.6,5.13-6.83,7.73-15.27,9.62-23.49,3.82-16.62,5.41-33.64,7.76-50.51,2.32-16.66,5.36-33.53,12.18-49.01.84-1.91,1.74-3.8,2.69-5.66,1.09-2.15-2.14-4.05-3.24-1.89-7.45,14.62-11.34,30.62-13.93,46.74-2.63,16.33-4.06,32.83-7,49.11-1.45,8.02-3.04,16.23-6.21,23.77-2.84,6.77-7.51,14.26-15.05,16.3-3.91,1.06-8.29.96-12.28.49-3.64-.43-7.44-1.57-10.22-4.05-4.74-4.23-6.18-11.23-5.11-17.31,1.31-7.42,6.07-13.66,11.26-18.88,5.15-5.18,12.05-9.62,14.74-16.72.62-1.64.9-3.4.86-5.16-.06-2.41-3.81-2.42-3.75,0"/>
    <path class="cls-1" d="M81.92,71.83l10.12,51.17c1.43,7.25-3.33,14.36-10.58,15.79l-3.75.74.66,3.33c.33,1.67-.78,3.3-2.44,3.63l-3.69.73c-1.67.33-3.3-.76-3.63-2.43l-.66-3.34-3.81.75c-7.26,1.44-14.36-3.33-15.79-10.58l-10.12-51.17c-.94-4.77,2.18-9.43,6.94-10.37l26.37-5.21c4.77-.94,9.43,2.18,10.38,6.95"/>
    <path class="cls-6" d="M74.3,110.54l-12.6,2.49c-6.2,1.23-12.32-3.07-13.6-9.54-.29-1.44-1.21-3.75-.69-5.05.78-1.95,3.92-2.93,5.67-3.41,2.27-.62,4.66-.99,6.66-2.25,1.58-.99,2.8-2.46,4.15-3.75,2.19-2.09,4.84-3.77,7.78-4.27,2.95-.5,6.21.32,8.3,2.59,2.49,2.7,2.6,5.82,3.27,9.19,1.28,6.48-2.75,12.77-8.94,14"/>
    <path class="cls-3" d="M78.71,134.91l-13.39,2.65c-6.32,1.25-12.52-2.9-13.77-9.22l-2.53-12.82c-.72-3.65-1.44-7.31-2.17-10.96-.79-4.02-2.35-8.62-1.13-12.62.35-1.15,1-2.21,1.94-2.96,2.88-2.31,6.18-.69,8.42,1.43,2.27,2.15,3.94,4.85,6.01,7.18,2.08,2.34,4.78,4.4,7.9,4.58,2.47.14,4.99-1,6.5-2.95.88-1.13,1.43-2.51,2.38-3.58.77-.88,2.82-2.16,3.8-1.02.7.81.73,3.71.94,4.78.68,3.42,1.35,6.83,2.03,10.25l2.27,11.5c1.25,6.32-2.9,12.52-9.22,13.77"/>
    <path class="cls-6" d="M52.06,92.93c0,1.33-1.08,2.41-2.41,2.41s-2.4-1.08-2.4-2.41,1.08-2.4,2.4-2.4,2.41,1.08,2.41,2.4"/>
    <path class="cls-6" d="M48.78,99.87l2.2,10.21c.21.96,1.38,1.61,2.31,1.31,1.01-.33,1.53-1.28,1.31-2.31-.73-3.4-1.47-6.81-2.2-10.21-.21-.96-1.38-1.61-2.31-1.31-1.01.33-1.53,1.28-1.31,2.31"/>
    <path class="cls-6" d="M47.71,75.95c0,1.61-1.3,2.91-2.91,2.91s-2.91-1.3-2.91-2.91,1.31-2.91,2.91-2.91,2.91,1.3,2.91,2.91"/>
    <path class="cls-6" d="M43.78,81.62c0,.81-.65,1.46-1.46,1.46s-1.46-.65-1.46-1.46.65-1.46,1.46-1.46,1.46.65,1.46,1.46"/>
    <rect class="cls-6" x="1" y="2" width="151" height="42" rx="13.9" ry="13.9"/>
    <rect class="cls-7" x="7" y="7" width="32" height="32" rx="6.83" ry="6.83"/>
    <circle class="cls-8" cx="118.3" cy="221.99" r="4.56"/>
    <circle class="cls-8" cx="27.75" cy="226.44" r="4.56"/>
    <circle class="cls-8" cx="137.45" cy="160.4" r="4.56"/>
    <circle class="cls-8" cx="14.58" cy="56.03" r="4.56"/>
    <circle class="cls-8" cx="127.42" cy="53.83" r="4.56"/>
    <g>
      <circle class="cls-8" cx="14.58" cy="151.28" r="4.56"/>
      <path class="cls-8" d="M14.58,156.34c-2.79,0-5.06-2.27-5.06-5.06s2.27-5.06,5.06-5.06,5.06,2.27,5.06,5.06-2.27,5.06-5.06,5.06ZM14.58,147.22c-2.24,0-4.06,1.82-4.06,4.06s1.82,4.06,4.06,4.06,4.06-1.82,4.06-4.06-1.82-4.06-4.06-4.06Z"/>
    </g>
    <g>
      <circle class="cls-8" cx="23.01" cy="130.78" r="2.28"/>
      <path class="cls-8" d="M23.01,133.56c-1.53,0-2.78-1.25-2.78-2.78s1.25-2.78,2.78-2.78,2.78,1.25,2.78,2.78-1.25,2.78-2.78,2.78ZM23.01,129c-.98,0-1.78.8-1.78,1.78s.8,1.78,1.78,1.78,1.78-.8,1.78-1.78-.8-1.78-1.78-1.78Z"/>
    </g>
    <g>
      <circle class="cls-8" cx="15.92" cy="70.24" r="2.28"/>
      <path class="cls-8" d="M15.92,73.02c-1.53,0-2.78-1.25-2.78-2.78s1.25-2.78,2.78-2.78,2.78,1.25,2.78,2.78-1.25,2.78-2.78,2.78ZM15.92,68.47c-.98,0-1.78.8-1.78,1.78s.8,1.78,1.78,1.78,1.78-.8,1.78-1.78-.8-1.78-1.78-1.78Z"/>
    </g>
    <g>
      <circle class="cls-8" cx="92.88" cy="219.21" r="2.28"/>
      <path class="cls-8" d="M92.88,221.99c-1.53,0-2.78-1.25-2.78-2.78s1.25-2.78,2.78-2.78,2.78,1.25,2.78,2.78-1.25,2.78-2.78,2.78ZM92.88,217.43c-.98,0-1.78.8-1.78,1.78s.8,1.78,1.78,1.78,1.78-.8,1.78-1.78-.8-1.78-1.78-1.78Z"/>
    </g>
    <g>
      <circle class="cls-8" cx="107.65" cy="53.25" r="2.28"/>
      <path class="cls-8" d="M107.65,56.03c-1.53,0-2.78-1.25-2.78-2.78s1.25-2.78,2.78-2.78,2.78,1.25,2.78,2.78-1.25,2.78-2.78,2.78ZM107.65,51.47c-.98,0-1.78.8-1.78,1.78s.8,1.78,1.78,1.78,1.78-.8,1.78-1.78-.8-1.78-1.78-1.78Z"/>
    </g>
    <path class="cls-8" d="M75.56,44c-2.61,4.76-6.64,8.57-10.38,8.22-2.89-.26-4.78-2.86-8.38-8.22h-1.2c.08.12.16.24.24.36,3.57,5.33,5.72,8.54,9.25,8.86.19.02.37.02.56.02,4.21,0,8.42-4.2,11.04-9.24h-1.13Z"/>
    <path class="cls-8" d="M148,141.42c-5.89,4.3-9.47,4.29-11.55,3.26-4.52-2.26-4.67-10.16-4.52-13.45h0c.03-.61.78-15.09,12.16-19.47,1.25-.48,2.62-.81,3.91-1.02v-1.04c-1.4.22-2.89.6-4.26,1.13-11.98,4.61-12.77,19.72-12.8,20.36-.15,3.49.03,11.87,5.08,14.39.94.47,1.96.7,3.08.7,2.36,0,5.11-1.05,8.9-3.13"/>
    <path class="cls-8" d="M4,107.88c5.91.75,11.51,4.19,12.77,8.41h0c.79,2.65-.82,5.99-4.53,13.32-3.89,7.67-6.18,12.17-8.24,14.72v1.29c2.55-2.57,4.92-7.25,9.14-15.58,3.57-7.03,5.53-10.91,4.59-14.05v.02c-1.41-4.69-7.37-8.41-13.73-9.15"/>
    <path class="cls-8" d="M18.95,236c-1.99-4.07-2.76-8.74-1.27-12.24,1.31-3.08,4.46-5.5,8.87-6.8,7.59-2.24,17.26-.86,23.5,3.37,5.77,3.91,10.66,11.19,8.74,15.67h1.06c0,.11.03.02.05-.02,1.64-5.2-3.42-12.5-9.29-16.48-6.47-4.38-16.48-5.82-24.34-3.5-4.7,1.39-8.08,4.01-9.51,7.37-1.45,3.42-.93,7.87.96,12.63"/>
    <path class="cls-8" d="M103.52,236c-1.6-3.41-2.17-6.42-1.41-9.81,1.73-7.7,9.52-14.39,16.02-13.77,3.33.32,6.59,2.6,9.15,6.41,3.23,4.8,4.94,11.23,4.79,17.17h.99c.15-6.14-1.62-12.78-4.95-17.73-2.74-4.07-6.25-6.5-9.89-6.85-6.97-.67-15.27,6.4-17.09,14.55-.78,3.48-.23,6.61,1.3,10.03,0,0,1.09,0,1.09,0Z"/>
    <g class="cls-9">
      <text class="cls-11" transform="translate(50.46 26.37)"><tspan x="0" y="0">CHIMI</tspan></text>
      <text class="cls-10" transform="translate(80.32 26.37)"><tspan x="0" y="0">O</tspan></text>
      <text class="cls-11" transform="translate(88.16 26.37)"><tspan x="0" y="0">THERAPIE</tspan></text>
    </g>
    <g>
      <line class="cls-12" x1="14.79" y1="14.55" x2="30.88" y2="30.64"/>
      <line class="cls-12" x1="30.88" y1="14.55" x2="14.79" y2="30.64"/>
    </g>
    <circle class="cls-5" cx="133.08" cy="219.21" r="6.03"/>
    <circle class="cls-5" cx="124.86" cy="211.4" r="6.03"/>
    <circle class="cls-5" cx="130.06" cy="205.37" r="3.02"/>
    <circle class="cls-5" cx="130.9" cy="226.44" r="3.02"/>
    <circle class="cls-5" cx="140.46" cy="216.19" r="3.02"/>
  </g>
</svg>