<?xml version="1.0" encoding="UTF-8"?>
<svg id="Calque_1" data-name="Calque 1" xmlns="http://www.w3.org/2000/svg" viewBox="0 0 153.07 240.94">
  <defs>
    <style>
      .cls-1 {
        fill: #009;
      }

      .cls-1, .cls-2, .cls-3, .cls-4, .cls-5, .cls-6, .cls-7, .cls-8 {
        stroke-width: 0px;
      }

      .cls-9 {
        fill: none;
        stroke: #ff4240;
        stroke-linecap: round;
        stroke-linejoin: round;
      }

      .cls-2 {
        fill: #ff4240;
      }

      .cls-3 {
        fill: #ff6c00;
      }

      .cls-4 {
        fill: #ffdc4b;
      }

      .cls-10 {
        letter-spacing: -.03em;
      }

      .cls-5 {
        fill: #fc3;
      }

      .cls-6, .cls-11 {
        fill: #006;
      }

      .cls-11 {
        font-family: VarelaRound-Regular, 'Varela Round';
        font-size: 10px;
      }

      .cls-7 {
        fill: #fff;
      }

      .cls-8 {
        fill: #5e003e;
      }
    </style>
  </defs>
  <g>
    <rect class="cls-7" x=".5" y=".5" width="152.07" height="239.94" rx="11.5" ry="11.5"/>
    <path class="cls-5" d="M141.07,1c6.07,0,11,4.93,11,11v216.94c0,6.07-4.93,11-11,11H12c-6.07,0-11-4.93-11-11V12C1,5.94,5.93,1,12,1h129.07M141.07,0H12C5.4,0,0,5.4,0,12v216.94C0,235.54,5.4,240.94,12,240.94h129.07c6.6,0,12-5.4,12-12V12C153.07,5.4,147.67,0,141.07,0h0Z"/>
  </g>
  <path class="cls-6" d="M4.09,11.45h144.01v215.72c0,4.69-3.81,8.5-8.5,8.5H12.59c-4.69,0-8.5-3.81-8.5-8.5V11.45h0Z"/>
  <text class="cls-11" transform="translate(50.68 25.16)"><tspan x="0" y="0">CHIMI</tspan><tspan class="cls-10" x="29.86" y="0">O</tspan><tspan x="37.7" y="0">THERAPIE</tspan></text>
  <g>
    <rect class="cls-8" x="6.61" y="5.97" width="32.38" height="32.38" rx="6.83" ry="6.83"/>
    <circle class="cls-2" cx="17.9" cy="14.15" r="5.07"/>
    <circle class="cls-2" cx="22.97" cy="24.22" r="3.1"/>
    <circle class="cls-2" cx="29.17" cy="12.89" r="3.1"/>
    <circle class="cls-2" cx="32.28" cy="20.43" r="3.1"/>
    <circle class="cls-2" cx="14.54" cy="29.2" r="4.33"/>
    <circle class="cls-2" cx="31.05" cy="30.9" r="4.33"/>
  </g>
  <path class="cls-4" d="M71.95,146.34c.2,7.66-7.79,12.81-12.72,17.49-5.73,5.45-11.08,11.84-13.37,19.56-1.93,6.5-1.41,14.17,2.32,19.96,4.44,6.89,12.38,8.98,20.15,9.12,4.34.08,8.76-.29,12.7-2.26,3.47-1.73,6.29-4.53,8.6-7.6,5.13-6.83,7.73-15.27,9.62-23.49,3.82-16.62,5.41-33.64,7.76-50.51,2.32-16.66,5.36-33.53,12.18-49.01.84-1.91,1.74-3.8,2.69-5.66,1.09-2.15-2.14-4.05-3.24-1.89-7.45,14.62-11.34,30.62-13.93,46.74-2.63,16.33-4.06,32.83-7,49.11-1.45,8.02-3.04,16.23-6.21,23.77-2.84,6.77-7.51,14.26-15.05,16.3-3.91,1.06-8.29.96-12.28.49-3.64-.43-7.44-1.57-10.22-4.05-4.74-4.23-6.18-11.23-5.11-17.31,1.31-7.42,6.07-13.66,11.26-18.88,5.15-5.18,12.05-9.62,14.74-16.72.62-1.64.9-3.4.86-5.16-.06-2.41-3.81-2.42-3.75,0"/>
  <path class="cls-3" d="M81.88,71.39l10.12,51.17c1.43,7.25-3.33,14.36-10.58,15.79l-3.75.74.66,3.33c.33,1.67-.78,3.3-2.44,3.63l-3.69.73c-1.67.33-3.3-.76-3.63-2.43l-.66-3.34-3.81.75c-7.26,1.44-14.36-3.33-15.79-10.58l-10.12-51.17c-.94-4.77,2.18-9.43,6.94-10.37l26.37-5.21c4.77-.94,9.43,2.18,10.38,6.95"/>
  <path class="cls-7" d="M74.26,110.1l-12.6,2.49c-6.2,1.23-12.32-3.07-13.6-9.54-.29-1.44-1.21-3.75-.69-5.05.78-1.95,3.92-2.93,5.67-3.41,2.27-.62,4.66-.99,6.66-2.25,1.58-.99,2.8-2.46,4.15-3.75,2.19-2.09,4.84-3.77,7.78-4.27,2.95-.5,6.21.32,8.3,2.59,2.49,2.7,2.6,5.82,3.27,9.19,1.28,6.48-2.75,12.77-8.94,14"/>
  <path class="cls-5" d="M78.67,134.47l-13.39,2.65c-6.32,1.25-12.52-2.9-13.77-9.22l-2.53-12.82c-.72-3.65-1.44-7.31-2.17-10.96-.79-4.02-2.35-8.62-1.13-12.62.35-1.15,1-2.21,1.94-2.96,2.88-2.31,6.18-.69,8.42,1.43,2.27,2.15,3.94,4.85,6.01,7.18,2.08,2.34,4.78,4.4,7.9,4.58,2.47.14,4.99-1,6.5-2.95.88-1.13,1.43-2.51,2.38-3.58.77-.88,2.82-2.16,3.8-1.02.7.81.73,3.71.94,4.78.68,3.42,1.35,6.83,2.03,10.25l2.27,11.5c1.25,6.32-2.9,12.52-9.22,13.77"/>
  <path class="cls-7" d="M52.02,92.49c0,1.33-1.08,2.41-2.41,2.41s-2.4-1.08-2.4-2.41,1.08-2.4,2.4-2.4,2.41,1.08,2.41,2.4"/>
  <path class="cls-7" d="M48.74,99.43l2.2,10.21c.21.96,1.38,1.61,2.31,1.31,1.01-.33,1.53-1.28,1.31-2.31-.73-3.4-1.47-6.81-2.2-10.21-.21-.96-1.38-1.61-2.31-1.31-1.01.33-1.53,1.28-1.31,2.31"/>
  <path class="cls-7" d="M47.67,75.51c0,1.61-1.3,2.91-2.91,2.91s-2.91-1.3-2.91-2.91,1.31-2.91,2.91-2.91,2.91,1.3,2.91,2.91"/>
  <path class="cls-7" d="M43.74,81.18c0,.81-.65,1.46-1.46,1.46s-1.46-.65-1.46-1.46.65-1.46,1.46-1.46,1.46.65,1.46,1.46"/>
  <rect class="cls-7" x=".77" y="1.72" width="150.63" height="42.43" rx="13.9" ry="13.9"/>
  <rect class="cls-8" x="6.61" y="5.97" width="32.38" height="32.38" rx="6.83" ry="6.83"/>
  <circle class="cls-1" cx="118.26" cy="221.55" r="4.56"/>
  <circle class="cls-1" cx="27.71" cy="226" r="4.56"/>
  <circle class="cls-1" cx="137.41" cy="159.96" r="4.56"/>
  <circle class="cls-1" cx="14.54" cy="55.59" r="4.56"/>
  <circle class="cls-1" cx="127.38" cy="53.39" r="4.56"/>
  <g>
    <circle class="cls-1" cx="14.54" cy="150.84" r="4.56"/>
    <path class="cls-1" d="M14.54,155.9c-2.79,0-5.06-2.27-5.06-5.06s2.27-5.06,5.06-5.06,5.06,2.27,5.06,5.06-2.27,5.06-5.06,5.06ZM14.54,146.78c-2.24,0-4.06,1.82-4.06,4.06s1.82,4.06,4.06,4.06,4.06-1.82,4.06-4.06-1.82-4.06-4.06-4.06Z"/>
  </g>
  <g>
    <circle class="cls-1" cx="22.97" cy="130.34" r="2.28"/>
    <path class="cls-1" d="M22.97,133.12c-1.53,0-2.78-1.25-2.78-2.78s1.25-2.78,2.78-2.78,2.78,1.25,2.78,2.78-1.25,2.78-2.78,2.78ZM22.97,128.56c-.98,0-1.78.8-1.78,1.78s.8,1.78,1.78,1.78,1.78-.8,1.78-1.78-.8-1.78-1.78-1.78Z"/>
  </g>
  <g>
    <circle class="cls-1" cx="15.88" cy="69.8" r="2.28"/>
    <path class="cls-1" d="M15.88,72.58c-1.53,0-2.78-1.25-2.78-2.78s1.25-2.78,2.78-2.78,2.78,1.25,2.78,2.78-1.25,2.78-2.78,2.78ZM15.88,68.03c-.98,0-1.78.8-1.78,1.78s.8,1.78,1.78,1.78,1.78-.8,1.78-1.78-.8-1.78-1.78-1.78Z"/>
  </g>
  <g>
    <circle class="cls-1" cx="92.84" cy="218.77" r="2.28"/>
    <path class="cls-1" d="M92.84,221.55c-1.53,0-2.78-1.25-2.78-2.78s1.25-2.78,2.78-2.78,2.78,1.25,2.78,2.78-1.25,2.78-2.78,2.78ZM92.84,216.99c-.98,0-1.78.8-1.78,1.78s.8,1.78,1.78,1.78,1.78-.8,1.78-1.78-.8-1.78-1.78-1.78Z"/>
  </g>
  <g>
    <circle class="cls-1" cx="107.61" cy="52.81" r="2.28"/>
    <path class="cls-1" d="M107.61,55.59c-1.53,0-2.78-1.25-2.78-2.78s1.25-2.78,2.78-2.78,2.78,1.25,2.78,2.78-1.25,2.78-2.78,2.78ZM107.61,51.03c-.98,0-1.78.8-1.78,1.78s.8,1.78,1.78,1.78,1.78-.8,1.78-1.78-.8-1.78-1.78-1.78Z"/>
  </g>
  <path class="cls-1" d="M75.52,44.15c-2.61,4.76-6.64,8.57-10.38,8.22-2.89-.26-4.78-2.86-8.38-8.22h-1.2c.08.12.16.24.24.36,3.57,5.33,5.72,8.54,9.25,8.86.19.02.37.02.56.02,4.21,0,8.42-4.2,11.04-9.24h-1.13Z"/>
  <path class="cls-1" d="M148.08,140.89c-5.96,4.39-9.58,4.39-11.67,3.35-4.52-2.26-4.67-10.16-4.52-13.45h0c.03-.61.78-15.09,12.16-19.47,1.25-.48,2.62-.81,4.04-1.02v-1.04c-1.53.22-3.02.6-4.39,1.13-11.98,4.61-12.77,19.72-12.8,20.36-.15,3.49.03,11.87,5.08,14.39.94.47,1.96.7,3.08.7,2.56,0,5.58-1.24,9.04-3.69v-1.25Z"/>
  <path class="cls-1" d="M18.68,115.57c-1.47-4.93-8-8.8-14.59-9.24v1.01c6.13.46,12.31,4.05,13.64,8.51h0c.79,2.65-.82,5.99-4.53,13.32-3.89,7.67-6.18,12.17-9.1,14.72v1.29c3.41-2.57,5.78-7.25,10-15.58,3.57-7.03,5.53-10.91,4.59-14.05Z"/>
  <path class="cls-1" d="M19.21,235.67c-2.28-4.1-3.08-8.82-1.58-12.35,1.31-3.08,4.46-5.5,8.87-6.8,7.59-2.24,17.26-.86,23.5,3.37,5.77,3.91,10.66,11.19,8.74,15.78h1.06s.03-.09.05-.13c1.64-5.2-3.42-12.5-9.29-16.48-6.47-4.38-16.48-5.82-24.34-3.5-4.7,1.39-8.08,4.01-9.51,7.37-1.55,3.66-.85,8.49,1.38,12.75h1.12Z"/>
  <path class="cls-1" d="M103.48,235.67c-1.6-3.41-2.17-6.42-1.41-9.81,1.73-7.7,9.52-14.39,16.02-13.77,3.33.32,6.59,2.6,9.15,6.41,3.23,4.8,4.94,11.23,4.79,17.17h.99c.15-6.14-1.62-12.78-4.95-17.73-2.74-4.07-6.25-6.5-9.89-6.85-6.97-.67-15.27,6.4-17.09,14.55-.78,3.48-.23,6.61,1.3,10.03h1.09Z"/>
  <text class="cls-11" transform="translate(50.42 25.93)"><tspan x="0" y="0">CHIMI</tspan><tspan class="cls-10" x="29.86" y="0">O</tspan><tspan x="37.7" y="0">THERAPIE</tspan></text>
  <g>
    <line class="cls-9" x1="14.75" y1="14.11" x2="30.84" y2="30.2"/>
    <line class="cls-9" x1="30.84" y1="14.11" x2="14.75" y2="30.2"/>
  </g>
  <circle class="cls-2" cx="133.04" cy="218.77" r="6.03"/>
  <circle class="cls-2" cx="124.82" cy="210.96" r="6.03"/>
  <circle class="cls-2" cx="130.02" cy="204.93" r="3.02"/>
  <circle class="cls-2" cx="130.86" cy="226" r="3.02"/>
  <circle class="cls-2" cx="140.42" cy="215.75" r="3.02"/>
</svg>