<?xml version="1.0" encoding="UTF-8"?>
<svg id="Calque_1" data-name="Calque 1" xmlns="http://www.w3.org/2000/svg" viewBox="0 0 153.07 240.94">
  <defs>
    <style>
      .cls-1 {
        fill: #009;
      }

      .cls-1, .cls-2, .cls-3, .cls-4, .cls-5, .cls-6, .cls-7, .cls-8 {
        stroke-width: 0px;
      }

      .cls-9 {
        stroke: #fff;
        stroke-linejoin: round;
        stroke-width: 3px;
      }

      .cls-9, .cls-10 {
        stroke-linecap: round;
      }

      .cls-9, .cls-10, .cls-11 {
        fill: none;
      }

      .cls-2 {
        fill: #ff4240;
      }

      .cls-3 {
        fill: #ff6c00;
      }

      .cls-10, .cls-11 {
        stroke: #ff4240;
        stroke-miterlimit: 10;
      }

      .cls-4 {
        fill: #ffdc4b;
      }

      .cls-12 {
        letter-spacing: -.03em;
      }

      .cls-5 {
        fill: #fc3;
      }

      .cls-6, .cls-13 {
        fill: #006;
      }

      .cls-13 {
        font-family: VarelaRound-Regular, 'Varela Round';
        font-size: 10px;
      }

      .cls-7 {
        fill: #fff;
      }

      .cls-8 {
        fill: #5e003e;
      }
    </style>
  </defs>
  <g>
    <rect class="cls-7" x=".5" y=".5" width="152.07" height="239.94" rx="11.5" ry="11.5"/>
    <path class="cls-5" d="M141.07,1c6.07,0,11,4.93,11,11v216.94c0,6.07-4.93,11-11,11H12c-6.07,0-11-4.93-11-11V12C1,5.94,5.93,1,12,1h129.07M141.07,0H12C5.4,0,0,5.4,0,12v216.94C0,235.54,5.4,240.94,12,240.94h129.07c6.6,0,12-5.4,12-12V12C153.07,5.4,147.67,0,141.07,0h0Z"/>
  </g>
  <path class="cls-6" d="M4.09,11.45h144.01v215.72c0,4.69-3.81,8.5-8.5,8.5H12.59c-4.69,0-8.5-3.81-8.5-8.5V11.45h0Z"/>
  <text class="cls-13" transform="translate(50.68 25.16)"><tspan x="0" y="0">CHIMI</tspan><tspan class="cls-12" x="29.86" y="0">O</tspan><tspan x="37.7" y="0">THERAPIE</tspan></text>
  <g>
    <rect class="cls-8" x="6.61" y="5.97" width="32.38" height="32.38" rx="6.83" ry="6.83"/>
    <circle class="cls-2" cx="17.9" cy="14.15" r="5.07"/>
    <circle class="cls-2" cx="22.97" cy="24.22" r="3.1"/>
    <circle class="cls-2" cx="29.17" cy="12.89" r="3.1"/>
    <circle class="cls-2" cx="32.28" cy="20.43" r="3.1"/>
    <circle class="cls-2" cx="14.54" cy="29.2" r="4.33"/>
    <circle class="cls-2" cx="31.05" cy="30.9" r="4.33"/>
  </g>
  <rect class="cls-7" x=".77" y="1.72" width="150.63" height="42.43" rx="13.9" ry="13.9"/>
  <rect class="cls-8" x="6.61" y="5.97" width="32.38" height="32.38" rx="6.83" ry="6.83"/>
  <circle class="cls-1" cx="118.26" cy="221.55" r="4.56"/>
  <circle class="cls-1" cx="27.71" cy="226" r="4.56"/>
  <circle class="cls-1" cx="137.41" cy="159.96" r="4.56"/>
  <circle class="cls-1" cx="14.54" cy="55.59" r="4.56"/>
  <circle class="cls-1" cx="127.38" cy="53.39" r="4.56"/>
  <g>
    <circle class="cls-1" cx="14.54" cy="150.84" r="4.56"/>
    <path class="cls-1" d="M14.54,155.9c-2.79,0-5.06-2.27-5.06-5.06s2.27-5.06,5.06-5.06,5.06,2.27,5.06,5.06-2.27,5.06-5.06,5.06ZM14.54,146.78c-2.24,0-4.06,1.82-4.06,4.06s1.82,4.06,4.06,4.06,4.06-1.82,4.06-4.06-1.82-4.06-4.06-4.06Z"/>
  </g>
  <g>
    <circle class="cls-1" cx="22.97" cy="130.34" r="2.28"/>
    <path class="cls-1" d="M22.97,133.12c-1.53,0-2.78-1.25-2.78-2.78s1.25-2.78,2.78-2.78,2.78,1.25,2.78,2.78-1.25,2.78-2.78,2.78ZM22.97,128.56c-.98,0-1.78.8-1.78,1.78s.8,1.78,1.78,1.78,1.78-.8,1.78-1.78-.8-1.78-1.78-1.78Z"/>
  </g>
  <g>
    <circle class="cls-1" cx="15.88" cy="69.8" r="2.28"/>
    <path class="cls-1" d="M15.88,72.58c-1.53,0-2.78-1.25-2.78-2.78s1.25-2.78,2.78-2.78,2.78,1.25,2.78,2.78-1.25,2.78-2.78,2.78ZM15.88,68.03c-.98,0-1.78.8-1.78,1.78s.8,1.78,1.78,1.78,1.78-.8,1.78-1.78-.8-1.78-1.78-1.78Z"/>
  </g>
  <g>
    <circle class="cls-1" cx="92.84" cy="218.77" r="2.28"/>
    <path class="cls-1" d="M92.84,221.55c-1.53,0-2.78-1.25-2.78-2.78s1.25-2.78,2.78-2.78,2.78,1.25,2.78,2.78-1.25,2.78-2.78,2.78ZM92.84,216.99c-.98,0-1.78.8-1.78,1.78s.8,1.78,1.78,1.78,1.78-.8,1.78-1.78-.8-1.78-1.78-1.78Z"/>
  </g>
  <g>
    <circle class="cls-1" cx="107.61" cy="52.81" r="2.28"/>
    <path class="cls-1" d="M107.61,55.59c-1.53,0-2.78-1.25-2.78-2.78s1.25-2.78,2.78-2.78,2.78,1.25,2.78,2.78-1.25,2.78-2.78,2.78ZM107.61,51.03c-.98,0-1.78.8-1.78,1.78s.8,1.78,1.78,1.78,1.78-.8,1.78-1.78-.8-1.78-1.78-1.78Z"/>
  </g>
  <path class="cls-1" d="M75.52,44.15c-2.61,4.76-6.64,8.57-10.38,8.22-2.89-.26-4.78-2.86-8.38-8.22h-1.2c.08.12.16.24.24.36,3.57,5.33,5.72,8.54,9.25,8.86.19.02.37.02.56.02,4.21,0,8.42-4.2,11.04-9.24h-1.13Z"/>
  <path class="cls-1" d="M148.08,140.89c-5.96,4.39-9.58,4.39-11.67,3.35-4.52-2.26-4.67-10.16-4.52-13.45h0c.03-.61.78-15.09,12.16-19.47,1.25-.48,2.62-.81,4.04-1.02v-1.04c-1.53.22-3.02.6-4.39,1.13-11.98,4.61-12.77,19.72-12.8,20.36-.15,3.49.03,11.87,5.08,14.39.94.47,1.96.7,3.08.7,2.56,0,5.58-1.24,9.04-3.69v-1.25Z"/>
  <path class="cls-1" d="M18.68,115.57c-1.47-4.93-8-8.8-14.59-9.24v1.01c6.13.46,12.31,4.05,13.64,8.51h0c.79,2.65-.82,5.99-4.53,13.32-3.89,7.67-6.18,12.17-9.1,14.72v1.29c3.41-2.57,5.78-7.25,10-15.58,3.57-7.03,5.53-10.91,4.59-14.05Z"/>
  <path class="cls-1" d="M19.21,235.67c-2.28-4.1-3.08-8.82-1.58-12.35,1.31-3.08,4.46-5.5,8.87-6.8,7.59-2.24,17.26-.86,23.5,3.37,5.77,3.91,10.66,11.19,8.74,15.78h1.06s.03-.09.05-.13c1.64-5.2-3.42-12.5-9.29-16.48-6.47-4.38-16.48-5.82-24.34-3.5-4.7,1.39-8.08,4.01-9.51,7.37-1.55,3.66-.85,8.49,1.38,12.75h1.12Z"/>
  <path class="cls-1" d="M103.48,235.67c-1.6-3.41-2.17-6.42-1.41-9.81,1.73-7.7,9.52-14.39,16.02-13.77,3.33.32,6.59,2.6,9.15,6.41,3.23,4.8,4.94,11.23,4.79,17.17h.99c.15-6.14-1.62-12.78-4.95-17.73-2.74-4.07-6.25-6.5-9.89-6.85-6.97-.67-15.27,6.4-17.09,14.55-.78,3.48-.23,6.61,1.3,10.03h1.09Z"/>
  <text class="cls-13" transform="translate(66.56 25.93)"><tspan x="0" y="0">CHIRURGIE</tspan></text>
  <g>
    <path class="cls-4" d="M56.78,68.67c-.4-2.38-3.54-2.99-4.81-.94-1.54,2.48-2.9,5.06-3.85,7.81-1.41,4.13-1.84,8.55-1.81,12.92.03,5.09.68,10.29,3.01,14.82,2.94,5.72,8.42,10.08,10.24,16.25.31,1.06.53,2.19,1.18,3.07,1,1.34,2.91,1.5,3.63-.13.59-1.36-.12-3.11-.33-4.47-.66-4.5-1.17-9.02-1.79-13.52-1.25-9.06-2.6-18.1-4.05-27.13-.46-2.89-.94-5.78-1.42-8.68"/>
    <path class="cls-3" d="M71.73,202.75h0c-3.16.43-6.09-1.8-6.52-4.96l-9.74-71.87c-.43-3.16,1.8-6.09,4.96-6.51,3.16-.43,6.09,1.81,6.51,4.96l9.74,71.87c.43,3.16-1.8,6.09-4.96,6.51"/>
    <path class="cls-7" d="M52.14,93.49c.15,1.09-.61,2.08-1.7,2.23-1.08.15-2.08-.61-2.23-1.7-.15-1.09.61-2.08,1.7-2.23,1.08-.15,2.08.61,2.23,1.7"/>
    <path class="cls-7" d="M62.39,122.46c.15,1.09-.61,2.08-1.7,2.23-1.08.15-2.08-.61-2.23-1.7-.15-1.09.61-2.08,1.7-2.23,1.08-.15,2.08.61,2.23,1.7"/>
    <path class="cls-7" d="M59.4,126.11c.09.68-.38,1.3-1.06,1.39s-1.3-.38-1.39-1.06.38-1.3,1.06-1.39,1.3.38,1.39,1.06"/>
    <path class="cls-7" d="M49.86,90.19c-.81,0-1.48-.65-1.5-1.47-.12-5.46.95-10.92,3.09-15.78.33-.76,1.21-1.1,1.98-.77.76.33,1.1,1.22.77,1.98-1.97,4.47-2.96,9.51-2.84,14.56.02.82-.65,1.48-1.47,1.48h-.03Z"/>
    <path class="cls-3" d="M89.48,109.7h0c-.81,0-1.46-.66-1.46-1.46l.09-34.67c0-.81.65-1.46,1.46-1.46h0c.81,0,1.46.66,1.46,1.46l-.09,34.67c0,.81-.65,1.46-1.46,1.46Z"/>
    <path class="cls-3" d="M89.99,200.38h0c-1.63,0-2.96-1.34-2.96-2.97l.06-22.85c0-1.63,1.34-2.96,2.97-2.96s2.96,1.34,2.96,2.97l-.06,22.85c0,1.63-1.34,2.96-2.97,2.96"/>
    <path class="cls-4" d="M90.01,114.3h0c-1.64,0-2.98-1.35-2.98-2.99v-5.07c.02-1.97,1.96-3.5,4.01-2.82,1.22.4,1.99,1.62,1.99,2.91v5c-.02,1.64-1.37,2.98-3.01,2.98"/>
    <path class="cls-3" d="M88.95,172.72h0c-4.92-.01-8.93-4.04-8.92-8.97l.11-43.33c.01-4.92,4.05-8.93,8.97-8.92,4.92.01,8.93,4.04,8.92,8.96l-.11,43.33c-.01,4.92-4.04,8.93-8.97,8.92"/>
    <path class="cls-4" d="M98.03,174.19l-17.07-.05c-1.91,0-3.48-1.58-3.47-3.49,0-1.91,1.58-3.48,3.49-3.47l16.92.05c1.91,0,3.48,1.58,3.47,3.49,0,1.91-1.58,3.48-3.49,3.47"/>
    <path class="cls-4" d="M96.03,203.19l-11.64-.03c-1.37,0-2.48-1.13-2.47-2.49,0-1.37,1.13-2.48,2.49-2.47l11.48.03c1.37,0,2.48,1.13,2.47,2.49,0,1.37-1.13,2.48-2.49,2.47"/>
    <line class="cls-9" x1="84.03" y1="123.19" x2="83.99" y2="138.19"/>
    <path class="cls-7" d="M86.91,117.71c0,1.02-.83,1.84-1.85,1.84s-1.84-.83-1.84-1.85.83-1.84,1.85-1.84,1.84.83,1.84,1.85"/>
  </g>
  <circle class="cls-11" cx="22.8" cy="22.16" r="8.87"/>
  <line class="cls-10" x1="22.8" y1="22.16" x2="22.8" y2="17.05"/>
  <line class="cls-10" x1="22.8" y1="22.16" x2="26.07" y2="22.16"/>
  <circle class="cls-2" cx="133.04" cy="218.77" r="6.03"/>
</svg>