<?xml version="1.0" encoding="UTF-8"?>
<svg id="Calque_1" data-name="Calque 1" xmlns="http://www.w3.org/2000/svg" viewBox="0 0 153.07 240.94">
  <defs>
    <style>
      .cls-1 {
        fill: #009;
      }

      .cls-1, .cls-2, .cls-3, .cls-4, .cls-5, .cls-6, .cls-7, .cls-8 {
        stroke-width: 0px;
      }

      .cls-2 {
        fill: #ff4240;
      }

      .cls-3 {
        fill: #ff6c00;
      }

      .cls-4 {
        fill: #ffdc4b;
      }

      .cls-9 {
        letter-spacing: -.03em;
      }

      .cls-10 {
        fill: none;
        stroke: #f33;
        stroke-miterlimit: 10;
      }

      .cls-5 {
        fill: #fc3;
      }

      .cls-6, .cls-11 {
        fill: #006;
      }

      .cls-11 {
        font-family: VarelaRound-Regular, 'Varela Round';
        font-size: 10px;
      }

      .cls-7 {
        fill: #fff;
      }

      .cls-8 {
        fill: #5e003e;
      }
    </style>
  </defs>
  <g>
    <rect class="cls-7" x=".5" y=".5" width="152.07" height="239.94" rx="11.5" ry="11.5"/>
    <path class="cls-5" d="M141.07,1c6.07,0,11,4.93,11,11v216.94c0,6.07-4.93,11-11,11H12c-6.07,0-11-4.93-11-11V12C1,5.94,5.93,1,12,1h129.07M141.07,0H12C5.4,0,0,5.4,0,12v216.94C0,235.54,5.4,240.94,12,240.94h129.07c6.6,0,12-5.4,12-12V12C153.07,5.4,147.67,0,141.07,0h0Z"/>
  </g>
  <path class="cls-6" d="M4.09,11.45h144.01v215.72c0,4.69-3.81,8.5-8.5,8.5H12.59c-4.69,0-8.5-3.81-8.5-8.5V11.45h0Z"/>
  <text class="cls-11" transform="translate(50.68 25.16)"><tspan x="0" y="0">CHIMI</tspan><tspan class="cls-9" x="29.86" y="0">O</tspan><tspan x="37.7" y="0">THERAPIE</tspan></text>
  <g>
    <rect class="cls-8" x="6.61" y="5.97" width="32.38" height="32.38" rx="6.83" ry="6.83"/>
    <circle class="cls-2" cx="17.9" cy="14.15" r="5.07"/>
    <circle class="cls-2" cx="22.97" cy="24.22" r="3.1"/>
    <circle class="cls-2" cx="29.17" cy="12.89" r="3.1"/>
    <circle class="cls-2" cx="32.28" cy="20.43" r="3.1"/>
    <circle class="cls-2" cx="14.54" cy="29.2" r="4.33"/>
    <circle class="cls-2" cx="31.05" cy="30.9" r="4.33"/>
  </g>
  <rect class="cls-7" x=".77" y="1.72" width="150.63" height="42.43" rx="13.9" ry="13.9"/>
  <rect class="cls-8" x="6.61" y="5.97" width="32.38" height="32.38" rx="6.83" ry="6.83"/>
  <circle class="cls-1" cx="118.26" cy="221.55" r="4.56"/>
  <circle class="cls-1" cx="27.71" cy="226" r="4.56"/>
  <circle class="cls-1" cx="137.41" cy="159.96" r="4.56"/>
  <circle class="cls-1" cx="14.54" cy="55.59" r="4.56"/>
  <circle class="cls-1" cx="127.38" cy="53.39" r="4.56"/>
  <g>
    <circle class="cls-1" cx="14.54" cy="150.84" r="4.56"/>
    <path class="cls-1" d="M14.54,155.9c-2.79,0-5.06-2.27-5.06-5.06s2.27-5.06,5.06-5.06,5.06,2.27,5.06,5.06-2.27,5.06-5.06,5.06ZM14.54,146.78c-2.24,0-4.06,1.82-4.06,4.06s1.82,4.06,4.06,4.06,4.06-1.82,4.06-4.06-1.82-4.06-4.06-4.06Z"/>
  </g>
  <g>
    <circle class="cls-1" cx="22.97" cy="130.34" r="2.28"/>
    <path class="cls-1" d="M22.97,133.12c-1.53,0-2.78-1.25-2.78-2.78s1.25-2.78,2.78-2.78,2.78,1.25,2.78,2.78-1.25,2.78-2.78,2.78ZM22.97,128.56c-.98,0-1.78.8-1.78,1.78s.8,1.78,1.78,1.78,1.78-.8,1.78-1.78-.8-1.78-1.78-1.78Z"/>
  </g>
  <g>
    <circle class="cls-1" cx="15.88" cy="69.8" r="2.28"/>
    <path class="cls-1" d="M15.88,72.58c-1.53,0-2.78-1.25-2.78-2.78s1.25-2.78,2.78-2.78,2.78,1.25,2.78,2.78-1.25,2.78-2.78,2.78ZM15.88,68.03c-.98,0-1.78.8-1.78,1.78s.8,1.78,1.78,1.78,1.78-.8,1.78-1.78-.8-1.78-1.78-1.78Z"/>
  </g>
  <g>
    <circle class="cls-1" cx="92.84" cy="218.77" r="2.28"/>
    <path class="cls-1" d="M92.84,221.55c-1.53,0-2.78-1.25-2.78-2.78s1.25-2.78,2.78-2.78,2.78,1.25,2.78,2.78-1.25,2.78-2.78,2.78ZM92.84,216.99c-.98,0-1.78.8-1.78,1.78s.8,1.78,1.78,1.78,1.78-.8,1.78-1.78-.8-1.78-1.78-1.78Z"/>
  </g>
  <g>
    <circle class="cls-1" cx="107.61" cy="52.81" r="2.28"/>
    <path class="cls-1" d="M107.61,55.59c-1.53,0-2.78-1.25-2.78-2.78s1.25-2.78,2.78-2.78,2.78,1.25,2.78,2.78-1.25,2.78-2.78,2.78ZM107.61,51.03c-.98,0-1.78.8-1.78,1.78s.8,1.78,1.78,1.78,1.78-.8,1.78-1.78-.8-1.78-1.78-1.78Z"/>
  </g>
  <path class="cls-1" d="M75.52,44.15c-2.61,4.76-6.64,8.57-10.38,8.22-2.89-.26-4.78-2.86-8.38-8.22h-1.2c.08.12.16.24.24.36,3.57,5.33,5.72,8.54,9.25,8.86.19.02.37.02.56.02,4.21,0,8.42-4.2,11.04-9.24h-1.13Z"/>
  <path class="cls-1" d="M148.08,140.89c-5.96,4.39-9.58,4.39-11.67,3.35-4.52-2.26-4.67-10.16-4.52-13.45h0c.03-.61.78-15.09,12.16-19.47,1.25-.48,2.62-.81,4.04-1.02v-1.04c-1.53.22-3.02.6-4.39,1.13-11.98,4.61-12.77,19.72-12.8,20.36-.15,3.49.03,11.87,5.08,14.39.94.47,1.96.7,3.08.7,2.56,0,5.58-1.24,9.04-3.69v-1.25Z"/>
  <path class="cls-1" d="M18.68,115.57c-1.47-4.93-8-8.8-14.59-9.24v1.01c6.13.46,12.31,4.05,13.64,8.51h0c.79,2.65-.82,5.99-4.53,13.32-3.89,7.67-6.18,12.17-9.1,14.72v1.29c3.41-2.57,5.78-7.25,10-15.58,3.57-7.03,5.53-10.91,4.59-14.05Z"/>
  <path class="cls-1" d="M19.21,235.67c-2.28-4.1-3.08-8.82-1.58-12.35,1.31-3.08,4.46-5.5,8.87-6.8,7.59-2.24,17.26-.86,23.5,3.37,5.77,3.91,10.66,11.19,8.74,15.78h1.06s.03-.09.05-.13c1.64-5.2-3.42-12.5-9.29-16.48-6.47-4.38-16.48-5.82-24.34-3.5-4.7,1.39-8.08,4.01-9.51,7.37-1.55,3.66-.85,8.49,1.38,12.75h1.12Z"/>
  <path class="cls-1" d="M103.48,235.67c-1.6-3.41-2.17-6.42-1.41-9.81,1.73-7.7,9.52-14.39,16.02-13.77,3.33.32,6.59,2.6,9.15,6.41,3.23,4.8,4.94,11.23,4.79,17.17h.99c.15-6.14-1.62-12.78-4.95-17.73-2.74-4.07-6.25-6.5-9.89-6.85-6.97-.67-15.27,6.4-17.09,14.55-.78,3.48-.23,6.61,1.3,10.03h1.09Z"/>
  <text class="cls-11" transform="translate(46.46 25.93)"><tspan x="0" y="0">IMMUN</tspan><tspan class="cls-9" x="37.78" y="0">O</tspan><tspan x="45.62" y="0">THERAPIE</tspan></text>
  <g>
    <path class="cls-3" d="M77.84,182.5c-27.91,0-50.62-22.71-50.62-50.62s22.71-50.62,50.62-50.62,50.62,22.71,50.62,50.62-22.71,50.62-50.62,50.62"/>
    <path class="cls-4" d="M77.84,83.76c26.53,0,48.12,21.59,48.12,48.12s-21.59,48.12-48.12,48.12-48.12-21.59-48.12-48.12,21.59-48.12,48.12-48.12M77.84,78.76c-29.34,0-53.12,23.78-53.12,53.12s23.78,53.12,53.12,53.12,53.12-23.78,53.12-53.12-23.78-53.12-53.12-53.12"/>
    <path class="cls-7" d="M78.71,123.92c-.67,0-1.32-.33-1.7-.94l-9.18-14.68c-.87-1.39-1.48-2.92-1.81-4.53l-2.25-10.91c-.22-1.08.47-2.14,1.56-2.36,1.08-.22,2.14.47,2.36,1.55l2.25,10.91c.24,1.14.67,2.22,1.29,3.21l9.18,14.68c.59.94.3,2.17-.63,2.76-.33.21-.7.3-1.06.3h0Z"/>
    <path class="cls-7" d="M73.82,127.44c-.65,0-1.28-.31-1.67-.89l-9.59-14.41c-.65-.97-1.45-1.81-2.4-2.5l-9.02-6.54c-.89-.65-1.09-1.9-.44-2.79s1.9-1.09,2.79-.44l9.02,6.54c1.33.97,2.47,2.15,3.38,3.52l9.59,14.41c.61.92.36,2.16-.56,2.77-.34.23-.73.33-1.11.33h.01Z"/>
    <path class="cls-7" d="M74.48,105.01c-.91,0-1.74-.63-1.95-1.55l-2.65-11.59c-.25-1.08.43-2.15,1.5-2.4s2.15.43,2.4,1.5l2.65,11.59c.25,1.08-.43,2.15-1.5,2.4-.15.04-.3.05-.45.05h0Z"/>
    <path class="cls-7" d="M59.01,115.31c-.4,0-.81-.12-1.16-.38l-9.66-6.93c-.9-.64-1.1-1.89-.46-2.79s1.89-1.1,2.79-.46l9.66,6.93c.9.64,1.1,1.89.46,2.79-.39.54-1,.83-1.63.83h0Z"/>
    <path class="cls-7" d="M94.88,168.16c-.41,0-.82-.12-1.17-.38l-9.01-6.55c-.94-.69-1.99-1.19-3.12-1.51l-16.67-4.66c-1.06-.3-1.69-1.4-1.39-2.46.3-1.06,1.4-1.69,2.46-1.39l16.67,4.66c1.58.44,3.06,1.16,4.39,2.12l9.01,6.55c.89.65,1.09,1.9.44,2.79-.39.54-1,.82-1.62.82h.01Z"/>
    <path class="cls-7" d="M86.65,154.13c-1.12,0-2.24-.14-3.33-.41l-16.8-4.19c-1.07-.27-1.72-1.35-1.46-2.42.27-1.07,1.35-1.73,2.42-1.46l16.8,4.19c1.13.28,2.29.36,3.46.23l11.07-1.24c1.1-.13,2.09.67,2.21,1.77s-.67,2.09-1.77,2.21l-11.07,1.24c-.51.06-1.02.08-1.53.08h0Z"/>
    <path class="cls-7" d="M91.07,173.05c-.39,0-.79-.12-1.14-.36l-9.77-6.78c-.91-.63-1.13-1.88-.5-2.78.63-.91,1.88-1.13,2.78-.5l9.77,6.78c.91.63,1.13,1.88.5,2.78-.39.56-1.01.86-1.64.86h0Z"/>
    <path class="cls-7" d="M86.01,147.95c-1,0-1.86-.75-1.98-1.77-.13-1.1.66-2.09,1.75-2.22l11.81-1.38c1.1-.14,2.09.66,2.22,1.75s-.66,2.09-1.75,2.22l-11.81,1.38c-.08,0-.16,0-.24,0h0Z"/>
    <path class="cls-7" d="M103.01,112.96c-.2,0-.41-.06-.59-.19l-4.21-3.06c-.43-.31-.92-.55-1.43-.69l-7.78-2.17c-.53-.15-.84-.7-.69-1.23.15-.53.7-.84,1.23-.69l7.78,2.17c.75.21,1.44.55,2.07,1l4.21,3.06c.45.32.55.95.22,1.4-.2.27-.5.41-.81.41h0Z"/>
    <path class="cls-7" d="M99.01,106.42c-.53,0-1.06-.06-1.57-.19l-7.84-1.96c-.54-.13-.86-.68-.73-1.21s.68-.86,1.21-.73l7.86,1.97c.51.13,1.04.16,1.57.1l5.17-.58c.54-.06,1.04.33,1.1.88s-.33,1.04-.88,1.11l-5.17.58c-.24.03-.48.04-.72.04h0Z"/>
    <path class="cls-7" d="M100.84,115.24c-.2,0-.4-.06-.57-.18l-4.56-3.17c-.45-.31-.57-.94-.25-1.39.31-.45.94-.57,1.39-.25l4.56,3.17c.45.31.57.94.25,1.39-.19.28-.51.43-.82.43Z"/>
    <path class="cls-7" d="M98.53,103.44c-.5,0-.93-.38-.99-.88-.06-.55.33-1.04.88-1.11l5.51-.65c.54-.07,1.04.33,1.11.88s-.33,1.04-.88,1.11l-5.51.65h-.12Z"/>
    <path class="cls-7" d="M52.53,126.44h-.02l-7.62-.11c-.73,0-1.44-.15-2.13-.42l-4.57-1.78c-.48-.19-.73-.74-.54-1.22s.74-.73,1.22-.54l4.57,1.77c.47.18.97.28,1.47.29l7.61.11c.52,0,.93.43.92.95,0,.52-.42.93-.94.93h.03Z"/>
    <path class="cls-7" d="M37.93,130.9c-.42,0-.82-.25-.98-.67-.21-.55.06-1.15.6-1.36l5.11-1.97c.76-.29,1.56-.45,2.38-.46l7.87,1h0s.99-.26,1,.29c0,.55-.99.71-.99.71l-7.87.11c-.57,0-1.12.12-1.64.32l-5.11,1.97c-.13.05-.25.07-.38.07h0Z"/>
    <path class="cls-7" d="M44.48,122.91c-.11,0-.23-.02-.34-.06l-5.21-1.9c-.52-.19-.79-.76-.6-1.28.19-.52.77-.78,1.28-.6l5.21,1.9c.52.19.79.76.6,1.28-.15.41-.53.66-.94.66Z"/>
    <path class="cls-7" d="M39.32,133.77c-.4,0-.78-.24-.93-.63-.2-.51.05-1.09.57-1.3l5.17-2.03c.51-.2,1.09.05,1.3.57.2.51-.05,1.09-.57,1.3l-5.17,2.03c-.12.05-.24.07-.36.07h-.01Z"/>
    <path class="cls-7" d="M47.96,158.59c-.1,0-.2,0-.3-.05-.53-.17-.82-.73-.65-1.25l2.44-7.7c.23-.74.59-1.42,1.07-2.04l3.2-4.1c.34-.44.97-.51,1.4-.17.44.34.51.97.17,1.4l-3.2,4.1c-.33.42-.58.9-.74,1.41l-2.44,7.7c-.13.43-.53.7-.95.7Z"/>
    <path class="cls-7" d="M45.4,157.44c-.09,0-.18,0-.28-.04-.53-.15-.84-.71-.69-1.24l2.22-7.77c.15-.52.2-1.05.16-1.58l-.4-5.18c-.04-.55.37-1.03.92-1.07.54-.05,1.03.37,1.07.92l.4,5.18c.06.77-.02,1.54-.23,2.29l-2.22,7.77c-.13.44-.53.72-.96.72h0Z"/>
    <path class="cls-7" d="M53.4,151.37c-.21,0-.42-.06-.6-.2-.44-.33-.53-.96-.2-1.4l3.32-4.45c.33-.44.96-.53,1.4-.2.44.33.53.96.2,1.4l-3.32,4.45c-.2.26-.5.4-.8.4h0Z"/>
    <path class="cls-7" d="M44.94,148.44c-.52,0-.95-.4-1-.92l-.46-5.53c-.05-.55.36-1.03.91-1.08.55-.03,1.03.36,1.08.92l.46,5.53c.05.55-.36,1.03-.91,1.08h-.08Z"/>
    <path class="cls-7" d="M93.01,137.14c-.1,0-.2,0-.3-.05-.53-.17-.82-.73-.65-1.25l2.44-7.7c.23-.74.59-1.42,1.07-2.03l3.2-4.1c.34-.44.97-.51,1.4-.17.44.34.51.97.17,1.4l-3.2,4.1c-.33.42-.58.9-.74,1.41l-2.44,7.7c-.13.43-.53.7-.95.7h0Z"/>
    <path class="cls-7" d="M89.99,136.44c-.09,0-.18,0-.28-.04-.53-.15-.84-.71-.69-1.24l2.22-7.77c.15-.52.2-1.05.16-1.58l-.4-5.18c-.04-.55.37-1.03.92-1.07.56-.04,1.03.37,1.07.92l.4,5.18c.06.77-.02,1.54-.23,2.29l-2.22,7.77c-.13.44-.53.72-.96.72h0Z"/>
    <path class="cls-7" d="M98,129.93c-.21,0-.42-.06-.6-.2-.44-.33-.53-.96-.2-1.4l3.32-4.45c.33-.44.96-.53,1.4-.2s.53.96.2,1.4l-3.32,4.45c-.2.26-.5.4-.8.4h0Z"/>
    <path class="cls-7" d="M89.53,127.44c-.52,0-.95-.4-1-.92l-.46-5.53c-.05-.55.36-1.03.91-1.08.55-.03,1.03.36,1.08.92l.46,5.53c.05.55-.36,1.03-.91,1.08h-.08Z"/>
    <path class="cls-7" d="M117.01,148.29c-.4,0-.78-.24-.93-.63l-2.96-7.52c-.29-.72-.44-1.48-.45-2.25l-.1-5.2c-.01-.55.43-1.01.98-1.02.57.02,1.01.43,1.02.98l.1,5.2c.01.54.12,1.06.31,1.56l2.96,7.52c.2.51-.05,1.09-.56,1.3-.12.05-.24.07-.37.07h0Z"/>
    <path class="cls-7" d="M114.46,149.44c-.39,0-.76-.23-.92-.61l-3.17-7.43c-.21-.48-.5-.93-.86-1.31l-3.6-3.79c-.38-.4-.36-1.03.04-1.41s1.03-.37,1.41.04l3.58,3.77c.53.56.96,1.21,1.26,1.92l3.17,7.43c.22.51-.02,1.1-.53,1.31-.13.05-.26.08-.39.08h.01Z"/>
    <path class="cls-7" d="M116.63,139.44c-.53,0-.98-.42-1-.96l-.23-5.54c-.02-.55.41-1.02.96-1.04.56-.05,1.02.41,1.04.96l.23,5.54c.02.55-.41,1.02-.96,1.04h-.04Z"/>
    <path class="cls-7" d="M108.47,142.63c-.26,0-.52-.1-.72-.31l-3.84-4c-.38-.4-.37-1.03.03-1.41s1.03-.37,1.41.03l3.84,4c.38.4.37,1.03-.03,1.41-.19.19-.44.28-.69.28Z"/>
  </g>
  <path class="cls-10" d="M22.97,33.57h0c-9.31-3.46-9.9-13.72-9.86-16.91,0-.58.34-1.11.86-1.37l8.97-4.53h.03s.03,0,.03,0l8.97,4.53c.52.26.85.79.86,1.37.05,3.19-.55,13.44-9.86,16.91Z"/>
  <circle class="cls-2" cx="133.04" cy="218.77" r="6.03"/>
  <circle class="cls-2" cx="133.04" cy="218.77" r="6.03"/>
</svg>