<?xml version="1.0" encoding="UTF-8"?>
<svg id="Calque_2" data-name="Calque 2" xmlns="http://www.w3.org/2000/svg" viewBox="0 0 153 241">
  <defs>
    <style>
      .cls-1 {
        fill: #ff6c00;
      }

      .cls-1, .cls-2, .cls-3, .cls-4, .cls-5, .cls-6, .cls-7, .cls-8 {
        stroke-width: 0px;
      }

      .cls-2 {
        fill: #ffdc4b;
      }

      .cls-3 {
        fill: #fc3;
      }

      .cls-9, .cls-10, .cls-11 {
        isolation: isolate;
      }

      .cls-4, .cls-10, .cls-11 {
        fill: #006;
      }

      .cls-10 {
        letter-spacing: -.03em;
      }

      .cls-10, .cls-11 {
        font-family: VarelaRound-Regular, 'Varela Round';
        font-size: 10px;
      }

      .cls-5 {
        fill: #ff4240;
      }

      .cls-6 {
        fill: #fff;
      }

      .cls-7 {
        fill: #5e003e;
      }

      .cls-12 {
        fill: none;
        stroke: #f33;
        stroke-miterlimit: 10;
      }

      .cls-8 {
        fill: #009;
      }
    </style>
  </defs>
  <g id="Calque_1-2" data-name="Calque 1">
    <path class="cls-6" d="M11.58,1h129.85c6.39,0,11.58,5.13,11.58,11.45v216.1c0,6.32-5.18,11.45-11.58,11.45H11.58c-6.39,0-11.58-5.13-11.58-11.45V12.45C0,6.13,5.18,1,11.58,1Z"/>
    <path class="cls-3" d="M141.01,1c6.07,0,10.99,4.93,10.99,11v216.99c0,6.07-4.93,11-10.99,11H11.99c-6.07,0-10.99-4.93-10.99-11V12C1,5.94,5.93,1,11.99,1h129.01M141.01,0H12C5.4,0,0,5.4,0,12v217c0,6.6,5.4,12,12,12h129c6.6,0,12-5.4,12-12V12c0-6.6-5.4-12-11.99-12h0Z"/>
    <path class="cls-4" d="M4,12h144v215.5c0,4.69-3.81,8.5-8.5,8.5H12.5c-4.69,0-8.5-3.81-8.5-8.5V12h0Z"/>
    <g class="cls-9">
      <text class="cls-11" transform="translate(50.34 25.56)"><tspan x="0" y="0">CHIMI</tspan></text>
      <text class="cls-10" transform="translate(80.2 25.56)"><tspan x="0" y="0">O</tspan></text>
      <text class="cls-11" transform="translate(88.04 25.56)"><tspan x="0" y="0">THERAPIE</tspan></text>
    </g>
    <g>
      <rect class="cls-7" x="6" y="7" width="32" height="32" rx="6.83" ry="6.83"/>
      <circle class="cls-5" cx="17.56" cy="14.55" r="5.07"/>
      <circle class="cls-5" cx="22.63" cy="24.62" r="3.1"/>
      <circle class="cls-5" cx="28.83" cy="13.29" r="3.1"/>
      <circle class="cls-5" cx="31.94" cy="20.83" r="3.1"/>
      <circle class="cls-5" cx="14.2" cy="29.6" r="4.33"/>
      <circle class="cls-5" cx="30.71" cy="31.3" r="4.33"/>
    </g>
    <rect class="cls-6" x="1" y="2" width="151" height="42" rx="13.9" ry="13.9"/>
    <rect class="cls-7" x="6" y="7" width="32" height="32" rx="6.83" ry="6.83"/>
    <circle class="cls-8" cx="117.92" cy="221.95" r="4.56"/>
    <circle class="cls-8" cx="27.37" cy="226.4" r="4.56"/>
    <circle class="cls-8" cx="137.07" cy="160.36" r="4.56"/>
    <circle class="cls-8" cx="14.2" cy="55.99" r="4.56"/>
    <circle class="cls-8" cx="127.04" cy="53.79" r="4.56"/>
    <g>
      <circle class="cls-8" cx="14.2" cy="151.24" r="4.56"/>
      <path class="cls-8" d="M14.2,156.3c-2.79,0-5.06-2.27-5.06-5.06s2.27-5.06,5.06-5.06,5.06,2.27,5.06,5.06-2.27,5.06-5.06,5.06ZM14.2,147.18c-2.24,0-4.06,1.82-4.06,4.06s1.82,4.06,4.06,4.06,4.06-1.82,4.06-4.06-1.82-4.06-4.06-4.06Z"/>
    </g>
    <g>
      <circle class="cls-8" cx="22.63" cy="130.74" r="2.28"/>
      <path class="cls-8" d="M22.63,133.52c-1.53,0-2.78-1.25-2.78-2.78s1.25-2.78,2.78-2.78,2.78,1.25,2.78,2.78-1.25,2.78-2.78,2.78ZM22.63,128.96c-.98,0-1.78.8-1.78,1.78s.8,1.78,1.78,1.78,1.78-.8,1.78-1.78-.8-1.78-1.78-1.78Z"/>
    </g>
    <g>
      <circle class="cls-8" cx="15.54" cy="70.2" r="2.28"/>
      <path class="cls-8" d="M15.54,72.98c-1.53,0-2.78-1.25-2.78-2.78s1.25-2.78,2.78-2.78,2.78,1.25,2.78,2.78-1.25,2.78-2.78,2.78ZM15.54,68.43c-.98,0-1.78.8-1.78,1.78s.8,1.78,1.78,1.78,1.78-.8,1.78-1.78-.8-1.78-1.78-1.78Z"/>
    </g>
    <g>
      <circle class="cls-8" cx="92.5" cy="219.17" r="2.28"/>
      <path class="cls-8" d="M92.5,221.95c-1.53,0-2.78-1.25-2.78-2.78s1.25-2.78,2.78-2.78,2.78,1.25,2.78,2.78-1.25,2.78-2.78,2.78ZM92.5,217.39c-.98,0-1.78.8-1.78,1.78s.8,1.78,1.78,1.78,1.78-.8,1.78-1.78-.8-1.78-1.78-1.78Z"/>
    </g>
    <g>
      <circle class="cls-8" cx="107.27" cy="53.21" r="2.28"/>
      <path class="cls-8" d="M107.27,55.99c-1.53,0-2.78-1.25-2.78-2.78s1.25-2.78,2.78-2.78,2.78,1.25,2.78,2.78-1.25,2.78-2.78,2.78ZM107.27,51.43c-.98,0-1.78.8-1.78,1.78s.8,1.78,1.78,1.78,1.78-.8,1.78-1.78-.8-1.78-1.78-1.78Z"/>
    </g>
    <path class="cls-8" d="M75.18,44c-2.61,4.76-6.64,8.57-10.38,8.22-2.89-.26-4.78-2.86-8.38-8.22h-1.2c.08.12.16.24.24.36,3.57,5.33,5.72,8.54,9.25,8.86.19.02.37.02.56.02,4.21,0,8.42-4.2,11.04-9.24h-1.13Z"/>
    <path class="cls-8" d="M148,141.82c-5.52,3.86-8.93,3.82-10.93,2.82-4.52-2.26-4.67-10.16-4.52-13.45h0c.03-.61.78-15.09,12.16-19.47,1.25-.48,2.62-.81,3.29-1.02v-1.04c-.78.22-2.27.6-3.64,1.13-11.98,4.61-12.77,19.72-12.8,20.36-.15,3.49.03,11.87,5.08,14.39.94.47,1.96.7,3.08.7,2.33,0,5.03-1.02,8.28-3.05"/>
    <path class="cls-8" d="M4,107.83c6.47.72,12.12,4.18,13.39,8.42h0c.79,2.65-.82,5.99-4.53,13.32-3.89,7.67-6.18,12.17-8.86,14.72v1.29c3.17-2.57,5.54-7.25,9.76-15.58,3.57-7.03,5.53-10.91,4.59-14.05v.02c-1.41-4.7-7.42-8.44-14.35-9.16"/>
    <path class="cls-8" d="M19,236.07c-2.41-4.1-3.21-8.82-1.71-12.35,1.31-3.08,4.46-5.5,8.87-6.8,7.59-2.24,17.26-.86,23.5,3.37,5.77,3.91,10.66,11.19,8.74,15.71h1.06c0,.07.03-.02.05-.06,1.64-5.2-3.42-12.5-9.29-16.48-6.47-4.38-16.48-5.82-24.34-3.5-4.7,1.39-8.08,4.01-9.51,7.37-1.45,3.42-.93,7.87.97,12.67"/>
    <path class="cls-8" d="M103.14,236c-1.6-3.41-2.17-6.42-1.41-9.81,1.73-7.7,9.52-14.39,16.02-13.77,3.33.32,6.59,2.6,9.15,6.41,3.23,4.8,4.94,11.23,4.79,17.17h.99c.15-6.14-1.62-12.78-4.95-17.73-2.74-4.07-6.25-6.5-9.89-6.85-6.97-.67-15.27,6.4-17.09,14.55-.78,3.48-.23,6.61,1.3,10.03,0,0,1.09,0,1.09,0Z"/>
    <g class="cls-9">
      <text class="cls-11" transform="translate(46.12 26.33)"><tspan x="0" y="0">IMMUN</tspan></text>
      <text class="cls-10" transform="translate(83.9 26.33)"><tspan x="0" y="0">O</tspan></text>
      <text class="cls-11" transform="translate(91.74 26.33)"><tspan x="0" y="0">THERAPIE</tspan></text>
    </g>
    <g>
      <path class="cls-1" d="M77.5,182.9c-27.91,0-50.62-22.71-50.62-50.62s22.71-50.62,50.62-50.62,50.62,22.71,50.62,50.62-22.71,50.62-50.62,50.62"/>
      <path class="cls-2" d="M77.5,84.16c26.53,0,48.12,21.59,48.12,48.12s-21.59,48.12-48.12,48.12-48.12-21.59-48.12-48.12,21.59-48.12,48.12-48.12M77.5,79.16c-29.34,0-53.12,23.78-53.12,53.12s23.78,53.12,53.12,53.12,53.12-23.78,53.12-53.12-23.78-53.12-53.12-53.12"/>
      <path class="cls-6" d="M78.37,124.32c-.67,0-1.32-.33-1.7-.94l-9.18-14.68c-.87-1.39-1.48-2.92-1.81-4.53l-2.25-10.91c-.22-1.08.47-2.14,1.56-2.36,1.08-.22,2.14.47,2.36,1.55l2.25,10.91c.24,1.14.67,2.22,1.29,3.21l9.18,14.68c.59.94.3,2.17-.63,2.76-.33.21-.7.3-1.06.3h-.01Z"/>
      <path class="cls-6" d="M73.48,128c-.65,0-1.28-.31-1.67-.89l-9.59-14.41c-.65-.97-1.45-1.81-2.4-2.5l-9.02-6.54c-.89-.65-1.09-1.9-.44-2.79s1.9-1.09,2.79-.44l9.02,6.54c1.33.97,2.47,2.15,3.38,3.52l9.59,14.41c.61.92.36,2.16-.56,2.77-.34.23-.73.33-1.11.33,0,0,.01,0,.01,0Z"/>
      <path class="cls-6" d="M74.14,105.41c-.91,0-1.74-.63-1.95-1.55l-2.65-11.59c-.25-1.08.43-2.15,1.5-2.4s2.15.43,2.4,1.5l2.65,11.59c.25,1.08-.43,2.15-1.5,2.4-.15.04-.3.05-.45.05h0Z"/>
      <path class="cls-6" d="M59,115.71c-.4,0-.81-.12-1.16-.38l-9.66-6.93c-.9-.64-1.1-1.89-.46-2.79s1.89-1.1,2.79-.46l9.66,6.93c.9.64,1.1,1.89.46,2.79-.39.54-1,.83-1.63.83h0Z"/>
      <path class="cls-6" d="M95,169.01c-.41,0-.82-.12-1.17-.38l-9.01-6.55c-.94-.69-1.99-1.19-3.12-1.51l-16.67-4.66c-1.06-.3-1.69-1.4-1.39-2.46.3-1.06,1.4-1.69,2.46-1.39l16.67,4.66c1.58.44,3.06,1.16,4.39,2.12l9.01,6.55c.89.65,1.09,1.9.44,2.79-.39.54-1,.82-1.62.82h.01Z"/>
      <path class="cls-6" d="M86.31,154.53c-1.12,0-2.24-.14-3.33-.41l-16.8-4.19c-1.07-.27-1.72-1.35-1.46-2.42.27-1.07,1.35-1.73,2.42-1.46l16.8,4.19c1.13.28,2.29.36,3.46.23l11.07-1.24c1.1-.13,2.09.67,2.21,1.77s-.67,2.09-1.77,2.21l-11.07,1.24c-.51.06-1.02.08-1.53.08h0Z"/>
      <path class="cls-6" d="M90.73,173.45c-.39,0-.79-.12-1.14-.36l-9.77-6.78c-.91-.63-1.13-1.88-.5-2.78.63-.91,1.88-1.13,2.78-.5l9.77,6.78c.91.63,1.13,1.88.5,2.78-.39.56-1.01.86-1.64.86h0Z"/>
      <path class="cls-6" d="M86,148.02c-1,0-1.86-.75-1.98-1.77-.13-1.1.66-2.09,1.75-2.22l11.81-1.38c1.1-.14,2.09.66,2.22,1.75s-.66,2.09-1.75,2.22l-11.81,1.38h-.24v.02Z"/>
      <path class="cls-6" d="M103,113.36c-.2,0-.41-.06-.59-.19l-4.21-3.06c-.43-.31-.92-.55-1.43-.69l-7.78-2.17c-.53-.15-.84-.7-.69-1.23.15-.53.7-.84,1.23-.69l7.78,2.17c.75.21,1.44.55,2.07,1l4.21,3.06c.45.32.55.95.22,1.4-.2.27-.5.41-.81.41h0Z"/>
      <path class="cls-6" d="M99,106.82c-.53,0-1.06-.06-1.57-.19l-7.84-1.96c-.54-.13-.86-.68-.73-1.21s.68-.86,1.21-.73l7.86,1.97c.51.13,1.04.16,1.57.1l5.17-.58c.54-.06,1.04.33,1.1.88s-.33,1.04-.88,1.11l-5.17.58c-.24.03-.48.04-.72.04h0Z"/>
      <path class="cls-6" d="M100.5,115.64c-.2,0-.4-.06-.57-.18l-4.56-3.17c-.45-.31-.57-.94-.25-1.39.31-.45.94-.57,1.39-.25l4.56,3.17c.45.31.57.94.25,1.39-.19.28-.51.43-.82.43Z"/>
      <path class="cls-6" d="M98.19,104c-.5,0-.93-.38-.99-.88-.06-.55.33-1.04.88-1.11l5.51-.65c.54-.07,1.04.33,1.11.88s-.33,1.04-.88,1.11l-5.51.65h-.12Z"/>
      <path class="cls-6" d="M52,127h-.02l-7.58-.11c-.73,0-1.43-.15-2.12-.42l-4.55-1.77c-.48-.19-.73-.74-.54-1.21s.74-.73,1.21-.54l4.55,1.76c.47.18.97.28,1.46.29l7.57.11c.52,0,.93.43.92.95,0,.52-.42.93-.94.93h.03Z"/>
      <path class="cls-6" d="M37.59,131.46c-.42,0-.82-.25-.98-.67-.21-.55.06-1.15.6-1.36l5.11-1.97c.76-.29,1.56-.45,2.38-.46l7.87,1h0s.99-.26,1,.29c0,.55-.99.71-.99.71l-7.87.11c-.57,0-1.12.12-1.64.32l-5.11,1.97c-.13.05-.25.07-.38.07h.01Z"/>
      <path class="cls-6" d="M44.14,123.31c-.11,0-.23-.02-.34-.06l-5.21-1.9c-.52-.19-.79-.76-.6-1.28.19-.52.77-.78,1.28-.6l5.21,1.9c.52.19.79.76.6,1.28-.15.41-.53.66-.94.66Z"/>
      <path class="cls-6" d="M39,133.99c-.4,0-.78-.24-.93-.63-.2-.51.05-1.09.57-1.3l5.17-2.03c.51-.2,1.09.05,1.3.57.2.51-.05,1.09-.57,1.3l-5.17,2.03c-.12.05-.24.07-.36.07h0,0Z"/>
      <path class="cls-6" d="M47.62,158.99c-.1,0-.2,0-.3-.05-.53-.17-.82-.73-.65-1.25l2.44-7.7c.23-.74.59-1.42,1.07-2.04l3.2-4.1c.34-.44.97-.51,1.4-.17.44.34.51.97.17,1.4l-3.2,4.1c-.33.42-.58.9-.74,1.41l-2.44,7.7c-.13.43-.53.7-.95.7Z"/>
      <path class="cls-6" d="M45.06,158c-.09,0-.18,0-.28-.04-.53-.15-.84-.71-.69-1.24l2.22-7.77c.15-.52.2-1.05.16-1.58l-.4-5.18c-.04-.55.37-1.03.92-1.07.54-.05,1.03.37,1.07.92l.4,5.18c.06.77-.02,1.54-.23,2.29l-2.22,7.77c-.13.44-.53.72-.96.72h0Z"/>
      <path class="cls-6" d="M53.06,151.77c-.21,0-.42-.06-.6-.2-.44-.33-.53-.96-.2-1.4l3.32-4.45c.33-.44.96-.53,1.4-.2.44.33.53.96.2,1.4l-3.32,4.45c-.2.26-.5.4-.8.4h0Z"/>
      <path class="cls-6" d="M44.6,149c-.52,0-.95-.4-1-.92l-.46-5.53c-.05-.55.36-1.03.91-1.08.55-.03,1.03.36,1.08.92l.46,5.53c.05.55-.36,1.03-.91,1.08h-.08Z"/>
      <path class="cls-6" d="M93,137.54c-.1,0-.2,0-.3-.05-.53-.17-.82-.73-.65-1.25l2.44-7.7c.23-.74.59-1.42,1.07-2.03l3.2-4.1c.34-.44.97-.51,1.4-.17.44.34.51.97.17,1.4l-3.2,4.1c-.33.42-.58.9-.74,1.41l-2.44,7.7c-.13.43-.53.7-.95.7h0Z"/>
      <path class="cls-6" d="M89.65,137c-.09,0-.18,0-.28-.04-.53-.15-.84-.71-.69-1.24l2.22-7.77c.15-.52.2-1.05.16-1.58l-.4-5.18c-.04-.55.37-1.03.92-1.07.56-.04,1.03.37,1.07.92l.4,5.18c.06.77-.02,1.54-.23,2.29l-2.22,7.77c-.13.44-.53.72-.96.72h.01Z"/>
      <path class="cls-6" d="M97.66,130.33c-.21,0-.42-.06-.6-.2-.44-.33-.53-.96-.2-1.4l3.32-4.45c.33-.44.96-.53,1.4-.2s.53.96.2,1.4l-3.32,4.45c-.2.26-.5.4-.8.4h0Z"/>
      <path class="cls-6" d="M89.19,128c-.52,0-.95-.4-1-.92l-.46-5.53c-.05-.55.36-1.03.91-1.08.55-.03,1.03.36,1.08.92l.46,5.53c.05.55-.36,1.03-.91,1.08h-.08Z"/>
      <path class="cls-6" d="M117,148.69c-.4,0-.78-.24-.93-.63l-2.96-7.52c-.29-.72-.44-1.48-.45-2.25l-.1-5.2c-.01-.55.43-1.01.98-1.02.57.02,1.01.43,1.02.98l.1,5.2c.01.54.12,1.06.31,1.56l2.96,7.52c.2.51-.05,1.09-.56,1.3-.12.05-.24.07-.37.07h0Z"/>
      <path class="cls-6" d="M114.12,150c-.39,0-.76-.23-.92-.61l-3.17-7.43c-.21-.48-.5-.93-.86-1.31l-3.6-3.79c-.38-.4-.36-1.03.04-1.41s1.03-.37,1.41.04l3.58,3.77c.53.56.96,1.21,1.26,1.92l3.17,7.43c.22.51-.02,1.1-.53,1.31-.13.05-.26.08-.39.08h.01,0Z"/>
      <path class="cls-6" d="M116.29,140c-.53,0-.98-.42-1-.96l-.23-5.54c-.02-.55.41-1.02.96-1.04.56-.05,1.02.41,1.04.96l.23,5.54c.02.55-.41,1.02-.96,1.04h-.04Z"/>
      <path class="cls-6" d="M108.13,143.03c-.26,0-.52-.1-.72-.31l-3.84-4c-.38-.4-.37-1.03.03-1.41s1.03-.37,1.41.03l3.84,4c.38.4.37,1.03-.03,1.41-.19.19-.44.28-.69.28Z"/>
    </g>
    <path class="cls-12" d="M22.63,34.31h0c-9.31-3.46-9.9-13.72-9.86-16.91,0-.58.34-1.11.86-1.37l8.97-4.53h.06l8.97,4.53c.52.26.85.79.86,1.37.05,3.19-.55,13.44-9.86,16.91Z"/>
    <circle class="cls-5" cx="132.7" cy="219.17" r="6.03"/>
    <circle class="cls-5" cx="132.7" cy="219.17" r="6.03"/>
  </g>
</svg>