<?xml version="1.0" encoding="UTF-8"?>
<svg id="Calque_1" data-name="Calque 1" xmlns="http://www.w3.org/2000/svg" viewBox="0 0 153.07 240.94">
  <defs>
    <style>
      .cls-1 {
        fill: #009;
      }

      .cls-1, .cls-2, .cls-3, .cls-4, .cls-5, .cls-6, .cls-7, .cls-8, .cls-9 {
        stroke-width: 0px;
      }

      .cls-2 {
        fill: #ff4240;
      }

      .cls-3 {
        fill: #ff6c00;
      }

      .cls-4 {
        fill: #ffdc4b;
      }

      .cls-5 {
        fill: #f33;
      }

      .cls-10 {
        letter-spacing: -.03em;
      }

      .cls-11 {
        stroke-linecap: round;
        stroke-linejoin: round;
      }

      .cls-11, .cls-12 {
        fill: none;
        stroke: #f33;
      }

      .cls-12 {
        stroke-miterlimit: 10;
      }

      .cls-6 {
        fill: #fc3;
      }

      .cls-7, .cls-13 {
        fill: #006;
      }

      .cls-13 {
        font-family: VarelaRound-Regular, 'Varela Round';
        font-size: 10px;
      }

      .cls-8 {
        fill: #fff;
      }

      .cls-9 {
        fill: #5e003e;
      }
    </style>
  </defs>
  <g>
    <rect class="cls-8" x=".5" y=".5" width="152.07" height="239.94" rx="11.5" ry="11.5"/>
    <path class="cls-6" d="M141.07,1c6.07,0,11,4.93,11,11v216.94c0,6.07-4.93,11-11,11H12c-6.07,0-11-4.93-11-11V12C1,5.94,5.93,1,12,1h129.07M141.07,0H12C5.4,0,0,5.4,0,12v216.94C0,235.54,5.4,240.94,12,240.94h129.07c6.6,0,12-5.4,12-12V12C153.07,5.4,147.67,0,141.07,0h0Z"/>
  </g>
  <path class="cls-7" d="M4.09,11.45h144.01v215.72c0,4.69-3.81,8.5-8.5,8.5H12.59c-4.69,0-8.5-3.81-8.5-8.5V11.45h0Z"/>
  <text class="cls-13" transform="translate(50.68 25.16)"><tspan x="0" y="0">CHIMI</tspan><tspan class="cls-10" x="29.86" y="0">O</tspan><tspan x="37.7" y="0">THERAPIE</tspan></text>
  <g>
    <rect class="cls-9" x="6.61" y="5.97" width="32.38" height="32.38" rx="6.83" ry="6.83"/>
    <circle class="cls-2" cx="17.9" cy="14.15" r="5.07"/>
    <circle class="cls-2" cx="22.97" cy="24.22" r="3.1"/>
    <circle class="cls-2" cx="29.17" cy="12.89" r="3.1"/>
    <circle class="cls-2" cx="32.28" cy="20.43" r="3.1"/>
    <circle class="cls-2" cx="14.54" cy="29.2" r="4.33"/>
    <circle class="cls-2" cx="31.05" cy="30.9" r="4.33"/>
  </g>
  <rect class="cls-8" x=".77" y="1.72" width="150.63" height="42.43" rx="13.9" ry="13.9"/>
  <rect class="cls-9" x="6.61" y="5.97" width="32.38" height="32.38" rx="6.83" ry="6.83"/>
  <circle class="cls-1" cx="118.26" cy="221.55" r="4.56"/>
  <circle class="cls-1" cx="27.71" cy="226" r="4.56"/>
  <circle class="cls-1" cx="137.41" cy="159.96" r="4.56"/>
  <circle class="cls-1" cx="14.54" cy="55.59" r="4.56"/>
  <circle class="cls-1" cx="127.38" cy="53.39" r="4.56"/>
  <g>
    <circle class="cls-1" cx="14.54" cy="150.84" r="4.56"/>
    <path class="cls-1" d="M14.54,155.9c-2.79,0-5.06-2.27-5.06-5.06s2.27-5.06,5.06-5.06,5.06,2.27,5.06,5.06-2.27,5.06-5.06,5.06ZM14.54,146.78c-2.24,0-4.06,1.82-4.06,4.06s1.82,4.06,4.06,4.06,4.06-1.82,4.06-4.06-1.82-4.06-4.06-4.06Z"/>
  </g>
  <g>
    <circle class="cls-1" cx="22.97" cy="130.34" r="2.28"/>
    <path class="cls-1" d="M22.97,133.12c-1.53,0-2.78-1.25-2.78-2.78s1.25-2.78,2.78-2.78,2.78,1.25,2.78,2.78-1.25,2.78-2.78,2.78ZM22.97,128.56c-.98,0-1.78.8-1.78,1.78s.8,1.78,1.78,1.78,1.78-.8,1.78-1.78-.8-1.78-1.78-1.78Z"/>
  </g>
  <g>
    <circle class="cls-1" cx="15.88" cy="69.8" r="2.28"/>
    <path class="cls-1" d="M15.88,72.58c-1.53,0-2.78-1.25-2.78-2.78s1.25-2.78,2.78-2.78,2.78,1.25,2.78,2.78-1.25,2.78-2.78,2.78ZM15.88,68.03c-.98,0-1.78.8-1.78,1.78s.8,1.78,1.78,1.78,1.78-.8,1.78-1.78-.8-1.78-1.78-1.78Z"/>
  </g>
  <g>
    <circle class="cls-1" cx="92.84" cy="218.77" r="2.28"/>
    <path class="cls-1" d="M92.84,221.55c-1.53,0-2.78-1.25-2.78-2.78s1.25-2.78,2.78-2.78,2.78,1.25,2.78,2.78-1.25,2.78-2.78,2.78ZM92.84,216.99c-.98,0-1.78.8-1.78,1.78s.8,1.78,1.78,1.78,1.78-.8,1.78-1.78-.8-1.78-1.78-1.78Z"/>
  </g>
  <g>
    <circle class="cls-1" cx="107.61" cy="52.81" r="2.28"/>
    <path class="cls-1" d="M107.61,55.59c-1.53,0-2.78-1.25-2.78-2.78s1.25-2.78,2.78-2.78,2.78,1.25,2.78,2.78-1.25,2.78-2.78,2.78ZM107.61,51.03c-.98,0-1.78.8-1.78,1.78s.8,1.78,1.78,1.78,1.78-.8,1.78-1.78-.8-1.78-1.78-1.78Z"/>
  </g>
  <path class="cls-1" d="M75.52,44.15c-2.61,4.76-6.64,8.57-10.38,8.22-2.89-.26-4.78-2.86-8.38-8.22h-1.2c.08.12.16.24.24.36,3.57,5.33,5.72,8.54,9.25,8.86.19.02.37.02.56.02,4.21,0,8.42-4.2,11.04-9.24h-1.13Z"/>
  <path class="cls-1" d="M148.08,140.89c-5.96,4.39-9.58,4.39-11.67,3.35-4.52-2.26-4.67-10.16-4.52-13.45h0c.03-.61.78-15.09,12.16-19.47,1.25-.48,2.62-.81,4.04-1.02v-1.04c-1.53.22-3.02.6-4.39,1.13-11.98,4.61-12.77,19.72-12.8,20.36-.15,3.49.03,11.87,5.08,14.39.94.47,1.96.7,3.08.7,2.56,0,5.58-1.24,9.04-3.69v-1.25Z"/>
  <path class="cls-1" d="M18.68,115.57c-1.47-4.93-8-8.8-14.59-9.24v1.01c6.13.46,12.31,4.05,13.64,8.51h0c.79,2.65-.82,5.99-4.53,13.32-3.89,7.67-6.18,12.17-9.1,14.72v1.29c3.41-2.57,5.78-7.25,10-15.58,3.57-7.03,5.53-10.91,4.59-14.05Z"/>
  <path class="cls-1" d="M19.21,235.67c-2.28-4.1-3.08-8.82-1.58-12.35,1.31-3.08,4.46-5.5,8.87-6.8,7.59-2.24,17.26-.86,23.5,3.37,5.77,3.91,10.66,11.19,8.74,15.78h1.06s.03-.09.05-.13c1.64-5.2-3.42-12.5-9.29-16.48-6.47-4.38-16.48-5.82-24.34-3.5-4.7,1.39-8.08,4.01-9.51,7.37-1.55,3.66-.85,8.49,1.38,12.75h1.12Z"/>
  <path class="cls-1" d="M103.48,235.67c-1.6-3.41-2.17-6.42-1.41-9.81,1.73-7.7,9.52-14.39,16.02-13.77,3.33.32,6.59,2.6,9.15,6.41,3.23,4.8,4.94,11.23,4.79,17.17h.99c.15-6.14-1.62-12.78-4.95-17.73-2.74-4.07-6.25-6.5-9.89-6.85-6.97-.67-15.27,6.4-17.09,14.55-.78,3.48-.23,6.61,1.3,10.03h1.09Z"/>
  <text class="cls-13" transform="translate(52.88 25.93)"><tspan x="0" y="0">RADI</tspan><tspan class="cls-10" x="24.94" y="0">O</tspan><tspan x="32.78" y="0">THERAPIE</tspan></text>
  <g>
    <path class="cls-4" d="M86.62,153.48h-20.09c-3.25,0-5.91-2.66-5.91-5.91v-10.18c0-3.25,2.66-5.91,5.91-5.91h20.18c3.25,0,5.91,2.66,5.91,5.91v10.25c0,3.21-2.67,5.84-5.94,5.84"/>
    <path class="cls-3" d="M99.62,141.48h-45.77c-5.08,0-9.23-4.15-9.23-9.23v-46.27c0-4.68,3.83-8.5,8.5-8.5h46.27c5.08,0,9.23,4.15,9.23,9.23v45.59c0,5.04-4.13,9.18-9.18,9.18"/>
    <path class="cls-3" d="M90.62,157.48h-29.29c-1.49,0-2.71-1.22-2.71-2.71v-1.58c0-1.49,1.22-2.71,2.71-2.71h29.58c1.49,0,2.71,1.22,2.71,2.71v1.74c0,1.4-1.2,2.55-2.67,2.55"/>
    <path class="cls-8" d="M100.17,108.1c0,13.21-10.71,23.91-23.91,23.91s-23.91-10.7-23.91-23.91,10.7-23.91,23.91-23.91,23.91,10.7,23.91,23.91"/>
    <path class="cls-3" d="M80.92,100.48c2.43,1.58,4.03,4.33,4.03,7.45,0,.19,0,.36-.02.55l11.13.16h0c.23-7.47-3.64-14.06-9.53-17.68l-5.62,9.53h.01Z"/>
    <path class="cls-3" d="M80.62,115.31c-1.2.63-2.55.98-4,.98-1.33,0-2.6-.3-3.73-.85l-5.24,9.49c2.68,1.4,5.73,2.2,8.97,2.2,3.4,0,6.6-.88,9.38-2.42l-5.38-9.41h0Z"/>
    <path class="cls-3" d="M67.62,107.93v-.25c0-3.04,1.57-5.71,3.95-7.24l-5.18-9.37c-5.83,3.44-9.71,9.85-9.53,17.17h0s10.76-.3,10.76-.3h0Z"/>
    <path class="cls-4" d="M79.6,108.09c0,1.81-1.47,3.28-3.28,3.28s-3.28-1.47-3.28-3.28,1.47-3.28,3.28-3.28,3.28,1.47,3.28,3.28"/>
    <path class="cls-8" d="M76.63,184.19c-10.65,0-20.27-5.68-24.52-14.48-.48-.99-.06-2.19.93-2.67,1-.48,2.19-.06,2.67.93,3.58,7.42,11.79,12.22,20.92,12.22s17.43-4.85,20.98-12.35c.47-1,1.66-1.43,2.66-.95,1,.47,1.42,1.67.95,2.66-4.21,8.89-13.86,14.64-24.59,14.64h0Z"/>
    <path class="cls-8" d="M76.61,202.48c-14.59,0-27.79-7.3-33.62-18.61-.51-.98-.12-2.19.86-2.69.98-.51,2.19-.12,2.69.86,5.15,9.99,16.95,16.44,30.06,16.44s24.96-6.47,30.09-16.5c.43-.84,1.35-1.39,2.28-1.17,1.33.32,1.93,1.73,1.35,2.86-5.78,11.43-19.01,18.81-33.72,18.81h.01Z"/>
  </g>
  <g>
    <path class="cls-12" d="M16.43,29.42c-2.05-3.11,1.59-8.49,2.25-9.47,1.96-2.89,6.38-7.37,9.58-6.2,3.7,1.35,5.83,10.23,1.58,14.88-3.67,4.02-11.3,3.99-13.41.79Z"/>
    <circle class="cls-5" cx="25.41" cy="18.57" r="1.41"/>
    <g>
      <line class="cls-11" x1="15.58" y1="13.38" x2="15.58" y2="17.74"/>
      <line class="cls-11" x1="17.76" y1="15.56" x2="13.4" y2="15.56"/>
    </g>
  </g>
  <circle class="cls-2" cx="133.04" cy="218.77" r="6.03"/>
  <circle class="cls-2" cx="130.86" cy="226" r="3.02"/>
  <circle class="cls-2" cx="127.84" cy="212.74" r="3.02"/>
</svg>