<?xml version="1.0" encoding="UTF-8"?>
<svg id="Calque_1" data-name="Calque 1" xmlns="http://www.w3.org/2000/svg" viewBox="0 0 153.07 240.94">
  <defs>
    <style>
      .cls-1 {
        fill: #009;
      }

      .cls-1, .cls-2, .cls-3, .cls-4, .cls-5, .cls-6, .cls-7, .cls-8, .cls-9, .cls-10 {
        stroke-width: 0px;
      }

      .cls-2 {
        fill: #ff4240;
      }

      .cls-3 {
        fill: #ff6c00;
      }

      .cls-4 {
        fill: #ffdc4b;
      }

      .cls-5 {
        fill: #f33;
      }

      .cls-11 {
        letter-spacing: -.03em;
      }

      .cls-12 {
        fill: none;
        stroke: #f33;
        stroke-miterlimit: 10;
      }

      .cls-6 {
        fill: #fc3;
      }

      .cls-7, .cls-13 {
        fill: #006;
      }

      .cls-8 {
        fill: #ff9292;
      }

      .cls-13 {
        font-family: VarelaRound-Regular, 'Varela Round';
        font-size: 10px;
      }

      .cls-9 {
        fill: #fff;
      }

      .cls-10 {
        fill: #5e003e;
      }
    </style>
  </defs>
  <g>
    <rect class="cls-9" x=".5" y=".5" width="152.07" height="239.94" rx="11.5" ry="11.5"/>
    <path class="cls-6" d="M141.07,1c6.07,0,11,4.93,11,11v216.94c0,6.07-4.93,11-11,11H12c-6.07,0-11-4.93-11-11V12C1,5.94,5.93,1,12,1h129.07M141.07,0H12C5.4,0,0,5.4,0,12v216.94C0,235.54,5.4,240.94,12,240.94h129.07c6.6,0,12-5.4,12-12V12C153.07,5.4,147.67,0,141.07,0h0Z"/>
  </g>
  <path class="cls-7" d="M4.09,11.45h144.01v215.72c0,4.69-3.81,8.5-8.5,8.5H12.59c-4.69,0-8.5-3.81-8.5-8.5V11.45h0Z"/>
  <text class="cls-13" transform="translate(50.68 25.16)"><tspan x="0" y="0">CHIMI</tspan><tspan class="cls-11" x="29.86" y="0">O</tspan><tspan x="37.7" y="0">THERAPIE</tspan></text>
  <g>
    <rect class="cls-10" x="6.61" y="5.97" width="32.38" height="32.38" rx="6.83" ry="6.83"/>
    <circle class="cls-2" cx="17.9" cy="14.15" r="5.07"/>
    <circle class="cls-2" cx="22.97" cy="24.22" r="3.1"/>
    <circle class="cls-2" cx="29.17" cy="12.89" r="3.1"/>
    <circle class="cls-2" cx="32.28" cy="20.43" r="3.1"/>
    <circle class="cls-2" cx="14.54" cy="29.2" r="4.33"/>
    <circle class="cls-2" cx="31.05" cy="30.9" r="4.33"/>
  </g>
  <rect class="cls-9" x=".77" y="1.72" width="150.63" height="42.43" rx="13.9" ry="13.9"/>
  <rect class="cls-10" x="6.61" y="5.97" width="32.38" height="32.38" rx="6.83" ry="6.83"/>
  <circle class="cls-1" cx="118.26" cy="221.55" r="4.56"/>
  <circle class="cls-1" cx="27.71" cy="226" r="4.56"/>
  <circle class="cls-1" cx="137.41" cy="159.96" r="4.56"/>
  <circle class="cls-1" cx="14.54" cy="55.59" r="4.56"/>
  <circle class="cls-1" cx="127.38" cy="53.39" r="4.56"/>
  <g>
    <circle class="cls-1" cx="14.54" cy="150.84" r="4.56"/>
    <path class="cls-1" d="M14.54,155.9c-2.79,0-5.06-2.27-5.06-5.06s2.27-5.06,5.06-5.06,5.06,2.27,5.06,5.06-2.27,5.06-5.06,5.06ZM14.54,146.78c-2.24,0-4.06,1.82-4.06,4.06s1.82,4.06,4.06,4.06,4.06-1.82,4.06-4.06-1.82-4.06-4.06-4.06Z"/>
  </g>
  <g>
    <circle class="cls-1" cx="22.97" cy="130.34" r="2.28"/>
    <path class="cls-1" d="M22.97,133.12c-1.53,0-2.78-1.25-2.78-2.78s1.25-2.78,2.78-2.78,2.78,1.25,2.78,2.78-1.25,2.78-2.78,2.78ZM22.97,128.56c-.98,0-1.78.8-1.78,1.78s.8,1.78,1.78,1.78,1.78-.8,1.78-1.78-.8-1.78-1.78-1.78Z"/>
  </g>
  <g>
    <circle class="cls-1" cx="15.88" cy="69.8" r="2.28"/>
    <path class="cls-1" d="M15.88,72.58c-1.53,0-2.78-1.25-2.78-2.78s1.25-2.78,2.78-2.78,2.78,1.25,2.78,2.78-1.25,2.78-2.78,2.78ZM15.88,68.03c-.98,0-1.78.8-1.78,1.78s.8,1.78,1.78,1.78,1.78-.8,1.78-1.78-.8-1.78-1.78-1.78Z"/>
  </g>
  <g>
    <circle class="cls-1" cx="92.84" cy="218.77" r="2.28"/>
    <path class="cls-1" d="M92.84,221.55c-1.53,0-2.78-1.25-2.78-2.78s1.25-2.78,2.78-2.78,2.78,1.25,2.78,2.78-1.25,2.78-2.78,2.78ZM92.84,216.99c-.98,0-1.78.8-1.78,1.78s.8,1.78,1.78,1.78,1.78-.8,1.78-1.78-.8-1.78-1.78-1.78Z"/>
  </g>
  <g>
    <circle class="cls-1" cx="107.61" cy="52.81" r="2.28"/>
    <path class="cls-1" d="M107.61,55.59c-1.53,0-2.78-1.25-2.78-2.78s1.25-2.78,2.78-2.78,2.78,1.25,2.78,2.78-1.25,2.78-2.78,2.78ZM107.61,51.03c-.98,0-1.78.8-1.78,1.78s.8,1.78,1.78,1.78,1.78-.8,1.78-1.78-.8-1.78-1.78-1.78Z"/>
  </g>
  <path class="cls-1" d="M75.52,44.15c-2.61,4.76-6.64,8.57-10.38,8.22-2.89-.26-4.78-2.86-8.38-8.22h-1.2c.08.12.16.24.24.36,3.57,5.33,5.72,8.54,9.25,8.86.19.02.37.02.56.02,4.21,0,8.42-4.2,11.04-9.24h-1.13Z"/>
  <path class="cls-1" d="M148.08,140.89c-5.96,4.39-9.58,4.39-11.67,3.35-4.52-2.26-4.67-10.16-4.52-13.45h0c.03-.61.78-15.09,12.16-19.47,1.25-.48,2.62-.81,4.04-1.02v-1.04c-1.53.22-3.02.6-4.39,1.13-11.98,4.61-12.77,19.72-12.8,20.36-.15,3.49.03,11.87,5.08,14.39.94.47,1.96.7,3.08.7,2.56,0,5.58-1.24,9.04-3.69v-1.25Z"/>
  <path class="cls-1" d="M18.68,115.57c-1.47-4.93-8-8.8-14.59-9.24v1.01c6.13.46,12.31,4.05,13.64,8.51h0c.79,2.65-.82,5.99-4.53,13.32-3.89,7.67-6.18,12.17-9.1,14.72v1.29c3.41-2.57,5.78-7.25,10-15.58,3.57-7.03,5.53-10.91,4.59-14.05Z"/>
  <path class="cls-1" d="M19.21,235.67c-2.28-4.1-3.08-8.82-1.58-12.35,1.31-3.08,4.46-5.5,8.87-6.8,7.59-2.24,17.26-.86,23.5,3.37,5.77,3.91,10.66,11.19,8.74,15.78h1.06s.03-.09.05-.13c1.64-5.2-3.42-12.5-9.29-16.48-6.47-4.38-16.48-5.82-24.34-3.5-4.7,1.39-8.08,4.01-9.51,7.37-1.55,3.66-.85,8.49,1.38,12.75h1.12Z"/>
  <path class="cls-1" d="M103.48,235.67c-1.6-3.41-2.17-6.42-1.41-9.81,1.73-7.7,9.52-14.39,16.02-13.77,3.33.32,6.59,2.6,9.15,6.41,3.23,4.8,4.94,11.23,4.79,17.17h.99c.15-6.14-1.62-12.78-4.95-17.73-2.74-4.07-6.25-6.5-9.89-6.85-6.97-.67-15.27,6.4-17.09,14.55-.78,3.48-.23,6.61,1.3,10.03h1.09Z"/>
  <text class="cls-13" transform="translate(44.18 25.93)"><tspan x="0" y="0">THERAPIES CIBLÉES</tspan></text>
  <g>
    <path class="cls-4" d="M46.71,106.88h0c-1.72-2.97-.69-6.81,2.29-8.53l18.2-10.51c2.98-1.72,6.82-.69,8.53,2.29,1.72,2.98.69,6.82-2.29,8.53l-18.2,10.51c-2.98,1.72-6.82.69-8.53-2.29"/>
    <path class="cls-3" d="M64.34,103.91l-6.25-10.82,9.1-5.25c2.97-1.72,6.82-.69,8.53,2.29,1.72,2.98.69,6.82-2.29,8.53l-9.1,5.25h0Z"/>
    <path class="cls-8" d="M69.74,89.22c-.32.19-.75.06-.95-.29s-.1-.78.22-.97c.33-.19.75-.06.95.29s.1.78-.22.97"/>
    <path class="cls-8" d="M60.03,94.05c-.17,0-.34-.09-.43-.25-.14-.24-.06-.54.18-.68l7.38-4.26c.24-.14.54-.06.68.18s.06.54-.18.68l-7.38,4.26c-.08.05-.17.07-.25.07Z"/>
    <path class="cls-4" d="M94.97,168.09h0c-3.09-1.49-4.4-5.25-2.91-8.34l9.15-18.92c1.5-3.09,5.25-4.4,8.34-2.9,3.09,1.49,4.4,5.25,2.9,8.34l-9.15,18.92c-1.5,3.09-5.25,4.4-8.34,2.9"/>
    <path class="cls-3" d="M107.89,155.73l-11.25-5.44,4.57-9.46c1.49-3.09,5.25-4.4,8.34-2.9s4.4,5.25,2.91,8.34l-4.57,9.46Z"/>
    <path class="cls-8" d="M104.09,140.54c-.16.34-.59.47-.95.3s-.52-.59-.36-.93c.16-.34.59-.47.95-.29.36.17.52.59.36.93"/>
    <path class="cls-8" d="M98.49,150.08c-.07,0-.15-.02-.22-.05-.25-.12-.35-.42-.23-.67l3.71-7.67c.12-.25.42-.35.67-.23.25.12.35.42.23.67l-3.71,7.67c-.09.18-.26.28-.45.28Z"/>
    <path class="cls-4" d="M48.23,173.93h0c-2.05-.67-3.18-2.9-2.51-4.96l4.12-12.56c.67-2.05,2.9-3.18,4.96-2.51,2.05.67,3.18,2.9,2.51,4.96l-4.12,12.56c-.67,2.05-2.9,3.18-4.96,2.51"/>
    <path class="cls-3" d="M55.25,165.14l-7.47-2.45,2.06-6.28c.67-2.05,2.9-3.18,4.96-2.51,2.05.67,3.18,2.9,2.51,4.96l-2.06,6.28h0Z"/>
    <path class="cls-8" d="M51.61,155.99c-.07.22-.33.34-.57.26s-.37-.32-.3-.55c.07-.22.33-.34.57-.26s.37.32.3.55"/>
    <path class="cls-8" d="M48.88,162.36s-.08,0-.12-.02c-.2-.06-.3-.28-.24-.47l1.67-5.09c.06-.2.28-.3.47-.24.2.06.3.28.24.47l-1.67,5.09c-.05.16-.2.26-.36.26h.01Z"/>
    <path class="cls-4" d="M73.4,181.43h0c-1.94.96-4.31.15-5.26-1.79l-5.84-11.85c-.95-1.94-.15-4.31,1.79-5.26,1.94-.96,4.3-.15,5.26,1.79l5.84,11.85c.96,1.94.15,4.31-1.79,5.26"/>
    <path class="cls-3" d="M72.27,170.24l-7.05,3.47-2.92-5.93c-.95-1.94-.15-4.31,1.79-5.26,1.94-.96,4.31-.15,5.26,1.79l2.92,5.93Z"/>
    <path class="cls-8" d="M63.27,166.24c.1.21,0,.47-.22.58-.23.11-.49.03-.6-.18-.1-.21,0-.47.22-.58.23-.11.49-.03.6.18"/>
    <path class="cls-8" d="M65.58,173.36c-.14,0-.27-.08-.34-.21l-2.37-4.81c-.09-.19-.02-.41.17-.5s.41,0,.5.17l2.37,4.81c.09.19.02.41-.17.5-.05.03-.11.04-.17.04h.01Z"/>
    <path class="cls-4" d="M100.7,114.52h0c-1.94.96-4.31.15-5.26-1.79l-5.84-11.85c-.95-1.94-.15-4.31,1.79-5.26,1.94-.95,4.3-.15,5.26,1.79l5.84,11.86c.96,1.94.15,4.31-1.79,5.26"/>
    <path class="cls-3" d="M99.57,103.33l-7.05,3.47-2.92-5.93c-.95-1.94-.15-4.31,1.79-5.26,1.94-.96,4.31-.15,5.26,1.79l2.92,5.93Z"/>
    <path class="cls-8" d="M90.57,99.33c.1.21,0,.47-.22.58-.23.11-.49.03-.6-.18-.1-.21,0-.47.22-.58.23-.11.49-.03.6.18"/>
    <path class="cls-8" d="M92.88,106.36c-.14,0-.27-.08-.34-.21l-2.37-4.81c-.09-.19-.02-.41.17-.5s.41-.01.5.17l2.37,4.81c.09.19.02.41-.17.5-.05.03-.11.04-.17.04h.01Z"/>
    <path class="cls-4" d="M84.94,155.52h0c-4.32,2.49-9.89,1-12.38-3.32l-15.24-26.4c-2.49-4.32-1-9.89,3.32-12.38,4.32-2.49,9.89-1,12.38,3.32l15.24,26.4c2.49,4.32,1,9.89-3.32,12.38"/>
    <path class="cls-3" d="M80.64,129.94l-15.7,9.06-7.62-13.2c-2.49-4.32-1-9.89,3.32-12.38s9.89-1,12.38,3.32l7.62,13.2Z"/>
    <path class="cls-8" d="M65.59,136.7c-.17,0-.34-.09-.43-.25l-6.18-10.71c-.14-.24-.06-.54.18-.68s.55-.06.68.18l6.18,10.71c.14.24.06.54-.18.68-.08.05-.17.07-.25.07Z"/>
    <path class="cls-8" d="M59.41,121.94c0,.54-.44.98-.98.98s-.98-.44-.98-.98.44-.98.98-.98.98.44.98.98"/>
  </g>
  <g>
    <g>
      <path class="cls-12" d="M16.73,19.86c0,.78-.63,1.41-1.41,1.41s-1.41-.63-1.41-1.41.63-1.41,1.41-1.41,1.41.63,1.41,1.41Z"/>
      <path class="cls-5" d="M16.73,19.86c0,.78-.63,1.41-1.41,1.41s-1.41-.63-1.41-1.41.63-1.41,1.41-1.41,1.41.63,1.41,1.41Z"/>
    </g>
    <g>
      <path class="cls-12" d="M29.2,22.16c0,.78-.63,1.41-1.41,1.41s-1.41-.63-1.41-1.41.63-1.41,1.41-1.41,1.41.63,1.41,1.41Z"/>
      <path class="cls-5" d="M29.2,22.16c0,.78-.63,1.41-1.41,1.41s-1.41-.63-1.41-1.41.63-1.41,1.41-1.41,1.41.63,1.41,1.41Z"/>
    </g>
    <path class="cls-12" d="M31.29,16.45c-.58-.21-1.18-.24-1.77-.13.01-.03.01-.07.01-.1-.01-1.79-2.54-3.97-3.68-4.67-2.49-1.51-5.71-2.17-8.52-1.26-5.99,1.95-8.52,10.73-5.97,13.72,1.12,1.32,3.08,1.43,4.68,1.3,1.41-.12,3.95-.29,4.77-1.63.41-.68.53-1.5.69-2.28.17-.79.4-1.6.99-2.15.67-.64,1.66-.79,2.59-.82h.38c-1.06.79-2.19,1.83-2.22,2.97-.03.8.27,1.57.52,2.33.24.76.44,1.59.2,2.36-.27.88-1.06,1.51-1.85,1.99-.8.47-1.66.89-2.27,1.59-.28.33-.49.71-.63,1.11-.18.54-.11,1.01.12,1.41.88,1.55,4.17,2.21,5.51,2.25,2.9.08,6.03-.92,8.03-3.11,4.25-4.64,2.12-13.53-1.58-14.88Z"/>
  </g>
  <circle class="cls-2" cx="133.04" cy="218.77" r="6.03"/>
</svg>